<svg width="814" height="257" viewBox="0 0 814 257" fill="none" xmlns="http://www.w3.org/2000/svg">
<path d="M0 150.883L28.5078 224.074H66.4648L82 186.518C82.2669 185.824 82.4538 185.236 82.5605 184.756C82.7207 184.275 82.9076 183.742 83.1211 183.154H83.5215C83.6816 183.742 83.8418 184.275 84.002 184.756C84.1621 185.236 84.3757 185.797 84.6426 186.438L101.059 224.074H138.055L166.562 150.883H135.092L119.637 190.842C119.316 191.803 119.076 192.577 118.916 193.164C118.756 193.698 118.569 194.365 118.355 195.166H118.035C117.768 194.365 117.528 193.698 117.314 193.164C117.154 192.63 116.887 191.856 116.514 190.842L100.658 150.883H69.1074L53.0117 190.602C52.638 191.669 52.3711 192.47 52.2109 193.004C52.0508 193.538 51.8105 194.232 51.4902 195.086H51.1699C50.903 194.232 50.6895 193.538 50.5293 193.004C50.3691 192.47 50.1289 191.669 49.8086 190.602L34.2734 150.883H0Z" fill="white"/>
<path d="M173.93 224.074H211.326V190.441C214.049 185.743 217.919 181.926 222.938 178.99C228.009 176.054 233.321 174.586 238.873 174.586C242.236 174.586 244.986 174.799 247.121 175.227C249.31 175.654 251.125 176.268 252.566 177.068V150.402C251.445 149.922 249.844 149.468 247.762 149.041C245.733 148.561 242.85 148.32 239.113 148.32C233.027 148.32 227.449 150.082 222.377 153.605C217.305 157.129 213.542 161.16 211.086 165.697H210.926V150.883H173.93V224.074Z" fill="white"/>
<path d="M253.527 201.973C253.527 209.34 256.143 215.052 261.375 219.109C266.66 223.113 274.268 225.115 284.197 225.115C293.166 225.115 300.48 223.941 306.139 221.592C311.851 219.243 315.855 216.574 318.15 213.584C318.364 216.093 318.658 218.148 319.031 219.75C319.458 221.298 320.126 222.74 321.033 224.074H357.549V223.033C356.374 221.218 355.52 219.029 354.986 216.467C354.452 213.904 354.186 211.182 354.186 208.299V177.469C354.186 167.272 350.609 159.825 343.455 155.127C336.355 150.376 324.743 148 308.621 148C293.513 148 281.768 150.429 273.387 155.287C265.059 160.092 260.895 166.391 260.895 174.186V175.947L293.566 176.107V174.346C293.566 172.104 294.527 170.368 296.449 169.141C298.371 167.913 301.361 167.299 305.418 167.299C310.116 167.299 313.346 167.966 315.107 169.301C316.869 170.582 317.75 172.397 317.75 174.746V179.391L287.961 179.15C276.697 179.044 268.128 180.992 262.256 184.996C256.437 189 253.527 194.659 253.527 201.973ZM289.402 199.17C289.402 196.821 290.257 195.246 291.965 194.445C293.727 193.591 296.663 193.164 300.773 193.164L317.75 193.324V195.807C317.75 199.33 315.908 202.106 312.225 204.135C308.594 206.11 304.59 207.098 300.213 207.098C296.476 207.098 293.727 206.43 291.965 205.096C290.257 203.708 289.402 201.732 289.402 199.17Z" fill="white"/>
<path d="M368.68 256.586H404.875L404.955 217.748C407.304 219.67 410.801 221.565 415.445 223.434C420.143 225.249 426.176 226.156 433.543 226.156C445.128 226.156 454.71 222.793 462.291 216.066C469.925 209.286 473.742 199.891 473.742 187.879V186.277C473.742 173.892 470.112 164.523 462.852 158.17C455.645 151.764 446.008 148.561 433.943 148.561C426.363 148.561 420.117 149.655 415.205 151.844C410.347 153.979 406.797 156.408 404.555 159.131H404.395V150.883H368.68V256.586ZM404.955 196.047V179.15C405.969 177.549 407.945 176.054 410.881 174.666C413.87 173.225 417.447 172.504 421.611 172.504C426.896 172.504 430.874 173.652 433.543 175.947C436.266 178.189 437.627 181.499 437.627 185.877V188.279C437.627 192.87 436.266 196.447 433.543 199.01C430.874 201.572 426.843 202.854 421.451 202.854C417.18 202.854 413.604 202.106 410.721 200.611C407.838 199.117 405.916 197.595 404.955 196.047Z" fill="white"/>
<path d="M484.793 256.586H520.988L521.068 217.748C523.417 219.67 526.914 221.565 531.559 223.434C536.257 225.249 542.289 226.156 549.656 226.156C561.241 226.156 570.824 222.793 578.404 216.066C586.038 209.286 589.855 199.891 589.855 187.879V186.277C589.855 173.892 586.225 164.523 578.965 158.17C571.758 151.764 562.122 148.561 550.057 148.561C542.476 148.561 536.23 149.655 531.318 151.844C526.46 153.979 522.91 156.408 520.668 159.131H520.508V150.883H484.793V256.586ZM521.068 196.047V179.15C522.083 177.549 524.058 176.054 526.994 174.666C529.984 173.225 533.561 172.504 537.725 172.504C543.01 172.504 546.987 173.652 549.656 175.947C552.379 178.189 553.74 181.499 553.74 185.877V188.279C553.74 192.87 552.379 196.447 549.656 199.01C546.987 201.572 542.956 202.854 537.564 202.854C533.294 202.854 529.717 202.106 526.834 200.611C523.951 199.117 522.029 197.595 521.068 196.047Z" fill="white"/>
<path d="M596.742 187.719C596.742 199.944 601.52 209.447 611.076 216.227C620.686 222.953 633.818 226.316 650.475 226.316C665.476 226.316 676.82 224.208 684.508 219.99C692.249 215.773 697.721 209.553 700.924 201.332L669.934 195.727C668.759 197.488 666.677 199.036 663.688 200.371C660.698 201.706 656.214 202.373 650.234 202.373C644.949 202.373 640.758 201.225 637.662 198.93C634.566 196.634 633.018 193.057 633.018 188.199V184.035C633.018 180.352 634.486 177.442 637.422 175.307C640.411 173.118 644.816 172.023 650.635 172.023C656.294 172.023 660.378 172.824 662.887 174.426C665.396 175.974 666.65 178.003 666.65 180.512V180.992H615.961V191.322H701.404V185.076C701.404 173.865 697.027 164.843 688.271 158.01C679.516 151.176 667.077 147.76 650.955 147.76C634.352 147.76 621.166 151.23 611.396 158.17C601.627 165.057 596.742 174.399 596.742 186.197V187.719Z" fill="white"/>
<path d="M707.57 187.959C707.57 199.757 711.174 209.073 718.381 215.906C725.588 222.74 735.171 226.156 747.129 226.156C754.763 226.156 761.116 224.982 766.188 222.633C771.312 220.23 775.236 217.348 777.959 213.984H778.039V224.074H813.354V107.4H778.119V160.652C775.77 157.609 771.98 154.887 766.748 152.484C761.57 150.029 755.057 148.801 747.209 148.801C735.251 148.801 725.641 152.244 718.381 159.131C711.174 165.964 707.57 174.96 707.57 186.117V187.959ZM744.246 187.959V187.078C744.246 182.807 745.501 179.311 748.01 176.588C750.572 173.865 754.576 172.504 760.021 172.504C764.346 172.504 767.976 173.198 770.912 174.586C773.848 175.974 775.877 177.602 776.998 179.471V195.486C776.09 197.088 774.169 198.663 771.232 200.211C768.296 201.706 764.586 202.453 760.102 202.453C754.816 202.453 750.839 201.199 748.17 198.689C745.554 196.127 744.246 192.55 744.246 187.959Z" fill="white"/>
<path d="M8.00781 117.154H44.4434V76.2344C45.2975 73.8854 47.0059 71.8568 49.5684 70.1484C52.1309 68.3867 54.9603 67.5059 58.0566 67.5059C61.6868 67.5059 64.3027 68.4668 65.9043 70.3887C67.5059 72.3105 68.3066 75.0599 68.3066 78.6367V117.154H104.902V75.7539C105.757 73.5117 107.251 71.5898 109.387 69.9883C111.522 68.3333 114.405 67.5059 118.035 67.5059C121.879 67.5059 124.628 68.4401 126.283 70.3086C127.938 72.1771 128.766 74.8997 128.766 78.4766V117.154H165.361V70.709C165.361 61.0462 162.505 53.6523 156.793 48.5273C151.134 43.349 143.714 40.7598 134.531 40.7598C126.737 40.7598 120.144 42.2812 114.752 45.3242C109.413 48.3138 105.089 52.1042 101.779 56.6953H101.539C100.044 52.2643 96.9746 48.5273 92.3301 45.4844C87.6855 42.4414 81.7865 40.9199 74.6328 40.9199C67.4792 40.9199 61.2064 42.388 55.8145 45.3242C50.4759 48.2604 46.5788 51.8906 44.123 56.2148H43.8828V43.9629H8.00781V117.154Z" fill="white"/>
<path d="M179.295 117.074H216.451V43.8828H179.295V117.074ZM177.373 27.627L206.041 35.9551L226.861 8.72852L194.75 0L177.373 27.627Z" fill="white"/>
<path d="M227.502 92.0098L227.582 94.4121C227.849 102.367 232.36 108.533 241.115 112.91C249.87 117.234 262.389 119.396 278.672 119.396C294.688 119.396 306.966 117.101 315.508 112.51C324.103 107.919 328.4 101.192 328.4 92.3301C328.4 85.5501 325.544 80.4251 319.832 76.9551C314.12 73.485 301.868 71.1094 283.076 69.8281C273.894 69.0273 267.888 68.2799 265.059 67.5859C262.283 66.8385 260.895 65.7441 260.895 64.3027C260.895 62.7546 261.936 61.6602 264.018 61.0195C266.153 60.3255 269.997 59.9785 275.549 59.9785C281.581 59.9785 286.066 60.459 289.002 61.4199C291.992 62.3809 293.486 64.0091 293.486 66.3047V67.7461H324.717V65.3438C324.77 57.4427 320.66 51.3835 312.385 47.166C304.163 42.8952 292.579 40.7598 277.631 40.7598C262.096 40.7598 250.057 42.8685 241.516 47.0859C232.974 51.25 228.703 57.416 228.703 65.584C228.703 72.8444 231.506 78.4232 237.111 82.3203C242.717 86.1641 254.809 88.7799 273.387 90.168C281.928 90.9154 287.48 91.7161 290.043 92.5703C292.605 93.3711 293.887 94.5723 293.887 96.1738C293.887 97.9355 292.686 99.2168 290.283 100.018C287.881 100.765 283.53 101.139 277.23 101.139C271.625 101.139 267.167 100.712 263.857 99.8574C260.548 98.9499 258.893 96.9479 258.893 93.8516V92.4902L227.502 92.0098Z" fill="white"/>
<path d="M332.484 69.3477H406.637V43.8828H332.484V69.3477ZM348.18 91.209C348.18 100.124 350.982 106.931 356.588 111.629C362.193 116.327 369.961 118.676 379.891 118.676C388.112 118.676 394.305 118.302 398.469 117.555C402.633 116.807 405.783 116.113 407.918 115.473L406.797 92.25C405.409 92.6237 403.887 92.9974 402.232 93.3711C400.577 93.6914 398.255 93.8516 395.266 93.8516C391.422 93.8516 388.539 92.8105 386.617 90.7285C384.749 88.5931 383.814 84.9362 383.814 79.7578V21.1406H349.301V46.3652L348.18 47.2461V91.209Z" fill="white"/>
<path d="M417.127 117.074H454.363V43.8828H417.127V117.074ZM415.686 18.6582C415.686 23.6764 417.394 27.974 420.811 31.5508C424.227 35.0742 429.139 36.8359 435.545 36.8359C442.005 36.8359 446.996 35.0742 450.52 31.5508C454.043 27.974 455.805 23.6764 455.805 18.6582C455.805 13.5332 454.096 9.28906 450.68 5.92578C447.263 2.5625 442.298 0.880859 435.785 0.880859C429.379 0.880859 424.414 2.58919 420.891 6.00586C417.421 9.42253 415.686 13.64 415.686 18.6582Z" fill="white"/>
<path d="M465.574 80.7988C465.574 92.9707 470.245 102.447 479.588 109.227C488.984 115.953 501.903 119.316 518.346 119.316C534.094 119.316 546.293 116.674 554.941 111.389C563.643 106.05 568.234 98.2292 568.715 87.9258L568.795 85.6035H535.002L534.922 86.7246C534.708 89.4473 533.32 91.556 530.758 93.0508C528.195 94.4922 524.405 95.2129 519.387 95.2129C513.568 95.2129 509.297 94.0651 506.574 91.7695C503.852 89.4206 502.49 86.0306 502.49 81.5996V78.877C502.49 74.5527 503.878 71.2695 506.654 69.0273C509.484 66.7318 513.755 65.584 519.467 65.584C524.271 65.584 527.902 66.3581 530.357 67.9062C532.867 69.4544 534.281 71.75 534.602 74.793L534.682 75.6738H568.795L568.635 73.5117C567.834 62.7812 563.083 54.64 554.381 49.0879C545.679 43.5358 533.587 40.7598 518.105 40.7598C501.823 40.7598 488.984 44.2031 479.588 51.0898C470.245 57.9232 465.574 67.2656 465.574 79.1172V80.7988Z" fill="white"/>
<path d="M574.801 94.9727C574.801 102.34 577.417 108.052 582.648 112.109C587.934 116.113 595.541 118.115 605.471 118.115C614.439 118.115 621.753 116.941 627.412 114.592C633.124 112.243 637.128 109.574 639.424 106.584C639.637 109.093 639.931 111.148 640.305 112.75C640.732 114.298 641.399 115.74 642.307 117.074H678.822V116.033C677.648 114.218 676.794 112.029 676.26 109.467C675.726 106.904 675.459 104.182 675.459 101.299V70.4688C675.459 60.2721 671.882 52.8249 664.729 48.127C657.628 43.3757 646.017 41 629.895 41C614.786 41 603.042 43.429 594.66 48.2871C586.332 53.0918 582.168 59.3913 582.168 67.1855V68.9473L614.84 69.1074V67.3457C614.84 65.1035 615.801 63.3685 617.723 62.1406C619.645 60.9128 622.634 60.2988 626.691 60.2988C631.389 60.2988 634.619 60.9661 636.381 62.3008C638.143 63.582 639.023 65.3971 639.023 67.7461V72.3906L609.234 72.1504C597.97 72.0436 589.402 73.9922 583.529 77.9961C577.71 82 574.801 87.6589 574.801 94.9727ZM610.676 92.1699C610.676 89.821 611.53 88.2461 613.238 87.4453C615 86.5911 617.936 86.1641 622.047 86.1641L639.023 86.3242V88.8066C639.023 92.3301 637.182 95.1061 633.498 97.1348C629.868 99.11 625.864 100.098 621.486 100.098C617.749 100.098 615 99.4303 613.238 98.0957C611.53 96.7077 610.676 94.7324 610.676 92.1699Z" fill="white"/>
</svg>
