<svg width="789" height="240" viewBox="0 0 789 240" fill="none" xmlns="http://www.w3.org/2000/svg">
<path d="M0 140.935L29.4157 208.658H67.3524L83.8015 178.575C84.3943 177.538 84.9623 176.599 85.5057 175.76C86.0491 174.871 86.5677 173.907 87.0617 172.87H87.3581C87.852 173.907 88.3707 174.871 88.9141 175.76C89.4574 176.599 90.0255 177.538 90.6183 178.575L107.512 208.658H144.263L173.679 140.935H142.411L127.295 171.018C126.653 172.5 125.986 174.13 125.295 175.908C124.653 177.637 124.085 179.168 123.591 180.502H123.294C122.751 179.168 122.133 177.661 121.442 175.982C120.75 174.253 120.083 172.598 119.441 171.018L104.252 140.935H73.3541L57.5719 170.573C56.8803 172.154 56.1888 173.833 55.4972 175.611C54.855 177.34 54.2376 178.896 53.6448 180.279H53.2743C52.8298 178.896 52.2864 177.34 51.6443 175.611C51.0515 173.833 50.3846 172.154 49.6437 170.573L34.8247 140.935H0Z" fill="white"/>
<path d="M178.717 208.658H213.32V176.871C216.234 172.771 220.285 169.486 225.471 167.016C230.707 164.547 236.289 163.312 242.217 163.312C244.44 163.312 246.465 163.411 248.293 163.608C250.12 163.806 251.701 164.127 253.035 164.571V140.787C252.343 140.589 251.083 140.392 249.256 140.194C247.428 139.996 245.378 139.898 243.106 139.898C236.635 139.898 230.806 141.182 225.619 143.751C220.433 146.27 216.209 149.481 212.949 153.383H213.246L213.023 140.935H178.717V208.658Z" fill="white"/>
<path d="M253.109 189.023C253.109 195.79 256.196 200.927 262.371 204.434C268.545 207.892 276.819 209.621 287.192 209.621C297.171 209.621 305.494 208.658 312.162 206.731C318.831 204.805 323.425 202.533 325.944 199.915C326.191 201.594 326.611 203.175 327.204 204.657C327.797 206.089 328.636 207.423 329.723 208.658H363.288V207.695C361.905 205.916 360.868 203.866 360.176 201.545C359.534 199.223 359.213 196.729 359.213 194.061V165.016C359.213 155.976 355.261 149.382 347.358 145.233C339.454 141.083 327.352 139.009 311.051 139.009C295.244 139.009 282.771 141.083 273.633 145.233C264.544 149.382 260 155.062 260 162.274V163.682L290.527 163.83V162.423C290.527 160.496 291.935 159.014 294.75 157.977C297.615 156.89 302.086 156.347 308.161 156.347C314.385 156.347 318.782 156.964 321.35 158.199C323.968 159.385 325.277 161.138 325.277 163.46V166.498H295.862C283.018 166.498 272.67 168.572 264.816 172.722C257.011 176.822 253.109 182.255 253.109 189.023ZM286.526 186.429C286.526 184.157 288.329 182.527 291.935 181.539C295.54 180.502 300.949 179.983 308.161 179.983H325.277V184.207C325.277 186.38 323.054 188.356 318.609 190.134C314.163 191.863 309.174 192.727 303.642 192.727C297.912 192.727 293.614 192.209 290.749 191.171C287.933 190.134 286.526 188.553 286.526 186.429Z" fill="white"/>
<path d="M369.734 240H403.522V200.211C407.276 203.125 411.796 205.521 417.081 207.398C422.367 209.226 429.134 210.14 437.383 210.14C449.634 210.14 459.686 207.028 467.54 200.804C475.443 194.53 479.395 186.108 479.395 175.537V173.166C479.395 162.052 475.567 153.556 467.91 147.678C460.254 141.799 450.251 138.86 437.902 138.86C429.751 138.86 422.688 139.996 416.711 142.269C410.783 144.541 406.263 147.332 403.151 150.641H403.299L403.077 140.935H369.734V240ZM403.522 179.909V169.684C405.004 167.412 407.498 165.46 411.005 163.83C414.512 162.2 418.835 161.385 423.972 161.385C431.085 161.385 436.395 162.324 439.902 164.201C443.41 166.078 445.163 168.77 445.163 172.277V176.871C445.163 180.181 443.41 182.898 439.902 185.022C436.445 187.146 431.06 188.208 423.75 188.208C418.761 188.208 414.512 187.393 411.005 185.763C407.498 184.083 405.004 182.132 403.522 179.909Z" fill="white"/>
<path d="M486.36 240H520.147V200.211C523.901 203.125 528.421 205.521 533.707 207.398C538.992 209.226 545.759 210.14 554.009 210.14C566.259 210.14 576.311 207.028 584.165 200.804C592.069 194.53 596.021 186.108 596.021 175.537V173.166C596.021 162.052 592.192 153.556 584.536 147.678C576.879 141.799 566.877 138.86 554.527 138.86C546.377 138.86 539.313 139.996 533.336 142.269C527.409 144.541 522.889 147.332 519.777 150.641H519.925L519.703 140.935H486.36V240ZM520.147 179.909V169.684C521.629 167.412 524.124 165.46 527.631 163.83C531.138 162.2 535.46 161.385 540.598 161.385C547.711 161.385 553.021 162.324 556.528 164.201C560.035 166.078 561.789 168.77 561.789 172.277V176.871C561.789 180.181 560.035 182.898 556.528 185.022C553.07 187.146 547.686 188.208 540.375 188.208C535.386 188.208 531.138 187.393 527.631 185.763C524.124 184.083 521.629 182.132 520.147 179.909Z" fill="white"/>
<path d="M600.392 175.611C600.392 186.578 605.332 195.148 615.211 201.322C625.091 207.448 639.07 210.51 657.149 210.51C671.079 210.51 681.971 208.608 689.825 204.805C697.728 200.952 703.36 195.197 706.719 187.541L677.303 182.132C675.574 184.009 672.981 185.491 669.523 186.578C666.115 187.615 661.916 188.134 656.927 188.134C649.27 188.134 643.516 187.146 639.663 185.17C635.81 183.144 633.883 180.032 633.883 175.834V171.314C633.883 168.103 635.686 165.559 639.292 163.682C642.948 161.756 648.085 160.792 654.704 160.792C662.706 160.792 668.066 161.632 670.783 163.312C673.549 164.942 674.932 167.214 674.932 170.128V168.943H616.619V178.279H707.237V172.574C707.237 162.2 702.767 153.951 693.826 147.826C684.885 141.651 672.166 138.564 655.667 138.564C638.773 138.564 625.338 141.676 615.359 147.9C605.381 154.124 600.392 162.571 600.392 173.24V175.611Z" fill="white"/>
<path d="M714.128 208.658H748.731V176.871C751.645 172.771 755.696 169.486 760.882 167.016C766.118 164.547 771.7 163.312 777.628 163.312C779.851 163.312 781.876 163.411 783.703 163.608C785.531 163.806 787.112 164.127 788.445 164.571V140.787C787.754 140.589 786.494 140.392 784.667 140.194C782.839 139.996 780.789 139.898 778.517 139.898C772.046 139.898 766.217 141.182 761.03 143.751C755.844 146.27 751.62 149.481 748.36 153.383H748.656L748.434 140.935H714.128V208.658Z" fill="white"/>
<path d="M4.59375 107.586H38.5293V72.5391C40.7027 69.674 43.3208 67.2289 46.3834 65.2036C49.4953 63.129 53.2248 62.0917 57.5717 62.0917C62.9066 62.0917 66.9818 63.1784 69.7974 65.3518C72.613 67.5253 74.0949 71.23 74.2431 76.4661V107.586H108.327V72.465C110.5 69.6 113.143 67.1548 116.255 65.1296C119.367 63.1043 123.096 62.0917 127.443 62.0917C132.729 62.0917 136.755 63.1784 139.521 65.3518C142.336 67.5253 143.818 71.23 143.967 76.4661V107.586H178.05V69.7234C178.05 58.2634 174.938 50.0636 168.714 45.1239C162.54 40.1842 154.513 37.7144 144.633 37.7144C136.088 37.7144 128.308 39.0481 121.293 41.7155C114.329 44.3335 108.648 48.063 104.252 52.9039H104.4C102.325 47.9148 98.6945 44.1607 93.5078 41.6414C88.3212 39.0728 82.2207 37.7885 75.2063 37.7885C66.8583 37.7885 59.6958 39.1222 53.7188 41.7896C47.7418 44.4076 42.5551 48.557 38.1588 54.2376H38.307L38.0847 39.8631H4.59375V107.586Z" fill="white"/>
<path d="M186.349 107.512H221.025V39.789H186.349V107.512ZM185.46 25.4887L210.208 32.4536L229.472 7.18722L201.464 0L185.46 25.4887Z" fill="white"/>
<path d="M227.768 84.9129L227.842 86.1726C228.188 93.6315 232.757 99.3615 241.55 103.363C250.392 107.364 262.716 109.364 278.523 109.364C294.775 109.364 307.223 107.388 315.867 103.437C324.561 99.485 328.908 93.6562 328.908 85.9503C328.908 79.6275 325.499 74.7866 318.683 71.4276C311.915 68.0193 301.542 65.5988 287.563 64.1663C275.905 63.0796 268.668 62.2151 265.853 61.573C263.087 60.8814 261.704 59.9429 261.704 58.7574C261.704 57.4731 262.963 56.5345 265.482 55.9418C268.051 55.349 272.324 55.0526 278.301 55.0526C284.624 55.0526 289.366 55.5219 292.527 56.4604C295.689 57.3496 297.269 58.8562 297.269 60.9802V62.3139H326.981V60.6838C327.129 53.5707 322.906 47.8901 314.311 43.642C305.716 39.3939 294.034 37.2698 279.264 37.2698C264.149 37.2698 252.343 39.221 243.847 43.1233C235.35 46.9763 231.102 52.5334 231.102 59.7947C231.102 66.1669 233.967 71.1559 239.697 74.7619C245.427 78.3185 255.257 80.9365 269.187 82.616C281.042 83.8509 288.452 84.8388 291.416 85.5798C294.429 86.3207 295.935 87.3334 295.935 88.6177C295.935 89.9514 294.404 90.964 291.342 91.6556C288.328 92.2977 283.759 92.6188 277.634 92.6188C271.608 92.6188 266.742 92.2236 263.037 91.4333C259.333 90.6429 257.48 89.087 257.48 86.7653V85.3575L227.768 84.9129Z" fill="white"/>
<path d="M332.687 63.3513H405.818V39.789H332.687V63.3513ZM349.432 84.8388C349.432 93.1375 351.853 99.238 356.693 103.14C361.584 107.043 368.722 108.994 378.107 108.994C384.775 108.994 390.234 108.747 394.482 108.253C398.779 107.759 401.966 107.265 404.04 106.771V85.0611C402.41 85.4563 400.755 85.728 399.076 85.8762C397.396 86.0244 395.569 86.0985 393.593 86.0985C389.74 86.0985 386.974 85.4563 385.294 84.172C383.615 82.8383 382.775 79.8004 382.775 75.0583V18.7461H350.173V42.086L349.432 42.901V84.8388Z" fill="white"/>
<path d="M413.08 107.512H447.756V39.789H413.08V107.512ZM411.968 16.5232C411.968 21.0677 413.549 24.97 416.71 28.2302C419.872 31.4904 424.392 33.1205 430.27 33.1205C436.197 33.1205 440.791 31.5151 444.051 28.3043C447.312 25.0441 448.942 21.1171 448.942 16.5232C448.942 11.8305 447.361 7.92817 444.2 4.81618C441.038 1.70419 436.494 0.148188 430.566 0.148188C424.589 0.148188 419.995 1.72889 416.784 4.89028C413.574 8.00227 411.968 11.8799 411.968 16.5232Z" fill="white"/>
<path d="M454.869 74.6137C454.869 85.3822 459.784 93.8784 469.614 100.102C479.444 106.277 492.707 109.364 509.403 109.364C526.05 109.364 538.868 106.993 547.859 102.251C556.849 97.4597 561.492 90.149 561.789 80.319L561.863 78.3185H529.261V79.3558C529.211 81.5787 527.68 83.3816 524.667 84.7647C521.654 86.0984 516.887 86.7653 510.367 86.7653C503.204 86.7653 497.869 85.8268 494.362 83.9497C490.855 82.0232 489.101 79.2817 489.101 75.7252V70.909C489.101 67.4512 490.855 64.8332 494.362 63.0549C497.919 61.2272 503.278 60.3134 510.441 60.3134C516.862 60.3134 521.58 61.0543 524.593 62.5362C527.655 63.9687 529.187 65.9199 529.187 68.3897V69.2789H561.789L561.714 67.3524C561.171 57.1273 556.404 49.5696 547.414 44.6793C538.424 39.7397 525.655 37.2698 509.107 37.2698C492.411 37.2698 479.197 40.3571 469.466 46.5317C459.735 52.7063 454.869 61.2272 454.869 72.0945V74.6137Z" fill="white"/>
<path d="M566.086 87.8767C566.086 94.6441 569.173 99.7813 575.348 103.289C581.522 106.746 589.796 108.475 600.17 108.475C610.148 108.475 618.471 107.512 625.14 105.585C631.808 103.659 636.402 101.387 638.922 98.7687C639.168 100.448 639.588 102.029 640.181 103.511C640.774 104.943 641.614 106.277 642.7 107.512H676.265V106.549C674.882 104.77 673.845 102.72 673.153 100.399C672.511 98.0772 672.19 95.5826 672.19 92.9152V63.8699C672.19 54.8303 668.238 48.2359 660.335 44.0866C652.431 39.9372 640.329 37.8626 624.028 37.8626C608.221 37.8626 595.749 39.9372 586.61 44.0866C577.521 48.2359 572.977 53.9165 572.977 61.1284V62.5362L603.504 62.6844V61.2766C603.504 59.3501 604.912 57.8682 607.727 56.8309C610.592 55.7442 615.063 55.2008 621.139 55.2008C627.363 55.2008 631.759 55.8183 634.328 57.0532C636.946 58.2387 638.255 59.9923 638.255 62.3139V65.3518H608.839C595.996 65.3518 585.647 67.4265 577.793 71.5758C569.988 75.6758 566.086 81.1094 566.086 87.8767ZM599.503 85.2834C599.503 83.0112 601.306 81.3811 604.912 80.3931C608.518 79.3558 613.927 78.8371 621.139 78.8371H638.255V83.0606C638.255 85.234 636.032 87.2099 631.586 88.9882C627.14 90.717 622.151 91.5815 616.619 91.5815C610.889 91.5815 606.591 91.0628 603.726 90.0255C600.911 88.9882 599.503 87.4075 599.503 85.2834Z" fill="white"/>
</svg>
