<svg width="32" height="40" viewBox="0 0 32 40" fill="none" xmlns="http://www.w3.org/2000/svg">
<rect width="32" height="40" fill="white" fill-opacity="0.01"/>
<path fill-rule="evenodd" clip-rule="evenodd" d="M15.7565 15.2437C8.15956 15.2437 2 21.4032 2 29.0002H29.5131C29.5131 21.4032 23.3553 15.2437 15.7565 15.2437Z" stroke="#031A34" stroke-width="2.49036" stroke-linecap="round" stroke-linejoin="round"/>
<path d="M3.52881 12L7.62599 17.9132" stroke="#031A34" stroke-width="2.49036" stroke-linecap="round" stroke-linejoin="round"/>
<path d="M28.4902 12L24.3931 17.9132" stroke="#031A34" stroke-width="2.49036" stroke-linecap="round" stroke-linejoin="round"/>
<path fill-rule="evenodd" clip-rule="evenodd" d="M10.5168 24.1705C10.5168 23.211 9.73927 22.4316 8.77977 22.4316C7.81843 22.4316 7.03906 23.211 7.03906 24.1705C7.03906 25.13 7.81843 25.9094 8.77977 25.9094C9.73927 25.9094 10.5168 25.13 10.5168 24.1705" fill="#0066FF"/>
<path fill-rule="evenodd" clip-rule="evenodd" d="M24.3942 24.1705C24.3942 23.211 23.6149 22.4316 22.6554 22.4316C21.694 22.4316 20.9165 23.211 20.9165 24.1705C20.9165 25.13 21.694 25.9094 22.6554 25.9094C23.6149 25.9094 24.3942 25.13 24.3942 24.1705" fill="#0066FF"/>
</svg>
