<svg width="117" height="115" viewBox="0 0 117 115" fill="none" xmlns="http://www.w3.org/2000/svg">
<path d="M24.7173 75.293L7.60156 92.4087" stroke="#0E6EFF" stroke-width="5.6" stroke-linecap="round" stroke-linejoin="round"/>
<path d="M40.9289 76.3179L22.8364 94.4104" stroke="#0E6EFF" stroke-width="5.6" stroke-linecap="round" stroke-linejoin="round"/>
<path d="M13.8925 102.467L10.0922 106.263" stroke="#0E6EFF" stroke-width="5.6" stroke-linecap="round" stroke-linejoin="round"/>
<path d="M40.9291 93.0469L24.7173 109.254" stroke="#0E6EFF" stroke-width="5.6" stroke-linecap="round" stroke-linejoin="round"/>
<path fill-rule="evenodd" clip-rule="evenodd" d="M39.2534 43.9565L8.67151 46.0073C4.15203 46.3086 2.09639 51.7855 5.29891 54.988L16.758 66.4519L39.2534 43.9565Z" fill="#F2F4FF"/>
<path fill-rule="evenodd" clip-rule="evenodd" d="M39.2534 43.9565L8.67151 46.0073C4.15203 46.3086 2.09639 51.7855 5.29891 54.988L16.758 66.4519L39.2534 43.9565Z" stroke="#393A3C" stroke-width="5.6"/>
<path fill-rule="evenodd" clip-rule="evenodd" d="M72.4026 76.6548L70.347 107.237C70.0505 111.756 64.5688 113.812 61.3663 110.609L49.9072 99.1502L72.4026 76.6548Z" fill="white"/>
<path fill-rule="evenodd" clip-rule="evenodd" d="M72.4026 76.6548L70.347 107.237C70.0505 111.756 64.5688 113.812 61.3663 110.609L49.9072 99.1502L72.4026 76.6548Z" stroke="#393A3C" stroke-width="5.6"/>
<path fill-rule="evenodd" clip-rule="evenodd" d="M68.2029 80.3424C101.409 47.1412 117.98 10.0814 112.231 4.12343C106.473 -1.8248 69.2137 14.9459 36.0125 48.152C34.263 49.9014 31.1917 52.895 29.52 54.6445L61.7153 86.8349C63.4648 85.1631 66.4583 82.0918 68.2029 80.3424Z" fill="white"/>
<path fill-rule="evenodd" clip-rule="evenodd" d="M68.2029 80.3424C101.409 47.1412 117.98 10.0814 112.231 4.12343C106.473 -1.8248 69.2137 14.9459 36.0125 48.152C34.263 49.9014 31.1917 52.895 29.52 54.6445L61.7153 86.8349C63.4648 85.1631 66.4583 82.0918 68.2029 80.3424Z" stroke="#393A3C" stroke-width="5.6"/>
<path fill-rule="evenodd" clip-rule="evenodd" d="M45.2571 95.8275L20.5263 71.0967C18.4658 69.0362 18.4658 65.6976 20.5263 63.6371L29.5216 54.6418L61.7168 86.8322L52.7167 95.8275C50.6562 97.8928 47.3176 97.8928 45.2571 95.8275Z" fill="#0E6EFF"/>
<path fill-rule="evenodd" clip-rule="evenodd" d="M45.2571 95.8275L20.5263 71.0967C18.4658 69.0362 18.4658 65.6976 20.5263 63.6371L29.5216 54.6418L61.7168 86.8322L52.7167 95.8275C50.6562 97.8928 47.3176 97.8928 45.2571 95.8275Z" stroke="#393A3C" stroke-width="5.6"/>
<path fill-rule="evenodd" clip-rule="evenodd" d="M57.7196 37.1369C63.9205 43.3379 73.98 43.3379 80.1809 37.1369C86.3819 30.936 86.3819 20.8765 80.1809 14.6756C79.9914 14.4861 79.7679 14.3549 79.5735 14.175C71.7154 18.7528 63.0555 24.6671 54.2061 31.8059C54.9885 33.7449 56.1499 35.5673 57.7196 37.1369Z" fill="#F2F4FF"/>
<path fill-rule="evenodd" clip-rule="evenodd" d="M57.7196 37.1369C63.9205 43.3379 73.98 43.3379 80.1809 37.1369C86.3819 30.936 86.3819 20.8765 80.1809 14.6756C79.9914 14.4861 79.7679 14.3549 79.5735 14.175C71.7154 18.7528 63.0555 24.6671 54.2061 31.8059C54.9885 33.7449 56.1499 35.5673 57.7196 37.1369Z" stroke="#393A3C" stroke-width="5.6"/>
</svg>
