<svg width="80" height="80" viewBox="0 0 80 80" fill="none" xmlns="http://www.w3.org/2000/svg">
<path d="M13.4802 49.7104L4.11084 59.0798" stroke="#0E6EFF" stroke-width="3.06549" stroke-linecap="round" stroke-linejoin="round"/>
<path d="M22.3545 50.2715L12.4504 60.1755" stroke="#0E6EFF" stroke-width="3.06549" stroke-linecap="round" stroke-linejoin="round"/>
<path d="M7.55434 64.5857L5.47405 66.6634" stroke="#0E6EFF" stroke-width="3.06549" stroke-linecap="round" stroke-linejoin="round"/>
<path d="M22.3545 59.4287L13.48 68.3006" stroke="#0E6EFF" stroke-width="3.06549" stroke-linecap="round" stroke-linejoin="round"/>
<path fill-rule="evenodd" clip-rule="evenodd" d="M21.4373 32.5562L4.69649 33.6788C2.22248 33.8437 1.0972 36.8418 2.85029 38.5949L9.1231 44.8703L21.4373 32.5562Z" fill="#F2F4FF"/>
<path fill-rule="evenodd" clip-rule="evenodd" d="M21.4373 32.5562L4.69649 33.6788C2.22248 33.8437 1.0972 36.8418 2.85029 38.5949L9.1231 44.8703L21.4373 32.5562Z" stroke="#393A3C" stroke-width="3.06549"/>
<path fill-rule="evenodd" clip-rule="evenodd" d="M39.5837 50.4556L38.4584 67.1964C38.2962 69.6704 35.2954 70.7956 33.5423 69.0426L27.2695 62.7697L39.5837 50.4556Z" fill="white"/>
<path fill-rule="evenodd" clip-rule="evenodd" d="M39.5837 50.4556L38.4584 67.1964C38.2962 69.6704 35.2954 70.7956 33.5423 69.0426L27.2695 62.7697L39.5837 50.4556Z" stroke="#393A3C" stroke-width="3.06549"/>
<path fill-rule="evenodd" clip-rule="evenodd" d="M37.2848 52.4743C55.4621 34.2996 64.5334 14.0128 61.3864 10.7513C58.234 7.49521 37.8381 16.6756 19.6634 34.853C18.7058 35.8106 17.0245 37.4493 16.1094 38.407L33.7334 56.0284C34.691 55.1132 36.3297 53.432 37.2848 52.4743Z" fill="white"/>
<path fill-rule="evenodd" clip-rule="evenodd" d="M37.2848 52.4743C55.4621 34.2996 64.5334 14.0128 61.3864 10.7513C58.234 7.49521 37.8381 16.6756 19.6634 34.853C18.7058 35.8106 17.0245 37.4493 16.1094 38.407L33.7334 56.0283C34.691 55.1132 36.3297 53.432 37.2848 52.4743Z" stroke="#393A3C" stroke-width="3.06549"/>
<path fill-rule="evenodd" clip-rule="evenodd" d="M24.7237 60.9512L11.1858 47.4133C10.0579 46.2853 10.0579 44.4578 11.1858 43.3298L16.1099 38.4058L33.7339 56.0271L28.8071 60.9512C27.6792 62.0818 25.8516 62.0818 24.7237 60.9512Z" fill="#0E6EFF"/>
<path fill-rule="evenodd" clip-rule="evenodd" d="M24.7237 60.9512L11.1858 47.4133C10.0579 46.2853 10.0579 44.4578 11.1858 43.3298L16.1099 38.4058L33.7339 56.0271L28.8071 60.9512C27.6792 62.0818 25.8516 62.0818 24.7237 60.9512Z" stroke="#393A3C" stroke-width="3.06549"/>
<path fill-rule="evenodd" clip-rule="evenodd" d="M31.5459 28.8235C34.9403 32.2179 40.447 32.2179 43.8415 28.8235C47.2359 25.429 47.2359 19.9224 43.8415 16.5279C43.7377 16.4242 43.6153 16.3523 43.5089 16.2539C39.2073 18.7598 34.4668 21.9973 29.6226 25.9052C30.0509 26.9666 30.6866 27.9642 31.5459 28.8235Z" fill="#F2F4FF"/>
<path fill-rule="evenodd" clip-rule="evenodd" d="M31.5459 28.8235C34.9403 32.2179 40.447 32.2179 43.8415 28.8235C47.2359 25.429 47.2359 19.9224 43.8415 16.5279C43.7377 16.4242 43.6153 16.3523 43.5089 16.2539C39.2073 18.7598 34.4668 21.9973 29.6226 25.9052C30.0509 26.9666 30.6866 27.9642 31.5459 28.8235Z" stroke="#393A3C" stroke-width="3.06549"/>
</svg>
