<svg width="117" height="114" viewBox="0 0 117 114" fill="none" xmlns="http://www.w3.org/2000/svg">
<path d="M43.6357 18.9706H102.168" stroke="#393A3C" stroke-width="6" stroke-linecap="round" stroke-linejoin="round"/>
<path d="M14.9468 85.1251L32.174 31.0166" stroke="#393A3C" stroke-width="6" stroke-linecap="round" stroke-linejoin="round"/>
<path d="M81.6523 85.1251L99.7433 28.3076" stroke="#393A3C" stroke-width="6" stroke-linecap="round" stroke-linejoin="round"/>
<path d="M63.9563 83.3849H31.7432" stroke="#393A3C" stroke-width="6" stroke-linecap="round" stroke-linejoin="round"/>
<path fill-rule="evenodd" clip-rule="evenodd" d="M111.288 83.3847C111.288 66.7135 97.7724 53.198 81.1012 53.198C64.4301 53.198 50.9146 66.7135 50.9146 83.3847C50.9146 100.056 64.4301 113.571 81.1012 113.571C97.7724 113.571 111.288 100.056 111.288 83.3847Z" fill="#0E6EFF"/>
<path fill-rule="evenodd" clip-rule="evenodd" d="M81.1012 96.682C73.7704 96.682 67.8047 90.7163 67.8047 83.3856C67.8047 76.0548 73.7704 70.0891 81.1012 70.0891C88.4319 70.0891 94.3976 76.0548 94.3976 83.3856C94.3976 90.7163 88.4319 96.682 81.1012 96.682Z" fill="white"/>
<path fill-rule="evenodd" clip-rule="evenodd" d="M81.1013 66.9272C72.0305 66.9272 64.645 74.3086 64.645 83.3835C64.645 92.4627 72.0305 99.8398 81.1013 99.8398C90.1763 99.8398 97.5576 92.4627 97.5576 83.3835C97.5576 74.3086 90.1763 66.9272 81.1013 66.9272ZM81.1013 73.2469C86.7005 73.2469 91.2379 77.7843 91.2379 83.3835C91.2379 88.9827 86.7005 93.5202 81.1013 93.5202C75.5021 93.5202 70.9646 88.9827 70.9646 83.3835C70.9646 77.7843 75.5021 73.2469 81.1013 73.2469Z" fill="#393A3C"/>
<path fill-rule="evenodd" clip-rule="evenodd" d="M26.5325 33.5315C21.6495 33.5315 17.6724 29.5586 17.6724 24.6672V13.2666C17.6724 8.37942 21.6495 4.40649 26.5325 4.40649H37.9373C42.8202 4.40649 46.7974 8.37942 46.7974 13.2666V24.6672C46.7974 29.5586 42.8202 33.5315 37.9373 33.5315H26.5325Z" fill="#F2F4FF"/>
<path fill-rule="evenodd" clip-rule="evenodd" d="M37.9374 1.24634H26.5326C19.9054 1.24634 14.5127 6.63907 14.5127 13.2705V24.6752C14.5127 31.2982 19.9054 36.6909 26.5326 36.6909H37.9374C44.5646 36.6909 49.9573 31.2982 49.9573 24.6752V13.2705C49.9573 6.63907 44.5646 1.24634 37.9374 1.24634ZM37.9374 7.56595C41.0846 7.56595 43.6377 10.1191 43.6377 13.2705V24.6752C43.6377 27.8182 41.0846 30.3713 37.9374 30.3713H26.5326C23.3854 30.3713 20.8323 27.8182 20.8323 24.6752V13.2705C20.8323 10.1191 23.3854 7.56595 26.5326 7.56595H37.9374Z" fill="#393A3C"/>
<path fill-rule="evenodd" clip-rule="evenodd" d="M13.2061 97.9452C8.21362 97.9452 4.16064 93.888 4.16064 88.904V77.8657C4.16064 72.8817 8.21362 68.8245 13.2061 68.8245H24.2359C29.2284 68.8245 33.2856 72.8817 33.2856 77.8657V88.904C33.2856 93.888 29.2284 97.9452 24.2359 97.9452H13.2061Z" fill="#F2F4FF"/>
<path fill-rule="evenodd" clip-rule="evenodd" d="M24.2369 65.6641H13.2071C6.47456 65.6641 0.997559 71.1411 0.997559 77.8693V88.9034C0.997559 95.6275 6.47456 101.104 13.2071 101.104H24.2369C30.9694 101.104 36.4422 95.6275 36.4422 88.9034V77.8693C36.4422 71.1411 30.9694 65.6641 24.2369 65.6641ZM24.2369 71.9837C27.4852 71.9837 30.1225 74.6211 30.1225 77.8693V88.9034C30.1225 92.1517 27.4852 94.7848 24.2369 94.7848H13.2071C9.95456 94.7848 7.31717 92.1517 7.31717 88.9034V77.8693C7.31717 74.6211 9.95456 71.9837 13.2071 71.9837H24.2369Z" fill="#393A3C"/>
<path fill-rule="evenodd" clip-rule="evenodd" d="M92.4602 33.5315C87.5772 33.5315 83.6001 29.5586 83.6001 24.6672V13.2666C83.6001 8.37942 87.5772 4.40649 92.4602 4.40649H103.865C108.748 4.40649 112.725 8.37942 112.725 13.2666V24.6672C112.725 29.5586 108.748 33.5315 103.865 33.5315H92.4602Z" fill="#F2F4FF"/>
<path fill-rule="evenodd" clip-rule="evenodd" d="M103.866 1.24634H92.4608C85.8337 1.24634 80.4409 6.63907 80.4409 13.2705V24.6752C80.4409 31.2982 85.8337 36.6909 92.4608 36.6909H103.866C110.493 36.6909 115.886 31.2982 115.886 24.6752V13.2705C115.886 6.63907 110.493 1.24634 103.866 1.24634ZM103.866 7.56595C107.013 7.56595 109.566 10.1191 109.566 13.2705V24.6752C109.566 27.8182 107.013 30.3713 103.866 30.3713H92.4608C89.3137 30.3713 86.7605 27.8182 86.7605 24.6752V13.2705C86.7605 10.1191 89.3137 7.56595 92.4608 7.56595H103.866Z" fill="#393A3C"/>
</svg>
