<svg width="80" height="80" viewBox="0 0 80 80" fill="none" xmlns="http://www.w3.org/2000/svg">
<path fill-rule="evenodd" clip-rule="evenodd" d="M12.5468 60.4277C6.72255 60.4277 2 55.7051 2 49.8831V23.0756C2 17.2491 6.72255 12.5288 12.5468 12.5288H39.3543C45.1785 12.5288 49.8989 17.2491 49.8989 23.0756V49.8831C49.8989 55.7051 45.1785 60.4277 39.3543 60.4277H12.5468Z" stroke="#393A3C" stroke-width="2.69079"/>
<path fill-rule="evenodd" clip-rule="evenodd" d="M61.9976 55.5531C61.9976 48.9738 56.6634 43.6396 50.0841 43.6396C43.5026 43.6396 38.1685 48.9738 38.1685 55.5531C38.1685 62.1324 43.5026 67.4665 50.0841 67.4665C56.6634 67.4665 61.9976 62.1324 61.9976 55.5531Z" fill="#0066FF"/>
<path fill-rule="evenodd" clip-rule="evenodd" d="M61.9976 55.5531C61.9976 48.9738 56.6634 43.6396 50.0841 43.6396C43.5026 43.6396 38.1685 48.9738 38.1685 55.5531C38.1685 62.1324 43.5026 67.4665 50.0841 67.4665C56.6634 67.4665 61.9976 62.1324 61.9976 55.5531Z" stroke="#0066FF" stroke-width="2.69079" stroke-linecap="round" stroke-linejoin="round"/>
<path fill-rule="evenodd" clip-rule="evenodd" d="M26.5168 34.4037C26.5168 34.4037 28.6849 33.8517 29.5637 36.1589L29.6983 36.5453L31.7936 42.6036C32.5641 44.8158 34.9088 45.9573 37.0305 45.1514C39.1523 44.3456 40.2451 41.8993 39.4724 39.687L35.9156 29.4295C35.1428 27.2172 32.7981 26.078 30.6786 26.8816C29.4621 27.3431 28.5856 28.3432 28.2014 29.5288L26.5168 34.4037Z" fill="#393A3C"/>
<path fill-rule="evenodd" clip-rule="evenodd" d="M30.5424 44.6817C30.5402 44.6839 30.5358 44.6839 30.5336 44.6861C30.5005 44.6574 30.2819 44.4587 29.8779 43.8979C29.6946 43.5888 29.5423 43.2577 29.4208 42.9132L27.9416 38.672L27.8135 38.3011C27.5354 37.5791 27.0739 37.2038 26.4027 37.1574C26.4027 37.1574 25.97 37.1309 25.3452 37.1773L24.4841 39.6435C23.7114 41.8557 24.8043 44.302 26.926 45.1078C28.1778 45.5825 29.5025 45.3794 30.5424 44.6817Z" fill="#393A3C"/>
<path fill-rule="evenodd" clip-rule="evenodd" d="M24.24 32.3472L20.6721 42.5275C19.895 44.7486 17.5414 45.8944 15.4131 45.0863C13.2825 44.2761 12.1852 41.821 12.9624 39.5977L16.5302 29.4196C17.303 27.1963 19.6587 26.0504 21.7871 26.8607C23.9176 27.6688 25.0149 30.1261 24.24 32.3472Z" fill="#393A3C"/>
<path d="M49.9799 51.3916C48.7803 51.3916 47.6905 51.8613 46.8846 52.6269C46.0225 53.4458 45.4851 54.6033 45.4851 55.8864" stroke="white" stroke-width="2.27682" stroke-linecap="round" stroke-linejoin="round"/>
<path fill-rule="evenodd" clip-rule="evenodd" d="M53.4217 51.0965C53.647 51.2467 53.647 51.5778 53.4217 51.728L49.9316 54.0547C49.6794 54.2228 49.3416 54.042 49.3416 53.7389V49.0855C49.3416 48.7824 49.6794 48.6017 49.9316 48.7698L53.4217 51.0965Z" fill="white"/>
<path d="M49.9797 60.382C52.4607 60.382 54.4745 58.37 54.4745 55.8872" stroke="white" stroke-width="2.27682" stroke-linecap="round" stroke-linejoin="round"/>
<path fill-rule="evenodd" clip-rule="evenodd" d="M46.0202 60.1019C45.7949 60.2521 45.7949 60.5831 46.0202 60.7333L49.5103 63.0601C49.7625 63.2282 50.1003 63.0474 50.1003 62.7443V58.0909C50.1003 57.7878 49.7625 57.607 49.5103 57.7751L46.0202 60.1019Z" fill="white"/>
</svg>
