<svg width="80" height="80" viewBox="0 0 80 80" fill="none" xmlns="http://www.w3.org/2000/svg">
<path d="M32.2671 19.9273H62.8361" stroke="#393A3C" stroke-width="3.13356" stroke-linecap="round" stroke-linejoin="round"/>
<path d="M17.2837 54.4774L26.2808 26.2188" stroke="#393A3C" stroke-width="3.13356" stroke-linecap="round" stroke-linejoin="round"/>
<path d="M52.1213 54.4772L61.5695 24.8037" stroke="#393A3C" stroke-width="3.13356" stroke-linecap="round" stroke-linejoin="round"/>
<path d="M42.8795 53.5684H26.0559" stroke="#393A3C" stroke-width="3.13356" stroke-linecap="round" stroke-linejoin="round"/>
<path fill-rule="evenodd" clip-rule="evenodd" d="M67.5987 53.568C67.5987 44.8614 60.5401 37.8027 51.8334 37.8027C43.1267 37.8027 36.0681 44.8614 36.0681 53.568C36.0681 62.2747 43.1267 69.3333 51.8334 69.3333C60.5401 69.3333 67.5987 62.2747 67.5987 53.568" fill="#0E6EFF"/>
<path fill-rule="evenodd" clip-rule="evenodd" d="M51.8336 60.5129C48.0051 60.5129 44.8894 57.3973 44.8894 53.5687C44.8894 49.7402 48.0051 46.6245 51.8336 46.6245C55.6622 46.6245 58.7778 49.7402 58.7778 53.5687C58.7778 57.3973 55.6622 60.5129 51.8336 60.5129" fill="white"/>
<path fill-rule="evenodd" clip-rule="evenodd" d="M51.8335 44.9731C47.0962 44.9731 43.239 48.8281 43.239 53.5676C43.239 58.3093 47.0962 62.162 51.8335 62.162C56.5729 62.162 60.4279 58.3093 60.4279 53.5676C60.4279 48.8281 56.5729 44.9731 51.8335 44.9731M51.8335 48.2739C54.7577 48.2739 57.1275 50.6437 57.1275 53.5679C57.1275 56.4921 54.7577 58.8619 51.8335 58.8619C48.9093 58.8619 46.5395 56.4921 46.5395 53.5679C46.5395 50.6437 48.9093 48.2739 51.8335 48.2739" fill="#393A3C"/>
<path fill-rule="evenodd" clip-rule="evenodd" d="M23.3345 27.5321C20.7844 27.5321 18.7073 25.4572 18.7073 22.9026V16.9486C18.7073 14.3962 20.7844 12.3213 23.3345 12.3213H29.2908C31.841 12.3213 33.9181 14.3962 33.9181 16.9486V22.9026C33.9181 25.4572 31.841 27.5321 29.2908 27.5321H23.3345Z" fill="#F2F4FF"/>
<path fill-rule="evenodd" clip-rule="evenodd" d="M29.2909 10.6704H23.3346C19.8735 10.6704 17.0571 13.4868 17.0571 16.9501V22.9064C17.0571 26.3653 19.8735 29.1817 23.3346 29.1817H29.2909C32.752 29.1817 35.5684 26.3653 35.5684 22.9064V16.9501C35.5684 13.4868 32.752 10.6704 29.2909 10.6704M29.2908 13.971C30.9344 13.971 32.2678 15.3044 32.2678 16.9503V22.9065C32.2678 24.548 30.9344 25.8814 29.2908 25.8814H23.3345C21.6909 25.8814 20.3575 24.548 20.3575 22.9065V16.9503C20.3575 15.3044 21.6909 13.971 23.3345 13.971H29.2908" fill="#393A3C"/>
<path fill-rule="evenodd" clip-rule="evenodd" d="M16.3745 61.1725C13.7671 61.1725 11.6504 59.0536 11.6504 56.4506V50.6858C11.6504 48.0828 13.7671 45.9639 16.3745 45.9639H22.1349C24.7423 45.9639 26.8612 48.0828 26.8612 50.6858V56.4506C26.8612 59.0536 24.7423 61.1725 22.1349 61.1725H16.3745Z" fill="#F2F4FF"/>
<path fill-rule="evenodd" clip-rule="evenodd" d="M22.1355 44.3135H16.3751C12.8589 44.3135 9.99854 47.1739 9.99854 50.6878V56.4504C9.99854 59.9621 12.8589 62.8226 16.3751 62.8226H22.1355C25.6516 62.8226 28.5098 59.9621 28.5098 56.4504V50.6878C28.5098 47.1739 25.6516 44.3135 22.1355 44.3135M22.1355 47.614C23.832 47.614 25.2094 48.9914 25.2094 50.6878V56.4505C25.2094 58.1469 23.832 59.5221 22.1355 59.5221H16.3751C14.6765 59.5221 13.2991 58.1469 13.2991 56.4505V50.6878C13.2991 48.9914 14.6765 47.614 16.3751 47.614H22.1355" fill="#393A3C"/>
<path fill-rule="evenodd" clip-rule="evenodd" d="M57.7659 27.5321C55.2158 27.5321 53.1387 25.4572 53.1387 22.9026V16.9486C53.1387 14.3962 55.2158 12.3213 57.7659 12.3213H63.7222C66.2724 12.3213 68.3495 14.3962 68.3495 16.9486V22.9026C68.3495 25.4572 66.2724 27.5321 63.7222 27.5321H57.7659Z" fill="#F2F4FF"/>
<path fill-rule="evenodd" clip-rule="evenodd" d="M63.7225 10.6704H57.7663C54.3052 10.6704 51.4888 13.4868 51.4888 16.9501V22.9064C51.4888 26.3653 54.3052 29.1817 57.7663 29.1817H63.7225C67.1836 29.1817 70 26.3653 70 22.9064V16.9501C70 13.4868 67.1836 10.6704 63.7225 10.6704M63.7224 13.971C65.3661 13.971 66.6994 15.3044 66.6994 16.9503V22.9065C66.6994 24.548 65.3661 25.8814 63.7224 25.8814H57.7661C56.1225 25.8814 54.7891 24.548 54.7891 22.9065V16.9503C54.7891 15.3044 56.1225 13.971 57.7661 13.971H63.7224" fill="#393A3C"/>
</svg>
