<svg width="80" height="80" viewBox="0 0 80 80" fill="none" xmlns="http://www.w3.org/2000/svg">
<path fill-rule="evenodd" clip-rule="evenodd" d="M39.9808 18.0928C32.2427 18.0928 25.9688 24.3667 25.9688 32.1048H53.9928C53.9928 24.3667 47.7207 18.0928 39.9808 18.0928Z" stroke="#163648" stroke-width="2.53661" stroke-linecap="round" stroke-linejoin="round"/>
<path d="M27.5256 14.7891L31.6989 20.8121" stroke="#163648" stroke-width="2.53661" stroke-linecap="round" stroke-linejoin="round"/>
<path d="M52.9513 14.7891L48.7781 20.8121" stroke="#163648" stroke-width="2.53661" stroke-linecap="round" stroke-linejoin="round"/>
<path fill-rule="evenodd" clip-rule="evenodd" d="M34.6436 27.1857C34.6436 26.2084 33.8517 25.4146 32.8744 25.4146C31.8952 25.4146 31.1013 26.2084 31.1013 27.1857C31.1013 28.163 31.8952 28.9569 32.8744 28.9569C33.8517 28.9569 34.6436 28.163 34.6436 27.1857" fill="#0E6EFF"/>
<path fill-rule="evenodd" clip-rule="evenodd" d="M48.7789 27.1857C48.7789 26.2084 47.9851 25.4146 47.0077 25.4146C46.0285 25.4146 45.2366 26.2084 45.2366 27.1857C45.2366 28.163 46.0285 28.9569 47.0077 28.9569C47.9851 28.9569 48.7789 28.163 48.7789 27.1857" fill="#0E6EFF"/>
<path d="M10.6826 50.4186H32.1893" stroke="#0E6EFF" stroke-width="2.53661" stroke-linecap="round" stroke-linejoin="round"/>
<path d="M10.6826 57.0191H32.1893" stroke="#0E6EFF" stroke-width="2.53661" stroke-linecap="round" stroke-linejoin="round"/>
<path d="M21.4372 42.2822C21.4372 42.2822 11.6902 52.385 21.4372 65.1557" stroke="#0E6EFF" stroke-width="2.53661" stroke-linecap="round" stroke-linejoin="round"/>
<path d="M21.4375 42.2822C21.4375 42.2822 31.1826 52.385 21.4375 65.1557" stroke="#0E6EFF" stroke-width="2.53661" stroke-linecap="round" stroke-linejoin="round"/>
<path fill-rule="evenodd" clip-rule="evenodd" d="M32.8739 53.719C32.8739 47.402 27.7533 42.2832 21.4381 42.2832C15.1211 42.2832 10.0005 47.402 10.0005 53.719C10.0005 60.0341 15.1211 65.1548 21.4381 65.1548C27.7533 65.1548 32.8739 60.0341 32.8739 53.719Z" stroke="#163648" stroke-width="2.53661" stroke-linecap="round" stroke-linejoin="round"/>
<path fill-rule="evenodd" clip-rule="evenodd" d="M63.5723 40.5963C64.66 39.2801 65.3921 37.4452 65.1918 35.6235C63.6228 35.6853 61.7281 36.6664 60.6028 37.9826C59.5956 39.149 58.7137 41.0138 58.9515 42.8018C60.6983 42.9366 62.4845 41.9125 63.5723 40.5963" fill="#0E6EFF"/>
<path d="M66.3715 52.5359C66.4109 56.6305 69.9625 57.9898 70 58.0085C69.9719 58.104 69.4346 59.9482 68.1296 61.856C67.0025 63.5017 65.8323 65.1418 63.9919 65.1774C62.1795 65.2111 61.5973 64.1046 59.5265 64.1046C57.4558 64.1046 56.8099 65.1418 55.0968 65.2111C53.3162 65.2785 51.9626 63.4287 50.8261 61.7868C48.5027 58.4298 46.7296 52.3 49.1111 48.1623C50.2963 46.1066 52.4119 44.8053 54.7092 44.7735C56.4542 44.7398 58.1036 45.9474 59.1708 45.9474C60.2399 45.9474 62.2413 44.4945 64.3476 44.7061C65.2313 44.7436 67.7046 45.0637 69.296 47.3909C69.1668 47.4696 66.3397 49.1153 66.3715 52.5359" stroke="#163648" stroke-width="2.53661" stroke-linejoin="round"/>
</svg>
