<svg width="140" height="130" viewBox="0 0 140 130" fill="none" xmlns="http://www.w3.org/2000/svg">
<path fill-rule="evenodd" clip-rule="evenodd" d="M26.5166 110.731C13.5295 110.731 2.99902 100.2 2.99902 87.2181V27.4421C2.99902 14.4501 13.5295 3.92456 26.5166 3.92456H86.2926C99.2796 3.92456 109.805 14.4501 109.805 27.4421V87.2181C109.805 100.2 99.2796 110.731 86.2926 110.731H26.5166Z" stroke="#393A3C" stroke-width="6"/>
<path fill-rule="evenodd" clip-rule="evenodd" d="M136.783 99.8606C136.783 85.1898 124.889 73.2957 110.218 73.2957C95.5426 73.2957 83.6484 85.1898 83.6484 99.8606C83.6484 114.531 95.5426 126.425 110.218 126.425C124.889 126.425 136.783 114.531 136.783 99.8606" fill="#0066FF"/>
<path fill-rule="evenodd" clip-rule="evenodd" d="M136.783 99.8606C136.783 85.1898 124.889 73.2957 110.218 73.2957C95.5426 73.2957 83.6484 85.1898 83.6484 99.8606C83.6484 114.531 95.5426 126.425 110.218 126.425C124.889 126.425 136.783 114.531 136.783 99.8606Z" stroke="#0066FF" stroke-width="6" stroke-linecap="round" stroke-linejoin="round"/>
<path fill-rule="evenodd" clip-rule="evenodd" d="M57.6672 52.7018C57.6672 52.7018 62.5017 51.471 64.4611 56.6157L64.7614 57.4772L69.4334 70.9861C71.1515 75.919 76.3799 78.4643 81.1109 76.6674C85.842 74.8704 88.2789 69.4157 86.5559 64.4827L78.6248 41.6101C76.9017 36.6772 71.6734 34.1369 66.9472 35.9289C64.2346 36.9578 62.2802 39.188 61.4235 41.8317L57.6672 52.7018Z" fill="#393A3C"/>
<path fill-rule="evenodd" clip-rule="evenodd" d="M66.6436 75.6198C66.6387 75.6248 66.6288 75.6248 66.6239 75.6297C66.5501 75.5657 66.0627 75.1226 65.1617 73.8722C64.7531 73.1829 64.4134 72.4445 64.1427 71.6765L60.8442 62.2192L60.5587 61.3922C59.9384 59.7823 58.9094 58.9454 57.4128 58.842C57.4128 58.842 56.4479 58.7829 55.0547 58.8863L53.1347 64.3854C51.4116 69.3183 53.8485 74.7731 58.5796 76.57C61.371 77.6285 64.3248 77.1755 66.6436 75.6198" fill="#393A3C"/>
<path fill-rule="evenodd" clip-rule="evenodd" d="M52.5907 48.1152L44.635 70.8155C42.902 75.7681 37.654 78.3232 32.9082 76.5213C28.1574 74.7146 25.7107 69.2401 27.4436 64.2826L35.3993 41.5872C37.1223 36.6296 42.3753 34.0746 47.1211 35.8813C51.8719 37.6832 54.3187 43.1626 52.5907 48.1152" fill="#393A3C"/>
<path d="M109.986 90.5818C107.311 90.5818 104.881 91.6292 103.083 93.3364C101.161 95.1624 99.9629 97.7432 99.9629 100.604" stroke="white" stroke-width="5.07692" stroke-linecap="round" stroke-linejoin="round"/>
<path fill-rule="evenodd" clip-rule="evenodd" d="M117.66 89.9238C118.162 90.2588 118.162 90.997 117.66 91.3319L109.878 96.5201C109.315 96.895 108.562 96.4919 108.562 95.8161V85.4397C108.562 84.7639 109.315 84.3608 109.878 84.7357L117.66 89.9238Z" fill="white"/>
<path d="M109.986 110.629C115.518 110.629 120.008 106.143 120.008 100.606" stroke="white" stroke-width="5.07692" stroke-linecap="round" stroke-linejoin="round"/>
<path fill-rule="evenodd" clip-rule="evenodd" d="M101.157 110.004C100.654 110.339 100.654 111.077 101.157 111.412L108.939 116.6C109.501 116.975 110.254 116.572 110.254 115.896V105.52C110.254 104.844 109.501 104.441 108.939 104.816L101.157 110.004Z" fill="white"/>
</svg>
