<svg width="80" height="80" viewBox="0 0 80 80" fill="none" xmlns="http://www.w3.org/2000/svg">
<path d="M24.2686 19.9273H54.8376" stroke="#393A3C" stroke-width="3.13356" stroke-linecap="round" stroke-linejoin="round"/>
<path d="M9.28516 54.4774L18.2823 26.2188" stroke="#393A3C" stroke-width="3.13356" stroke-linecap="round" stroke-linejoin="round"/>
<path d="M44.1228 54.4772L53.571 24.8037" stroke="#393A3C" stroke-width="3.13356" stroke-linecap="round" stroke-linejoin="round"/>
<path d="M34.881 53.5684H18.0574" stroke="#393A3C" stroke-width="3.13356" stroke-linecap="round" stroke-linejoin="round"/>
<path fill-rule="evenodd" clip-rule="evenodd" d="M59.6002 53.568C59.6002 44.8614 52.5415 37.8027 43.8349 37.8027C35.1282 37.8027 28.0696 44.8614 28.0696 53.568C28.0696 62.2747 35.1282 69.3333 43.8349 69.3333C52.5415 69.3333 59.6002 62.2747 59.6002 53.568Z" fill="#0E6EFF"/>
<path fill-rule="evenodd" clip-rule="evenodd" d="M43.8351 60.5129C40.0065 60.5129 36.8909 57.3973 36.8909 53.5687C36.8909 49.7402 40.0065 46.6245 43.8351 46.6245C47.6636 46.6245 50.7793 49.7402 50.7793 53.5687C50.7793 57.3973 47.6636 60.5129 43.8351 60.5129Z" fill="white"/>
<path fill-rule="evenodd" clip-rule="evenodd" d="M43.8349 44.9731C39.0976 44.9731 35.2405 48.8281 35.2405 53.5676C35.2405 58.3093 39.0976 62.162 43.8349 62.162C48.5744 62.162 52.4294 58.3093 52.4294 53.5676C52.4294 48.8281 48.5744 44.9731 43.8349 44.9731ZM43.835 48.2739C46.7592 48.2739 49.1289 50.6437 49.1289 53.5679C49.1289 56.4921 46.7592 58.8619 43.835 58.8619C40.9107 58.8619 38.541 56.4921 38.541 53.5679C38.541 50.6437 40.9107 48.2739 43.835 48.2739Z" fill="#393A3C"/>
<path fill-rule="evenodd" clip-rule="evenodd" d="M15.336 27.5321C12.7858 27.5321 10.7087 25.4572 10.7087 22.9026V16.9486C10.7087 14.3962 12.7858 12.3213 15.336 12.3213H21.2923C23.8424 12.3213 25.9195 14.3962 25.9195 16.9486V22.9026C25.9195 25.4572 23.8424 27.5321 21.2923 27.5321H15.336Z" fill="#F2F4FF"/>
<path fill-rule="evenodd" clip-rule="evenodd" d="M21.2924 10.6704H15.3361C11.875 10.6704 9.05859 13.4868 9.05859 16.9501V22.9064C9.05859 26.3653 11.875 29.1817 15.3361 29.1817H21.2924C24.7535 29.1817 27.5699 26.3653 27.5699 22.9064V16.9501C27.5699 13.4868 24.7535 10.6704 21.2924 10.6704ZM21.2923 13.971C22.9359 13.971 24.2693 15.3044 24.2693 16.9503V22.9065C24.2693 24.548 22.9359 25.8814 21.2923 25.8814H15.336C13.6924 25.8814 12.359 24.548 12.359 22.9065V16.9503C12.359 15.3044 13.6924 13.971 15.336 13.971H21.2923Z" fill="#393A3C"/>
<path fill-rule="evenodd" clip-rule="evenodd" d="M8.37594 61.1725C5.76856 61.1725 3.65186 59.0536 3.65186 56.4506V50.6858C3.65186 48.0828 5.76856 45.9639 8.37594 45.9639H14.1364C16.7438 45.9639 18.8627 48.0828 18.8627 50.6858V56.4506C18.8627 59.0536 16.7438 61.1725 14.1364 61.1725H8.37594Z" fill="#F2F4FF"/>
<path fill-rule="evenodd" clip-rule="evenodd" d="M14.137 44.3135H8.37652C4.86041 44.3135 2 47.1739 2 50.6878V56.4504C2 59.9621 4.86041 62.8226 8.37652 62.8226H14.137C17.6531 62.8226 20.5113 59.9621 20.5113 56.4504V50.6878C20.5113 47.1739 17.6531 44.3135 14.137 44.3135ZM14.137 47.614C15.8334 47.614 17.2108 48.9914 17.2108 50.6878V56.4505C17.2108 58.1469 15.8334 59.5221 14.137 59.5221H8.37656C6.67792 59.5221 5.30052 58.1469 5.30052 56.4505V50.6878C5.30052 48.9914 6.67792 47.614 8.37656 47.614H14.137Z" fill="#393A3C"/>
<path fill-rule="evenodd" clip-rule="evenodd" d="M49.7674 27.5321C47.2172 27.5321 45.1401 25.4572 45.1401 22.9026V16.9486C45.1401 14.3962 47.2172 12.3213 49.7674 12.3213H55.7237C58.2738 12.3213 60.3509 14.3962 60.3509 16.9486V22.9026C60.3509 25.4572 58.2738 27.5321 55.7237 27.5321H49.7674Z" fill="#F2F4FF"/>
<path fill-rule="evenodd" clip-rule="evenodd" d="M55.724 10.6704H49.7677C46.3066 10.6704 43.4902 13.4868 43.4902 16.9501V22.9064C43.4902 26.3653 46.3066 29.1817 49.7677 29.1817H55.724C59.1851 29.1817 62.0015 26.3653 62.0015 22.9064V16.9501C62.0015 13.4868 59.1851 10.6704 55.724 10.6704ZM55.7239 13.971C57.3675 13.971 58.7009 15.3044 58.7009 16.9503V22.9065C58.7009 24.548 57.3675 25.8814 55.7239 25.8814H49.7676C48.124 25.8814 46.7906 24.548 46.7906 22.9065V16.9503C46.7906 15.3044 48.124 13.971 49.7676 13.971H55.7239Z" fill="#393A3C"/>
</svg>
