<svg width="149" height="126" viewBox="0 0 149 126" fill="none" xmlns="http://www.w3.org/2000/svg">
<path fill-rule="evenodd" clip-rule="evenodd" d="M74.2352 11.1375C55.9319 11.1375 41.0918 25.9776 41.0918 44.2809H107.379C107.379 25.9776 92.5429 11.1375 74.2352 11.1375Z" stroke="#163648" stroke-width="6" stroke-linecap="round" stroke-linejoin="round"/>
<path d="M44.7744 3.32275L54.6457 17.5695" stroke="#163648" stroke-width="6" stroke-linecap="round" stroke-linejoin="round"/>
<path d="M104.915 3.32275L95.0439 17.5695" stroke="#163648" stroke-width="6" stroke-linecap="round" stroke-linejoin="round"/>
<path fill-rule="evenodd" clip-rule="evenodd" d="M61.6113 32.6448C61.6113 30.333 59.738 28.4553 57.4263 28.4553C55.1101 28.4553 53.2324 30.333 53.2324 32.6448C53.2324 34.9565 55.1101 36.8342 57.4263 36.8342C59.738 36.8342 61.6113 34.9565 61.6113 32.6448Z" fill="#0E6EFF"/>
<path fill-rule="evenodd" clip-rule="evenodd" d="M95.0458 32.6448C95.0458 30.333 93.1681 28.4553 90.8564 28.4553C88.5403 28.4553 86.667 30.333 86.667 32.6448C86.667 34.9565 88.5403 36.8342 90.8564 36.8342C93.1681 36.8342 95.0458 34.9565 95.0458 32.6448Z" fill="#0E6EFF"/>
<path d="M4.93506 87.5995H55.8061" stroke="#0E6EFF" stroke-width="6" stroke-linecap="round" stroke-linejoin="round"/>
<path d="M4.93506 103.212H55.8061" stroke="#0E6EFF" stroke-width="6" stroke-linecap="round" stroke-linejoin="round"/>
<path d="M30.3732 68.354C30.3732 68.354 7.31805 92.2506 30.3732 122.458" stroke="#0E6EFF" stroke-width="6" stroke-linecap="round" stroke-linejoin="round"/>
<path d="M30.3735 68.354C30.3735 68.354 53.4242 92.2506 30.3735 122.458" stroke="#0E6EFF" stroke-width="6" stroke-linecap="round" stroke-linejoin="round"/>
<path fill-rule="evenodd" clip-rule="evenodd" d="M57.4247 95.4057C57.4247 80.4637 45.3125 68.356 30.3749 68.356C15.4329 68.356 3.3208 80.4637 3.3208 95.4057C3.3208 110.343 15.4329 122.455 30.3749 122.455C45.3125 122.455 57.4247 110.343 57.4247 95.4057Z" stroke="#163648" stroke-width="6" stroke-linecap="round" stroke-linejoin="round"/>
<path fill-rule="evenodd" clip-rule="evenodd" d="M130.038 64.3665C132.611 61.2532 134.343 56.9132 133.869 52.6042C130.158 52.7504 125.676 55.071 123.014 58.1842C120.632 60.9432 118.546 65.3541 119.108 69.5834C123.24 69.9022 127.465 67.4798 130.038 64.3665Z" fill="#0E6EFF"/>
<path d="M136.659 92.6077C136.752 102.293 145.153 105.508 145.242 105.552C145.175 105.778 143.904 110.14 140.817 114.653C138.151 118.546 135.384 122.425 131.03 122.509C126.743 122.589 125.366 119.972 120.468 119.972C115.57 119.972 114.042 122.425 109.99 122.589C105.779 122.749 102.577 118.373 99.8886 114.489C94.3927 106.549 90.1989 92.0497 95.832 82.2625C98.6353 77.4 103.64 74.3221 109.073 74.2468C113.201 74.1671 117.102 77.0235 119.627 77.0235C122.155 77.0235 126.89 73.587 131.872 74.0874C133.962 74.176 139.812 74.9332 143.576 80.438C143.271 80.624 136.584 84.5167 136.659 92.6077" stroke="#163648" stroke-width="6" stroke-linejoin="round"/>
</svg>
