<svg width="80" height="80" viewBox="0 0 80 80" fill="none" xmlns="http://www.w3.org/2000/svg">
<path fill-rule="evenodd" clip-rule="evenodd" d="M31.9803 18.0928C24.2422 18.0928 17.9683 24.3667 17.9683 32.1048H45.9923C45.9923 24.3667 39.7202 18.0928 31.9803 18.0928Z" stroke="#163648" stroke-width="2.53661" stroke-linecap="round" stroke-linejoin="round"/>
<path d="M19.5251 14.7891L23.6984 20.8121" stroke="#163648" stroke-width="2.53661" stroke-linecap="round" stroke-linejoin="round"/>
<path d="M44.9509 14.7891L40.7776 20.8121" stroke="#163648" stroke-width="2.53661" stroke-linecap="round" stroke-linejoin="round"/>
<path fill-rule="evenodd" clip-rule="evenodd" d="M26.6432 27.1857C26.6432 26.2084 25.8512 25.4146 24.8739 25.4146C23.8947 25.4146 23.1008 26.2084 23.1008 27.1857C23.1008 28.163 23.8947 28.9569 24.8739 28.9569C25.8512 28.9569 26.6432 28.163 26.6432 27.1857Z" fill="#0E6EFF"/>
<path fill-rule="evenodd" clip-rule="evenodd" d="M40.7784 27.1857C40.7784 26.2084 39.9846 25.4146 39.0072 25.4146C38.0281 25.4146 37.2361 26.2084 37.2361 27.1857C37.2361 28.163 38.0281 28.9569 39.0072 28.9569C39.9846 28.9569 40.7784 28.163 40.7784 27.1857Z" fill="#0E6EFF"/>
<path d="M2.68213 50.4186H24.1888" stroke="#0E6EFF" stroke-width="2.53661" stroke-linecap="round" stroke-linejoin="round"/>
<path d="M2.68213 57.0191H24.1888" stroke="#0E6EFF" stroke-width="2.53661" stroke-linecap="round" stroke-linejoin="round"/>
<path d="M13.4367 42.2822C13.4367 42.2822 3.68974 52.385 13.4367 65.1557" stroke="#0E6EFF" stroke-width="2.53661" stroke-linecap="round" stroke-linejoin="round"/>
<path d="M13.437 42.2822C13.437 42.2822 23.1821 52.385 13.437 65.1557" stroke="#0E6EFF" stroke-width="2.53661" stroke-linecap="round" stroke-linejoin="round"/>
<path fill-rule="evenodd" clip-rule="evenodd" d="M24.8734 53.719C24.8734 47.402 19.7528 42.2832 13.4376 42.2832C7.12064 42.2832 2 47.402 2 53.719C2 60.0341 7.12064 65.1548 13.4376 65.1548C19.7528 65.1548 24.8734 60.0341 24.8734 53.719Z" stroke="#163648" stroke-width="2.53661" stroke-linecap="round" stroke-linejoin="round"/>
<path fill-rule="evenodd" clip-rule="evenodd" d="M55.5718 40.5963C56.6595 39.2801 57.3916 37.4452 57.1913 35.6235C55.6223 35.6853 53.7276 36.6664 52.6024 37.9826C51.5951 39.149 50.7132 41.0138 50.951 42.8018C52.6978 42.9366 54.484 41.9125 55.5718 40.5963Z" fill="#0E6EFF"/>
<path d="M58.371 52.5359C58.4104 56.6305 61.962 57.9898 61.9995 58.0085C61.9714 58.104 61.4341 59.9482 60.1291 61.856C59.002 63.5017 57.8318 65.1418 55.9914 65.1774C54.1791 65.2111 53.5968 64.1046 51.5261 64.1046C49.4553 64.1046 48.8094 65.1418 47.0963 65.2111C45.3158 65.2785 43.9621 63.4287 42.8257 61.7868C40.5022 58.4298 38.7291 52.3 41.1107 48.1623C42.2958 46.1066 44.4115 44.8053 46.7087 44.7735C48.4537 44.7398 50.1031 45.9474 51.1703 45.9474C52.2394 45.9474 54.2408 44.4945 56.3471 44.7061C57.2308 44.7436 59.7041 45.0637 61.2955 47.3909C61.1663 47.4696 58.3392 49.1153 58.371 52.5359" stroke="#163648" stroke-width="2.53661" stroke-linejoin="round"/>
</svg>
