<svg width="80" height="80" viewBox="0 0 80 80" fill="none" xmlns="http://www.w3.org/2000/svg">
<path d="M21.4792 49.7104L12.1099 59.0798" stroke="#0E6EFF" stroke-width="3.06549" stroke-linecap="round" stroke-linejoin="round"/>
<path d="M30.3535 50.2715L20.4495 60.1755" stroke="#0E6EFF" stroke-width="3.06549" stroke-linecap="round" stroke-linejoin="round"/>
<path d="M15.5534 64.5857L13.4731 66.6634" stroke="#0E6EFF" stroke-width="3.06549" stroke-linecap="round" stroke-linejoin="round"/>
<path d="M30.3535 59.4287L21.479 68.3006" stroke="#0E6EFF" stroke-width="3.06549" stroke-linecap="round" stroke-linejoin="round"/>
<path fill-rule="evenodd" clip-rule="evenodd" d="M29.4363 32.5562L12.6955 33.6788C10.2215 33.8437 9.09623 36.8418 10.8493 38.5949L17.1221 44.8703L29.4363 32.5562Z" fill="#F2F4FF"/>
<path fill-rule="evenodd" clip-rule="evenodd" d="M29.4363 32.5562L12.6955 33.6788C10.2215 33.8437 9.09623 36.8418 10.8493 38.5949L17.1221 44.8703L29.4363 32.5562Z" stroke="#393A3C" stroke-width="3.06549"/>
<path fill-rule="evenodd" clip-rule="evenodd" d="M47.5827 50.4556L46.4575 67.1964C46.2952 69.6704 43.2945 70.7956 41.5414 69.0426L35.2686 62.7697L47.5827 50.4556Z" fill="white"/>
<path fill-rule="evenodd" clip-rule="evenodd" d="M47.5827 50.4556L46.4575 67.1964C46.2952 69.6704 43.2945 70.7956 41.5414 69.0426L35.2686 62.7697L47.5827 50.4556Z" stroke="#393A3C" stroke-width="3.06549"/>
<path fill-rule="evenodd" clip-rule="evenodd" d="M45.2838 52.4743C63.4611 34.2996 72.5325 14.0128 69.3854 10.7513C66.2331 7.49521 45.8371 16.6756 27.6625 34.853C26.7048 35.8106 25.0235 37.4493 24.1084 38.407L41.7324 56.0283C42.6901 55.1132 44.3288 53.432 45.2838 52.4743" fill="white"/>
<path fill-rule="evenodd" clip-rule="evenodd" d="M45.2838 52.4743C63.4611 34.2996 72.5325 14.0128 69.3854 10.7513C66.2331 7.49521 45.8371 16.6756 27.6625 34.853C26.7048 35.8106 25.0235 37.4493 24.1084 38.407L41.7324 56.0283C42.6901 55.1132 44.3288 53.432 45.2838 52.4743Z" stroke="#393A3C" stroke-width="3.06549"/>
<path fill-rule="evenodd" clip-rule="evenodd" d="M32.7227 60.9512L19.1848 47.4133C18.0569 46.2853 18.0569 44.4578 19.1848 43.3298L24.1089 38.4058L41.7329 56.0271L36.8061 60.9512C35.6782 62.0818 33.8506 62.0818 32.7227 60.9512" fill="#0E6EFF"/>
<path fill-rule="evenodd" clip-rule="evenodd" d="M32.7227 60.9512L19.1848 47.4133C18.0569 46.2853 18.0569 44.4578 19.1848 43.3298L24.1089 38.4058L41.7329 56.0271L36.8061 60.9512C35.6782 62.0818 33.8506 62.0818 32.7227 60.9512Z" stroke="#393A3C" stroke-width="3.06549"/>
<path fill-rule="evenodd" clip-rule="evenodd" d="M39.5449 28.8235C42.9394 32.2179 48.446 32.2179 51.8405 28.8235C55.2349 25.429 55.2349 19.9224 51.8405 16.5279C51.7367 16.4242 51.6144 16.3523 51.508 16.2539C47.2064 18.7598 42.4659 21.9973 37.6216 25.9052C38.0499 26.9666 38.6857 27.9642 39.5449 28.8235" fill="#F2F4FF"/>
<path fill-rule="evenodd" clip-rule="evenodd" d="M39.5449 28.8235C42.9394 32.2179 48.446 32.2179 51.8405 28.8235C55.2349 25.429 55.2349 19.9224 51.8405 16.5279C51.7367 16.4242 51.6144 16.3523 51.508 16.2539C47.2064 18.7598 42.4659 21.9973 37.6216 25.9052C38.0499 26.9666 38.6857 27.9642 39.5449 28.8235Z" stroke="#393A3C" stroke-width="3.06549"/>
</svg>
