<svg width="80" height="80" viewBox="0 0 80 80" fill="none" xmlns="http://www.w3.org/2000/svg">
<path fill-rule="evenodd" clip-rule="evenodd" d="M20.5492 60.4277C14.725 60.4277 10.0024 55.7051 10.0024 49.8831V23.0756C10.0024 17.2491 14.725 12.5288 20.5492 12.5288H47.3567C53.181 12.5288 57.9013 17.2491 57.9013 23.0756V49.8831C57.9013 55.7051 53.181 60.4277 47.3567 60.4277H20.5492Z" stroke="#393A3C" stroke-width="2.69079"/>
<path fill-rule="evenodd" clip-rule="evenodd" d="M70 55.5531C70 48.9738 64.6659 43.6396 58.0866 43.6396C51.505 43.6396 46.1709 48.9738 46.1709 55.5531C46.1709 62.1324 51.505 67.4665 58.0866 67.4665C64.6659 67.4665 70 62.1324 70 55.5531" fill="#0066FF"/>
<path fill-rule="evenodd" clip-rule="evenodd" d="M70 55.5531C70 48.9738 64.6659 43.6396 58.0866 43.6396C51.505 43.6396 46.1709 48.9738 46.1709 55.5531C46.1709 62.1324 51.505 67.4665 58.0866 67.4665C64.6659 67.4665 70 62.1324 70 55.5531Z" stroke="#0066FF" stroke-width="2.69079" stroke-linecap="round" stroke-linejoin="round"/>
<path fill-rule="evenodd" clip-rule="evenodd" d="M34.5193 34.4037C34.5193 34.4037 36.6874 33.8517 37.5661 36.1589L37.7008 36.5453L39.796 42.6036C40.5665 44.8158 42.9112 45.9573 45.033 45.1514C47.1547 44.3456 48.2476 41.8993 47.4748 39.687L43.918 29.4295C43.1453 27.2172 40.8006 26.078 38.681 26.8816C37.4645 27.3431 36.588 28.3432 36.2039 29.5288L34.5193 34.4037Z" fill="#393A3C"/>
<path fill-rule="evenodd" clip-rule="evenodd" d="M38.5449 44.6817C38.5427 44.6839 38.5382 44.6839 38.536 44.6861C38.5029 44.6574 38.2843 44.4587 37.8803 43.8979C37.6971 43.5888 37.5447 43.2577 37.4233 42.9132L35.944 38.672L35.816 38.3011C35.5378 37.5791 35.0764 37.2038 34.4052 37.1574C34.4052 37.1574 33.9725 37.1309 33.3476 37.1773L32.4866 39.6435C31.7138 41.8557 32.8067 44.302 34.9284 45.1078C36.1803 45.5825 37.505 45.3794 38.5449 44.6817" fill="#393A3C"/>
<path fill-rule="evenodd" clip-rule="evenodd" d="M32.2424 32.3472L28.6746 42.5275C27.8974 44.7486 25.5439 45.8944 23.4155 45.0863C21.285 44.2761 20.1877 41.821 20.9648 39.5977L24.5327 29.4196C25.3054 27.1963 27.6612 26.0504 29.7895 26.8607C31.9201 27.6688 33.0174 30.1261 32.2424 32.3472" fill="#393A3C"/>
<path d="M57.9823 51.3916C56.7827 51.3916 55.693 51.8613 54.887 52.6269C54.025 53.4458 53.4875 54.6033 53.4875 55.8864" stroke="white" stroke-width="2.27682" stroke-linecap="round" stroke-linejoin="round"/>
<path fill-rule="evenodd" clip-rule="evenodd" d="M61.4241 51.0965C61.6494 51.2467 61.6494 51.5778 61.4241 51.728L57.934 54.0547C57.6818 54.2228 57.3441 54.042 57.3441 53.7389V49.0855C57.3441 48.7824 57.6818 48.6017 57.934 48.7698L61.4241 51.0965Z" fill="white"/>
<path d="M57.9822 60.382C60.4631 60.382 62.477 58.37 62.477 55.8872" stroke="white" stroke-width="2.27682" stroke-linecap="round" stroke-linejoin="round"/>
<path fill-rule="evenodd" clip-rule="evenodd" d="M54.0227 60.1019C53.7974 60.2521 53.7974 60.5831 54.0227 60.7333L57.5128 63.0601C57.7649 63.2282 58.1027 63.0474 58.1027 62.7443V58.0909C58.1027 57.7878 57.7649 57.607 57.5128 57.7751L54.0227 60.1019Z" fill="white"/>
</svg>
