<svg width="32" height="28" viewBox="0 0 32 28" fill="none" xmlns="http://www.w3.org/2000/svg">
<rect width="32" height="28" fill="white" fill-opacity="0.01"/>
<path d="M9.4684 5.85791C11.4808 5.85791 13.1121 7.48925 13.1121 9.5016V12.288H5.82471L5.82471 9.5016C5.82471 7.48925 7.45604 5.85791 9.4684 5.85791Z" fill="#0066FF" stroke="#031A34" stroke-width="1.19"/>
<path d="M17.827 5.85802C17.827 3.7273 16.1957 2 14.1833 2C12.171 2 10.5397 3.7273 10.5397 5.85802M8.82498 5.85802C8.82498 3.7273 7.19364 2 5.18129 2C3.16893 2 1.5376 3.7273 1.5376 5.85802" stroke="#031A34" stroke-width="1.19" stroke-linecap="round" stroke-linejoin="round"/>
<path d="M1.25195 17.6465H18.1132" stroke="#031A34" stroke-width="1.19" stroke-linecap="round" stroke-linejoin="round"/>
<path d="M1.00439 13.5806L18.6267 21.4263" stroke="#031A34" stroke-width="1.19" stroke-linecap="round" stroke-linejoin="round"/>
<path d="M1.00002 21.7042L18.6224 13.8584" stroke="#031A34" stroke-width="1.19" stroke-linecap="round" stroke-linejoin="round"/>
<path d="M5.11333 10.5732H8.82527L9.68261 11.4462V25.4251C9.68261 25.7425 9.42528 25.9999 9.10785 25.9999C9.09881 25.9999 9.08977 25.9996 9.08074 25.9992C6.05263 25.8562 4.53857 23.2104 4.53857 18.0619C4.53857 15.7573 4.53857 13.4526 4.53857 11.148C4.53857 10.8306 4.7959 10.5732 5.11333 10.5732Z" fill="white" stroke="#031A34" stroke-width="1.19"/>
<path d="M14.2514 10.5732H10.5395L9.68214 11.4462V25.4251C9.68214 25.7425 9.93946 25.9999 10.2569 25.9999C10.2659 25.9999 10.275 25.9996 10.284 25.9992C13.3121 25.8562 14.8262 23.2104 14.8262 18.0619C14.8262 15.7573 14.8262 13.4526 14.8262 11.148C14.8262 10.8306 14.5688 10.5732 14.2514 10.5732Z" fill="white" stroke="#031A34" stroke-width="1.19"/>
</svg>
