<svg width="32" height="28" viewBox="0 0 32 28" fill="none" xmlns="http://www.w3.org/2000/svg">
<rect width="32" height="28" fill="white" fill-opacity="0.01"/>
<path d="M25.7839 5.17627C26.4554 5.17627 27 5.72 27 6.39152V16.5655C27 17.2361 26.4554 17.7807 25.7839 17.7807L9.52193 17.7806L5.12241 21.6452C4.65597 22.0555 3.97509 21.7134 3.93165 21.0736L3.92946 21.0087L3.9291 17.7806L2.21525 17.7807C1.54459 17.7807 1 17.2361 1 16.5655V6.39152C1 5.72 1.54459 5.17627 2.21525 5.17627H25.7839Z" fill="white" stroke="#031A34" stroke-width="1.18501"/>
<path d="M10.6012 11.4785C10.6012 9.57716 9.06002 8.03516 7.15782 8.03516C5.25733 8.03516 3.71533 9.57716 3.71533 11.4785C3.71533 13.3798 5.25733 14.9218 7.15782 14.9218C9.06002 14.9218 10.6012 13.3798 10.6012 11.4785Z" fill="#0066FF"/>
<path d="M13.5938 13.5578C13.5938 13.9036 13.8741 14.1839 14.2199 14.1839H23.1248C23.4707 14.1839 23.751 13.9036 23.751 13.5578V13.5578C23.751 13.212 23.4707 12.9316 23.1248 12.9316H14.2199C13.8741 12.9316 13.5938 13.212 13.5938 13.5578V13.5578Z" fill="#031A34"/>
<path d="M13.5928 9.29357C13.5928 9.63962 13.8733 9.92014 14.2193 9.92014H18.661C19.0071 9.92014 19.2876 9.63962 19.2876 9.29357V9.29357C19.2876 8.94752 19.0071 8.66699 18.661 8.66699H14.2193C13.8733 8.66699 13.5928 8.94752 13.5928 9.29357V9.29357Z" fill="#031A34"/>
</svg>
