<svg width="32" height="28" viewBox="0 0 32 28" fill="none" xmlns="http://www.w3.org/2000/svg">
<rect width="32" height="28" fill="white" fill-opacity="0.01"/>
<path d="M23.5923 20.3725C23.5923 22.9279 21.5207 24.9994 18.9654 24.9994H12.5925L12.5923 21.3669C12.8418 21.476 13.1175 21.5365 13.4073 21.5365C14.5323 21.5365 15.4443 20.6245 15.4443 19.4995C15.4443 18.3745 14.5323 17.4625 13.4073 17.4625C13.1175 17.4625 12.8418 17.523 12.5923 17.6321L12.5925 13.9996L16.0961 13.9996C16.0694 13.868 16.0554 13.7317 16.0554 13.5922C16.0554 12.4672 16.9674 11.5552 18.0924 11.5552C19.2174 11.5552 20.1294 12.4672 20.1294 13.5922C20.1294 13.7317 20.1153 13.868 20.0886 13.9996L23.5923 13.9996V20.3725Z" fill="white" stroke="#031A34" stroke-width="1.18501"/>
<path d="M6.62702 25C4.07165 25 2.00011 22.9285 2.00011 20.3731L2.00011 14.0002L12.9999 14.0002L12.9999 17.5038C13.1315 17.4771 13.2678 17.4631 13.4073 17.4631C14.5323 17.4631 15.4443 18.3751 15.4443 19.5001C15.4443 20.6251 14.5323 21.5371 13.4073 21.5371C13.2678 21.5371 13.1315 21.5231 12.9999 21.4963L12.9999 25H6.62702Z" fill="#0066FF" stroke="#031A34" stroke-width="1.18501"/>
<path d="M2 7.62702C2 5.07165 4.07154 3.00011 6.62691 3.00011H12.9998L13 6.6326C12.7504 6.52353 12.4748 6.46302 12.185 6.46302C11.06 6.46302 10.148 7.37502 10.148 8.50002C10.148 9.62503 11.06 10.537 12.185 10.537C12.4748 10.537 12.7504 10.4765 13 10.3674L12.9998 13.9999L9.49615 13.9999C9.52288 14.1315 9.53691 14.2678 9.53691 14.4073C9.53691 15.5323 8.62491 16.4443 7.49991 16.4443C6.3749 16.4443 5.46291 15.5323 5.46291 14.4073C5.46291 14.2678 5.47694 14.1315 5.50367 13.9999L2 13.9999L2 7.62702Z" fill="white" stroke="#031A34" stroke-width="1.18501"/>
</svg>
