<svg xmlns="http://www.w3.org/2000/svg" xmlns:xlink="http://www.w3.org/1999/xlink" width="128" height="128" viewBox="0 0 128 128">
  <defs>
    <polygon id="emptysmall-a" points="0 0 52.573 0 52.573 52.413 0 52.413"/>
    <polygon id="emptysmall-c" points="0 0 52.574 0 52.574 52.413 0 52.413"/>
    <polygon id="emptysmall-e" points="0 0 52.574 0 52.574 52.413 0 52.413"/>
    <polygon id="emptysmall-g" points="0 0 35.676 0 35.676 15.742 0 15.742"/>
    <polygon id="emptysmall-i" points="0 0 52.573 0 52.573 52.413 0 52.413"/>
  </defs>
  <g fill="none" fill-rule="evenodd" transform="translate(5.714 7.212)">
    <g transform="translate(61.784)">
      <mask id="emptysmall-b" fill="#fff">
        <use xlink:href="#emptysmall-a"/>
      </mask>
      <path fill="#019DF4" d="M52.5732305,26.2064826 C52.5732305,11.7331364 40.804518,-4.15996388e-05 26.2868239,-4.15996388e-05 C11.7687125,-4.15996388e-05 0,11.7331364 0,26.2064826 C0,40.6798288 11.7687125,52.4130068 26.2868239,52.4130068 C40.804518,52.4130068 52.5732305,40.6798288 52.5732305,26.2064826" mask="url(#emptysmall-b)"/>
    </g>
    <path fill="#F5F5F5" d="M88.0710206,52.4128404 C94.8324806,52.4128404 100.996408,49.8656945 105.654405,45.6836829 C105.561771,45.553476 105.46413,45.4236852 105.359395,45.2938943 C98.5741501,36.8678875 88.6614592,36.926127 88.6614592,36.926127 C88.6614592,36.926127 90.4661564,36.3944836 82.0931957,36.8645596 C76.5318072,37.1769728 71.6493187,41.8298924 69.9781482,45.207367 C74.6916419,49.6697602 81.057529,52.4128404 88.0710206,52.4128404"/>
    <path fill="#EC624B" d="M72.754628 41.483201C72.1833839 42.05478 71.6709751 42.6434149 71.2282505 43.2262259L103.464942 43.2262259C102.795222 42.5814315 102.108811 42.0027805 101.416141 41.483201L72.754628 41.483201zM75.5760896 49.2558854L100.574381 49.2558854C101.542867 48.732146 102.473798 48.1493351 103.363837 47.5128606L72.7749491 47.5128606C73.6674919 48.151415 74.6046826 48.730898 75.5760896 49.2558854"/>
    <mask id="emptysmall-d" fill="#fff">
      <use xlink:href="#emptysmall-c"/>
    </mask>
    <path fill="#EC624B" d="M52.5736061,26.2064826 C52.5736061,11.7331364 40.8044763,-4.15996388e-05 26.2867822,-4.15996388e-05 C11.769088,-4.15996388e-05 -4.17271043e-05,11.7331364 -4.17271043e-05,26.2064826 C-4.17271043e-05,40.6798288 11.769088,52.4130068 26.2867822,52.4130068 C40.8044763,52.4130068 52.5736061,40.6798288 52.5736061,26.2064826" mask="url(#emptysmall-d)"/>
    <path fill="#AF3A3A" d="M26.2867822,52.4128404 C33.0486594,52.4128404 39.2125873,49.8656945 43.8701667,45.6836829 C43.7779498,45.553476 43.6798911,45.4236852 43.5755733,45.2938943 C36.7903289,36.8678875 26.8772207,36.926127 26.8772207,36.926127 C26.8772207,36.926127 28.681918,36.3944836 20.3093745,36.8645596 C14.747986,37.1769728 9.86549755,41.8298924 8.19432702,45.207367 C12.9078207,49.6697602 19.2737078,52.4128404 26.2867822,52.4128404"/>
    <path fill="#F28D15" d="M29.0014641,37.1117862 C27.6883122,36.9220919 26.8771373,36.9262518 26.8771373,36.9262518 C26.8771373,36.9262518 28.6818345,36.3946084 20.309291,36.8646844 C20.0981519,36.8763323 19.8886818,36.8963001 19.679629,36.9208439 C20.0393167,38.9571462 21.9821306,40.4880129 24.2946468,40.4880129 L24.4265044,40.4880129 C26.6618254,40.4880129 28.5545668,39.0565693 29.0014641,37.1117862"/>
    <path fill="#0B2739" d="M16.6455261,22.2703664 C14.9593338,22.1439035 13.5034751,19.9961142 13.549375,18.2218896 C13.5819221,16.9693245 14.3442763,16.6435993 14.1673534,15.4397058 C13.962056,14.0502779 12.8379278,13.7453525 12.9280584,12.8958879 C13.0503188,11.73817 15.3357123,10.4502452 17.0098037,10.934049 C19.926111,11.7768576 21.53636,18.1557462 19.2000594,20.9745377 C19.0836408,21.1151445 18.0112542,22.3731175 16.6455261,22.2703664"/>
    <path fill="#F8D2B3" d="M17.4303712,14.8275255 C19.553029,13.2429953 22.8006495,11.9455026 26.4672102,13.62488 C30.206376,15.3375371 32.9912429,18.0111458 31.9852025,23.0754858 C31.6668247,24.6758239 30.6674605,26.3398094 29.6877081,27.6630939 C29.4878353,27.9330756 28.9841891,28.4672149 28.9841891,28.4672149 C28.9841891,28.4672149 26.4918292,32.0119201 18.1414011,32.8755286 L18.1384802,32.8618007 C16.4731514,33.0564871 14.9196513,31.9449447 14.6125398,30.2751352 L14.4214297,29.2368083 C13.1224649,17.5747656 17.4303712,14.8275255 17.4303712,14.8275255"/>
    <path fill="#F8D2B3" d="M14.3203667 21.9636523C13.2746854 24.3568795 12.0312177 24.8906028 12.8724361 25.5424692 13.4169749 25.9642895 14.0804358 25.7700192 14.1880917 26.717659L15.0268065 19.9181981C14.8440418 20.5862883 14.6228882 21.2714343 14.3203667 21.9636523M20.0974008 31.2498564C20.0974008 31.2498564 20.8726904 33.0244969 21.0750669 35.9144238 21.1902337 37.5667614 22.5709835 38.8480303 24.2321396 38.8480303L24.3214356 38.8480303C25.9542172 38.8480303 27.3191107 37.6104411 27.473501 35.9901352L28.1056667 29.3541608 20.0974008 31.2498564z"/>
    <path fill="#F8D2B3" d="M21.327182,32.4165598 C21.0697258,32.4460956 20.8164423,32.4885272 20.5197625,32.5347028 C20.7367435,33.3379918 20.9754225,34.4903018 21.0751503,35.9142574 C21.0893375,36.1222556 21.123971,36.3240139 21.1769644,36.5182842 C21.3180021,35.7020993 21.6159336,34.808123 21.7544676,34.231136 C22.0386291,33.0480423 22.2497683,32.3104807 21.327182,32.4165598"/>
    <path fill="#0B2739" d="M18.8321098,20.017746 C16.8379715,19.6279574 15.3583284,16.3083062 15.5519421,13.4774508 C15.747225,10.6232997 17.6875353,7.63311765 19.4150375,7.66390138 C20.0759948,7.67596528 20.1060383,8.11900143 20.8729825,8.24546433 C22.9760285,8.59157332 23.9136366,5.44996863 26.3396504,5.26609822 C27.9357122,5.14462728 27.9695111,6.47082375 30.668003,7.00745909 C32.9442165,7.46006315 33.4712298,6.62557441 35.0138809,7.30073654 C36.7163467,8.04578606 36.3637527,9.18852813 38.2210261,10.2801026 C40.3069641,11.505628 41.7419592,10.6465955 42.5214215,11.8059774 C43.2499767,12.888816 42.1433739,13.8539276 42.8861164,15.5120892 C43.4961666,16.8744773 44.4212565,16.6198875 45.0000115,17.9103083 C45.6943505,19.4590629 44.5385097,20.2244962 44.926989,22.4883485 C45.2787485,24.5404587 46.3515524,24.6328099 46.2205293,25.9365425 C46.0327573,27.8043663 43.8095372,27.8176782 42.6674663,30.2637369 C41.6021734,32.5450611 42.8631665,33.9723447 41.7974562,34.9208164 C40.4521744,36.11847 38.3674882,33.9086972 35.3055533,34.8421931 C32.8599277,35.5872427 32.8252942,37.4122188 30.7134855,37.5307778 C28.9421699,37.6302009 27.1821207,36.4475232 26.266628,35.205358 C25.4212369,34.0580399 25.835587,33.590876 24.8821227,32.1531925 C23.6119496,30.2387771 22.3334311,30.2475131 22.2579051,29.2466258 C22.1339756,27.5963681 25.5434973,26.6699442 25.3194227,25.3225319 C25.1404134,24.2459332 22.9000852,24.4564274 22.1848826,22.8515134 C21.5568897,21.4429496 22.7419395,20.0643376 22.1118602,19.5089824 C21.48345,18.9552912 20.2721122,20.2989596 18.8321098,20.017746"/>
    <path fill="#000" d="M28.4514592 6.17172235C28.0629798 3.90787003 29.2188206 3.14243668 28.5244816 1.59368215 28.100117.64770637 27.4896494.531227382 26.9538734 0 26.2924988.871512424 25.4575394 1.83995201 25.1842269 3.48854568 24.7064516 6.36516067 26.5587177 7.56780622 25.6653404 8.95681814 24.5370395 10.7110749 21.5210044 8.89025872 18.3935579 10.8812174 15.8961908 12.4711556 16.4269595 14.5191058 14.1056807 15.306171 12.1599458 15.9659412 9.82614889 15.19094 8.41702458 14.0885495 7.29039276 13.2062212 7.37551605 12.6005305 6.43749075 11.6046351 6.02939967 12.0014957 5.74482081 12.4328839 5.78237521 12.9299996 5.85790127 13.9308869 7.13641974 13.922151 8.4065928 15.8365663 9.36005713 17.2742498 8.94570699 17.7414138 9.79109812 18.8887318 10.7065908 20.130897 12.46664 21.3135747 14.2379556 21.2141516 16.3497644 21.0955926 16.3843979 19.2706165 18.8296062 18.525567 21.8919584 17.5920711 23.9766445 19.8018439 25.3219263 18.6041903 26.3876366 17.6557185 25.1266435 16.2284349 26.1919365 13.9471108 27.3340073 11.501052 29.5568102 11.4877401 29.7449994 9.61991638 29.8760225 8.31618371 28.8032187 8.22383251 28.4514592 6.17172235M4.27869728 3.35359645C4.27828001 3.35234846 4.27786274 3.35110047 4.27744546 3.34985248 3.74166944 2.20336645 1.30647564 3.13270237.00792814982 1.56314801.00542452356 1.55982004.0029208973 1.55649207 0 1.5527481.590021255 2.68176229 1.41621792 3.51749902 2.35674685 3.70095343 3.06735944 3.83989622 3.72205771 3.58281046 4.27869728 3.35359645" transform="translate(16.476 16.317)"/>
    <g transform="translate(0 63.533)">
      <mask id="emptysmall-f" fill="#fff">
        <use xlink:href="#emptysmall-e"/>
      </mask>
      <path fill="#313235" d="M52.5736061,26.2065242 C52.5736061,11.733178 40.8044763,0 26.2867822,0 C11.769088,0 -4.17271043e-05,11.733178 -4.17271043e-05,26.2065242 C-4.17271043e-05,40.6798704 11.769088,52.4130484 26.2867822,52.4130484 C40.8044763,52.4130484 52.5736061,40.6798704 52.5736061,26.2065242" mask="url(#emptysmall-f)"/>
    </g>
    <g transform="translate(8.194 100.204)">
      <mask id="emptysmall-h" fill="#fff">
        <use xlink:href="#emptysmall-g"/>
      </mask>
      <path fill="#FBC7DE" d="M18.0924552,15.7423549 C24.8543324,15.7423549 31.0182603,13.1952091 35.6758397,9.01319743 C35.5836228,8.88299056 35.4855641,8.75319969 35.3812463,8.62340882 C28.5960019,0.197402059 18.6828937,0.255641553 18.6828937,0.255641553 C18.6828937,0.255641553 20.487591,-0.276001826 12.1150475,0.194074088 C6.553659,0.506487372 1.67117053,5.15940693 0,8.53688157 C4.7134937,12.9992748 11.0793807,15.7423549 18.0924552,15.7423549" mask="url(#emptysmall-h)"/>
    </g>
    <path fill="#F5F5F5" d="M29.0014641,100.645084 C27.6883122,100.455389 26.8771373,100.459549 26.8771373,100.459549 C26.8771373,100.459549 28.6818345,99.9279058 20.309291,100.397982 C20.0981519,100.40963 19.8886818,100.429597 19.679629,100.454141 C20.0393167,102.490443 21.9821306,104.02131 24.2946468,104.02131 L24.4265044,104.02131 C26.6618254,104.02131 28.5545668,102.589867 29.0014641,100.645084"/>
    <path fill="#EC624B" d="M15.3122199,81.4783413 C14.4818506,80.3118875 14.347072,78.7880927 14.9633813,77.5089039 C15.8922267,75.5824246 17.9856755,75.3274188 18.1062668,75.3149389 L15.3122199,81.4783413 Z"/>
    <path fill="#019AF1" d="M13.4186022,83.585779 C12.779343,83.585779 12.1847317,84.3096127 12.1079539,85.195685 C12.0624713,85.7240004 12.2060126,86.234844 12.4922605,86.5630651 C12.6211972,86.7107439 12.83943,86.8900383 13.1502969,86.9066782 C13.8162615,86.9366299 14.4275636,86.2048923 14.5055933,85.2976041 L14.5055933,85.2976041 C14.5514931,84.7697047 14.4079519,84.2584452 14.1221212,83.93064 C13.9931844,83.7829613 13.7745344,83.6032509 13.4632502,83.587027 C13.4482285,83.586195 13.433624,83.585779 13.4186022,83.585779 M13.1949449,87.6508957 C13.1665705,87.6508957 13.1390306,87.6500637 13.1114907,87.6488157 C12.6650107,87.6251039 12.245236,87.4125298 11.9297791,87.0506129 C11.5075008,86.5663931 11.3017862,85.8671032 11.3656287,85.1320376 C11.4795437,83.814161 12.4580443,82.787482 13.5024737,82.8448895 C13.9489537,82.8686013 14.3683111,83.0807594 14.6841853,83.4426763 C15.1064636,83.9268961 15.3121782,84.626186 15.2483357,85.3616676 C15.1373416,86.6446004 14.2256044,87.6508957 13.1949449,87.6508957"/>
    <path fill="#F8D2B3" d="M26.3833387,76.3758961 C22.6003594,74.6428552 19.2492557,75.9815315 17.0598345,77.6163973 C17.0598345,77.6163973 14.452725,79.2862068 13.8359984,85.476649 C13.8255667,85.4878809 13.8143003,85.4991128 13.8067895,85.5111767 C13.5647723,85.9167732 13.1566812,86.393921 12.8983904,86.5831994 C12.6017107,86.8003495 12.4047588,87.0790671 12.4627594,87.3773365 C12.5099111,87.6219423 12.6793231,87.7687891 12.9413693,87.8561483 C13.1128677,87.9131398 13.3936911,87.9934271 13.7066444,88.0928502 C13.7012199,89.3999109 13.773825,90.8542342 13.955338,92.4824441 L14.1522899,93.5536348 C14.4694159,95.2766918 16.072154,96.4231778 17.7900588,96.2222516 L17.793397,96.2363955 C18.6738389,96.1452923 19.4887693,96.0238213 20.2465335,95.8819665 C20.4701907,96.7110473 20.7172152,97.900381 20.8198639,99.3713442 C20.9387861,101.076097 22.3629322,102.398134 24.0774989,102.398134 L24.1692985,102.398134 C25.8534045,102.398134 27.2616942,101.121441 27.4210918,99.4499675 L28.0737037,92.603499 L28.0724519,92.603499 C28.7142147,92.0643677 28.9804337,91.688307 28.9804337,91.688307 C28.9804337,91.688307 29.4995189,91.1375278 29.7056507,90.8588102 C30.7162812,89.4935101 31.747358,87.776693 32.0757503,86.1256034 C33.1139206,80.9006888 30.2405922,78.1426327 26.3833387,76.3758961"/>
    <path fill="#019AF1" d="M16.3260634,83.4145133 C15.6121126,83.4145133 14.9482344,84.2178023 14.8626938,85.2012178 C14.812204,85.7856927 14.9720188,86.3522798 15.2899794,86.7171086 C15.4343552,86.8830912 15.6809623,87.0844334 16.0318873,87.1031533 C16.0485781,87.1039852 16.0656863,87.1044014 16.0819598,87.1044014 C16.7963278,87.1048172 17.4602061,86.3015282 17.5453294,85.3176968 C17.5958192,84.7332219 17.4360044,84.1666348 17.1180438,83.8018059 C16.9732508,83.6358234 16.7270609,83.4344811 16.3761359,83.4157613 C16.3594451,83.4149293 16.3427542,83.4145133 16.3260634,83.4145133 M16.0819598,87.8477868 C16.0523336,87.8477868 16.0222901,87.8469548 15.9926638,87.8452908 C15.5153057,87.819915 15.0654876,87.592365 14.727498,87.2046564 C14.2726726,86.6838289 14.0515189,85.9300435 14.1203686,85.1371543 C14.2438809,83.7181907 15.2803821,82.6108083 16.4153594,82.6736238 C16.8927175,82.6989995 17.3425356,82.9265496 17.6805252,83.3142582 C18.1353506,83.8355017 18.3565043,84.5888711 18.2876546,85.3817602 L17.9167006,85.3497285 L18.2876546,85.3817602 C18.168315,86.7632842 17.1881454,87.8477868 16.0819598,87.8477868"/>
    <path fill="#019AF1" d="M22.1666062 85.1674805L18.0439683 84.8683791C17.8274046 84.8542352 17.6387981 85.0148098 17.6229418 85.2311279 17.6075028 85.44703 17.7702385 85.6350604 17.9868021 85.6508683L21.8761855 85.9329138C21.9250062 85.6608522 22.0222304 85.3996065 22.1666062 85.1674805M14.4813498 85.3907041C14.4550618 85.3907041 14.4275219 85.3882082 14.4008165 85.3823842L13.7932699 85.2559213C13.5804616 85.2114097 13.444014 85.0038275 13.4882447 84.7916693 13.5328927 84.5799272 13.7423628 84.4434804 13.953502 84.488408L14.5610486 84.6148709C14.7738568 84.6589665 14.9103045 84.8665487 14.8660737 85.0787069 14.8272675 85.2634092 14.6636973 85.3907041 14.4813498 85.3907041"/>
    <path fill="#F2C19C" d="M22.3769108 84.8170867L16.8292923 77.7983957C16.6782401 77.9310986 16.4633456 78.1428407 16.2154866 78.4523421 16.0669381 79.2760149 16.105327 80.4208369 16.7212191 81.45334 17.6913742 83.0765579 20.640646 84.5674889 22.1303036 85.242235 22.1949806 85.0908123 22.2780175 84.9481256 22.3769108 84.8170867M21.080241 95.7627836C20.8144394 95.7935673 20.553645 95.8372469 20.247368 95.8846705 20.4710253 96.7137513 20.7172152 97.902669 20.8198639 99.3715522 20.8348856 99.5857903 20.8703537 99.7942045 20.9250162 99.9947148 21.0710611 99.1523221 21.3781725 98.2300581 21.5212965 97.6347673 21.8142208 96.4142339 22.0320363 95.6533765 21.080241 95.7627836"/>
    <path fill="#EC624B" d="M37.6044247,81.0591002 C35.3995645,76.364581 30.2228999,71.5169751 24.6644324,72.0644264 C21.9872214,72.3281681 17.6889123,73.9942336 16.6469865,77.2186216 C16.4817472,77.7311291 16.4425237,78.08639 16.4396028,78.1870612 C16.3836885,80.2641311 18.8017742,81.5208562 20.4454048,83.0429869 C21.1176285,83.6653175 21.6901244,84.3633595 22.1770797,85.0971771 C22.4816875,84.7094685 22.9181531,84.3417277 23.4101156,84.4007991 C24.1541099,84.4898224 24.6010072,85.5040216 24.6581733,86.2320152 C24.7228503,87.06276 24.309752,87.9147206 23.7869114,88.4742357 C24.1983406,89.7496806 24.4032207,90.973958 24.4361851,91.9686054 C24.5985035,96.8345151 20.8380569,99.2714219 22.0961291,101.056462 C23.2824307,102.740416 27.4200903,101.695017 28.6518745,101.388843 C29.7931108,101.105134 33.7555166,100.059319 36.5261963,96.4297506 C40.0938637,91.7551992 39.6640746,85.4441181 37.6044247,81.0591002"/>
    <path fill="#000" d="M36.5261963,96.4294594 C40.0938637,91.755324 39.6640746,85.4438269 37.6044247,81.059225 C36.832056,79.4147913 35.6941579,77.7524697 34.3038107,76.3089623 C37.5518485,82.3546377 41.5251034,94.1339913 28.6518745,101.388552 C29.7931108,101.104843 33.7555166,100.059444 36.5261963,96.4294594"/>
    <path fill="#F8CCCC" d="M93.3573858,16.5892286 C91.6999852,10.9121259 86.3055051,9.33508365 82.1323774,10.8979821 C81.3867141,11.1958355 80.6406335,11.4928569 79.978007,11.946293 C77.7247434,13.4093522 77.256148,15.9872818 76.9431947,18.4811802 C76.918993,18.6692105 76.9018849,18.8580729 76.8826904,19.0465192 C76.8125889,19.3697484 76.7299692,19.6967216 76.6298242,20.0274387 C75.9008517,22.4260739 74.7750544,23.0729482 75.6500718,23.6008476 C76.0978036,23.8708293 76.5718235,23.7680782 76.8547333,24.1512109 C76.9315112,24.9748837 77.0429225,25.7960606 77.1998164,26.6105815 C77.5407269,28.5961322 78.3886216,30.5517312 80.3022266,31.4174197 C81.1071425,31.7909845 82.093154,31.5659304 82.941466,31.5347307 C84.4636708,31.4452915 84.0209462,34.2129154 83.908283,35.9472043 C83.9078657,35.9646762 83.9078657,35.982148 83.9074485,35.9992039 C83.8644695,37.6403096 85.2748457,38.9486182 86.9155554,38.8121714 L88.0259136,38.7202362 C89.6115436,38.5883654 90.7748953,37.1768896 90.5983896,35.5998473 C90.4452512,34.2345472 90.298789,32.8110076 90.2712491,32.1362615 C90.1865431,29.9905521 90.714391,28.1189844 91.7675831,26.2328568 C92.5391173,24.8500848 93.3911847,23.4960166 93.6745118,21.9156463 C93.9878823,20.1738694 93.8526865,18.2823339 93.3573858,16.5892286"/>
    <path fill="#EAB7B7" d="M78.2076929 14.1773232C78.0804252 14.3607776 77.9035023 14.6806788 77.9761075 15.0201318 78.0966988 15.5838069 78.8323477 15.8500446 79.1786826 15.9752595 81.1135685 16.6757974 86.9052905 16.4390955 87.8061787 16.3995758L78.2076929 14.1773232zM87.5115019 28.626084C84.0022524 31.4598513 82.948643 31.5343147 82.9419667 31.5347307 83.0366872 31.5293227 83.1243142 31.5347307 83.2048475 31.5501225L83.2048475 31.5505385C83.582895 31.6245859 83.8023796 31.9265993 83.9238055 32.3546596 84.1887726 33.2898194 83.9809716 34.831502 83.9083664 35.9472043L83.9071146 35.9992039C83.8958483 36.4322561 83.9868134 36.8420125 84.1553909 37.2085054 84.8280318 33.7133037 86.8613936 30.0995432 87.6692304 28.7625308 87.7301519 28.6610277 87.6037188 28.5520366 87.5115019 28.626084"/>
    <path fill="#922859" d="M95.9200976,14.0812696 C95.9200976,14.0812696 91.71484,6.11036289 86.063321,8.2373524 C85.5705239,8.42247079 80.3942766,7.92743509 78.1668838,11.2516622 C77.7621309,11.854857 77.5989779,12.9713912 77.7692245,13.7251767 C78.4013901,16.5136005 87.2492053,16.4100174 87.8062622,16.3996174 C87.8062622,16.3996174 84.2661346,17.4350324 84.2765664,26.8777344 C83.6306308,26.3631468 82.7422608,25.766608 81.6022763,25.2803083 C79.6302533,24.4391636 77.8422469,24.3280925 76.7469104,24.3509723 C76.0012471,28.7409822 77.3582125,32.4529179 79.7883991,33.4979008 C81.1265873,34.0736398 82.4918982,33.712555 82.6642311,33.6647154 C85.6694172,32.8277306 86.8840932,28.9310925 87.0952323,27.9934367 C87.9493861,24.2057896 85.6936189,20.3199674 88.34329,19.1659934 C89.1139896,18.8153084 90.0253096,18.8968437 90.5064231,19.6955568 C91.0263428,20.5579173 90.6036472,21.6045642 89.8392067,22.2734864 C89.5604696,22.5176763 89.1177451,22.8130337 88.7693237,23.0251919 C88.7246757,23.2905975 88.685035,23.5622432 88.6595815,23.8476167 C88.3566427,27.2005476 89.7202844,29.7460294 90.3090539,30.714885 C90.7471885,30.4681992 97.4089207,26.579465 97.4710941,19.78874 C97.4936267,17.2790338 96.6069257,15.2818352 95.9200976,14.0812696"/>
    <path fill="#7C224F" d="M97.4710106,19.7888232 C97.4939605,17.278701 96.6068423,15.2815024 95.9200142,14.0809368 C95.9200142,14.0809368 95.8015092,13.8567148 95.5786864,13.4947979 C95.9266905,16.9667037 95.8490781,24.6210372 89.2311593,28.4186682 C89.5941851,29.472803 90.0356579,30.2644441 90.3089704,30.7145522 C90.747105,30.4678664 97.4092545,26.5795482 97.4710106,19.7888232"/>
    <g transform="translate(62.314 61.674)">
      <mask id="emptysmall-j" fill="#fff">
        <use xlink:href="#emptysmall-i"/>
      </mask>
      <path fill="#BC56C1" d="M52.5736478,26.2065242 C52.5736478,11.733178 40.804518,0 26.2868239,0 C11.7691298,0 0,11.733178 0,26.2065242 C0,40.6798704 11.7691298,52.4130484 26.2868239,52.4130484 C40.804518,52.4130484 52.5736478,40.6798704 52.5736478,26.2065242" mask="url(#emptysmall-j)"/>
    </g>
    <path fill="#F28D15" d="M88.6011635,114.086551 C95.3626235,114.086551 101.526551,111.539405 106.184548,107.357393 C106.091914,107.227186 105.994272,107.097395 105.889537,106.967605 C99.1042929,98.5415978 89.191602,98.5998373 89.191602,98.5998373 C89.191602,98.5998373 90.9962993,98.0681939 82.6233385,98.5382699 C77.0619501,98.8506831 72.1798789,103.504019 70.5082911,106.881077 C75.2217848,111.343471 81.5876718,114.086551 88.6011635,114.086551"/>
    <path fill="#F7BB79" d="M84.9394432 98.1535564C84.9394432 98.1535564 82.9607439 98.0412374 82.6231716 98.5383531 82.2864339 99.0354687 81.2837316 101.503991 81.2248964 102.15045 81.1660612 102.797324 84.2905867 101.974483 85.9417282 102.15045 87.5924525 102.326832 84.9394432 98.1535564 84.9394432 98.1535564M90.314228 98.1535564C90.314228 98.1535564 92.2929273 98.0412374 92.6304996 98.5383531 92.9676546 99.0354687 93.9699397 101.503991 94.0287749 102.15045 94.0880274 102.797324 90.9630845 101.974483 89.3123603 102.15045 87.6612188 102.326832 90.314228 98.1535564 90.314228 98.1535564"/>
    <path fill="#773D11" d="M90.1332993,74.0917848 C86.4112416,72.3870316 83.1152176,73.7040761 80.9612645,75.3123181 C80.9612645,75.3123181 78.8632257,76.6514105 78.0119928,81.4083292 C77.9072578,81.7789819 77.787501,82.1537947 77.6435425,82.5319354 C76.7013444,85.0096099 75.4666394,85.6107246 76.3516713,86.2305592 C76.8745119,86.5970521 77.4707922,86.4406374 77.6898595,87.1365994 C77.7261621,88.0089438 77.7958464,88.9403597 77.9068405,89.937087 L78.1008715,90.9912219 C78.412573,92.6859911 79.9894403,93.8141733 81.679388,93.616159 L81.6827262,93.6303029 C82.5489808,93.5404477 83.3501412,93.4214727 84.0962219,93.2816979 C84.0966391,93.2837779 84.0970564,93.2862739 84.097891,93.2883539 C84.1250136,93.388193 84.1517189,93.4930241 84.1788415,93.6032632 L84.1813452,93.6128311 C84.2084678,93.7222381 84.2355904,93.8366371 84.2622957,93.9560281 C84.2635476,93.96102 84.2643821,93.966012 84.2652166,93.971004 C84.291922,94.0895629 84.3177928,94.2126979 84.3436636,94.3404087 C84.3449154,94.3470647 84.3461672,94.3541366 84.3478363,94.3607926 C84.3728726,94.4880875 84.3979088,94.6199583 84.4216933,94.7564051 C84.4229451,94.7638931 84.4241969,94.771381 84.4254487,94.7788689 C84.4492332,94.9161477 84.4726004,95.0571705 84.4942984,95.2027692 C84.495133,95.2098412 84.4963848,95.2173291 84.4972193,95.2244011 C84.5193347,95.3712478 84.5401983,98.6721791 84.55981,98.8281777 C84.5606445,98.8344177 84.5610618,98.8402416 84.5614791,98.8464816 C84.5810908,99.0045602 84.5990335,99.1663828 84.615307,99.3327813 C84.6157243,99.3361093 84.6157243,99.3390213 84.6161416,99.3423493 C84.6324152,99.5120758 84.6474369,99.6859623 84.6599551,99.8644247 C84.6603723,99.8690007 84.6612069,99.8735766 84.6616241,99.8785686 C84.7859709,101.548378 86.1829944,102.841711 87.8645967,102.841711 L87.9551445,102.841711 C89.6121278,102.841711 90.9974677,101.585818 91.1539443,99.9413841 L91.7961244,90.056062 L91.7948726,90.056478 C92.4262037,89.5260826 92.6878327,89.1558458 92.6878327,89.1558458 C92.6878327,89.1558458 93.1989897,88.6142185 93.4017834,88.3400769 C94.3961403,86.9968246 95.4101089,85.3078793 95.733494,83.6834134 C96.7545562,78.5433621 93.9279622,75.8298176 90.1332993,74.0917848"/>
    <path fill="#5B2F11" d="M82.6481244,80.5155593 C83.7893607,81.1054422 84.6731408,82.0210502 84.4465626,83.4828615 C84.2195672,84.9446728 83.5915743,87.2580287 84.8237757,88.2223083 C86.0559771,89.1865879 87.2184942,89.5339449 87.3699636,90.9741244 C87.523102,92.4143039 88.1306487,91.5515274 88.1306487,91.5515274 C88.1306487,91.5515274 90.8600186,86.0815909 87.9553948,80.7285495 C85.5118556,76.2253886 81.7347181,75.6791854 80.5959855,75.6188659 C80.0581231,76.1384454 79.0420681,77.3872665 78.3581608,79.8691009 C79.6158158,79.9310844 81.8882739,80.1224427 82.6481244,80.5155593"/>
    <path fill="#0B2739" d="M77.8649882,78.8507418 C78.0118676,77.7304635 78.4996575,73.3429497 82.0523031,70.8319955 C87.2389822,67.1662354 94.9380502,69.6855095 97.9549198,73.8151056 C98.7978074,74.9678315 100.041275,77.3061472 99.8914748,80.325449 C99.5868669,86.4697156 103.817161,89.298907 103.136174,93.9580665 C102.455188,98.617226 99.6849256,102.617031 97.1036869,102.813797 C94.5232828,103.010564 92.6555776,100.773751 91.125862,100.214652 C89.595729,99.6555529 85.7539145,100.124381 85.351248,96.2556145 C84.9489987,92.3868481 87.55277,92.4829433 86.2308553,89.8588381 C84.9089407,87.2347329 84.2279543,86.0807589 85.3095209,83.7025076 C86.3910874,81.3238403 82.9832348,80.1740263 82.0009788,79.0100684 C81.0099601,77.8357106 80.6223153,76.6913046 80.6223153,76.6913046 C80.6223153,76.6913046 80.735813,78.2924746 81.0892416,79.4560165 C81.0892416,79.4560165 79.4744026,79.7671818 77.8649882,78.8507418"/>
    <path fill="#0B2739" d="M99.8915165,80.3256154 C100.0409,77.3058976 98.7978491,74.9679979 97.9549616,73.814856 C97.1045632,72.6508981 95.881959,71.6146511 94.4477985,70.8088661 C95.4333927,71.5896913 96.2424812,72.42626 96.8204016,73.2466049 C98.4327369,75.534169 98.6906104,77.6832063 98.12187,80.5860291 C97.5527123,83.4888519 100.315047,85.204421 99.1604576,89.2441618 C98.260404,92.3940865 95.3695502,91.5945414 96.060551,96.7162889 C96.3104964,98.5670568 95.8923908,100.877501 94.8408678,102.392144 C95.5310341,102.691245 96.2812874,102.876363 97.1037286,102.813964 C99.6849673,102.617198 102.455647,98.6169764 103.136216,93.9582329 C103.817202,89.2986574 99.5869086,86.469882 99.8915165,80.3256154"/>
  </g>
</svg>
