<svg xmlns="http://www.w3.org/2000/svg" width="590" height="245" viewBox="0 0 590 245">
  <g fill="none">
    <path fill="#F4F4F4" d="M382.396587,81.9284104 C382.396587,81.9284104 391.214176,73.7406167 392.50856,75.1715624 C393.802945,76.6025081 392.589057,78.2715492 393.802945,77.8744598 C395.016027,77.4769749 401.487948,72.5481619 402.458736,72.9456468 C403.429524,73.3431317 402.054241,76.761502 403.591322,76.2046276 C405.128403,75.6485443 424.54336,60.147028 427.86022,61.8959617 C431.176677,63.6444998 421.711895,79.7024949 425.271049,79.066519 C428.830605,78.4305432 436.030617,74.2970955 436.839607,76.2046276 C437.648195,78.1129507 435.545223,81.9284104 435.545223,81.9284104 L382.396587,81.9284104 Z"/>
    <path fill="#06ABF4" d="M351.361508,116.382826 C350.411199,133.334159 340.592123,154.410492 326.789224,156.877654 C313.93152,159.17592 308.132469,143.446855 290.385491,144.4178 C276.278022,145.189546 272.717215,155.523664 262.779694,153.139738 C250.088048,150.095585 240.128098,129.457248 245.487606,119.809215 C251.287444,109.369234 272.653861,116.068471 276.430701,106.726712 C280.044631,97.7882002 261.892739,88.174108 264.296254,77.1341046 C267.027557,64.5902073 295.351103,54.5490286 317.991288,63.1170216 C339.027556,71.0777194 352.608125,94.1399847 351.361508,116.382826"/>
    <path fill="#038EE5" d="M310.859555,93.9548752 C307.558659,98.0291431 306.025944,103.268518 303.167788,107.671149 C299.937174,112.646712 294.984042,116.457167 289.375338,118.280604 C280.357335,121.212216 270.269608,119.049992 261.315932,122.176056 C254.157835,124.675464 248.332327,130.679817 245.826377,137.876541 C249.173732,145.063242 255.18666,151.569161 261.974682,153.170081 C272.00245,155.535979 275.595594,145.28175 289.831181,144.515569 C307.739329,143.552531 313.591044,159.159599 326.565516,156.879501 C340.493766,154.431412 350.402014,133.518013 351.360954,116.697726 C351.942671,106.488401 349.317996,96.1070765 344.232638,87.1137777 C332.517295,84.3906496 318.444906,84.5927192 310.859555,93.9548752"/>
    <path fill="#06ABF4" d="M389.794259,155.220842 C385.798479,165.680509 352.859487,169.992557 332.093462,153.157111 C317.568677,141.381918 308.741792,119.052094 315.526372,109.527684 C321.971962,100.477275 338.03953,109.267046 344.947596,100.094128 C353.984408,88.0948849 332.489415,65.0896205 340.94863,49.3888153 C346.526628,39.0368575 361.491582,33.8471066 372.084322,37.0076583 C394.564019,43.7156086 404.397518,89.9526545 390.651095,110.411965 C387.26239,115.455774 383.233149,117.751779 381.796326,124.562093 C378.762146,138.939561 392.761118,147.454305 389.794259,155.220842"/>
    <path fill="#038EE5" d="M390.636334,108.943719 C404.382364,88.6719251 394.604614,42.9233951 372.186905,36.0875955 C377.131483,48.3161675 376.151193,63.0743243 369.101486,74.2371633 C365.735355,79.5678701 361.195272,84.030474 357.721729,89.2893153 C351.816427,98.230448 349.260883,109.079692 348.249846,119.819504 C346.890616,134.253858 348.365644,149.58653 355.959602,161.786928 C371.964493,164.472085 387.143624,160.282244 389.777432,153.450119 C392.751446,145.736008 378.718316,137.278743 381.760212,122.998737 C383.2009,116.233986 387.239058,113.953889 390.636334,108.943719"/>
    <path fill="#0B2739" d="M294.495822,122.622171 C294.751264,129.286025 294.85937,135.950282 294.939196,142.614136 L294.991653,152.609918 L294.959723,162.606102 L294.922775,172.601883 C294.913652,175.934213 294.856633,179.26614 294.826072,182.598067 C294.76358,189.262324 294.655473,195.925776 294.495822,202.58963 C294.490804,202.791589 294.301503,202.952111 294.072062,202.948162 C293.849462,202.943662 293.671109,202.78475 293.666548,202.58963 C293.507353,195.925776 293.399246,189.262324 293.336298,182.598067 C293.306192,179.26614 293.249174,175.934213 293.240051,172.601883 L293.203103,162.606102 L293.170717,152.609918 L293.223173,142.614136 C293.303455,135.950282 293.411562,129.286025 293.666548,122.622171 C293.673846,122.420211 293.86634,122.261702 294.095325,122.268328 C294.314732,122.27538 294.488067,122.431878 294.495822,122.622171"/>
    <path fill="#0B2739" d="M305.91318 126.28138C305.63369 127.855422 305.112305 129.356836 304.461807 130.827617 303.801436 132.292202 302.974739 133.704123 301.972601 135.021389 300.960969 136.328673 299.779213 137.559544 298.354042 138.539835 296.940264 139.5246 295.30016 140.268423 293.570057 140.59817 293.391198 140.632246 293.215378 140.528641 293.177783 140.366177 293.147024 140.232282 293.219175 140.100796 293.345629 140.039873L293.356642 140.034365C294.101315 139.674329 294.825862 139.317046 295.509018 138.899871 296.185717 138.476157 296.84343 138.037298 297.455194 137.543711 298.678721 136.562043 299.787187 135.455085 300.757047 134.240392 301.72273 133.023289 302.57677 131.721169 303.317646 130.359501 304.065737 129.004372 304.725348 127.583846 305.271796 126.150239L305.276733 126.136471C305.335973 125.980891 305.523945 125.898282 305.695588 125.951978 305.849004 126.000166 305.937863 126.140601 305.91318 126.28138M275.410549 135.278961C276.16731 137.85038 277.120225 140.365614 278.226553 142.781177 278.788685 143.986072 279.382492 145.173266 280.054913 146.311201 280.706727 147.461067 281.432194 148.562828 282.204601 149.624953 283.766588 151.733808 285.591514 153.64063 287.710291 155.162623 288.76052 155.939206 289.90501 156.576095 291.087663 157.139868 292.269934 157.717879 293.53082 158.105016 294.808879 158.486765L294.829105 158.492537C294.949316 158.528711 295.018009 158.655704 294.982136 158.77731 294.949316 158.888525 294.840172 158.95587 294.729501 158.938168 294.060132 158.83234 293.370919 158.786546 292.709565 158.604907 292.376407 158.526787 292.040196 158.454054 291.70971 158.360541L290.727792 158.042289C289.437521 157.567027 288.162515 156.995558 287.003905 156.230135 285.834227 155.485878 284.728281 154.629637 283.732624 153.662565 282.729334 152.70165 281.823741 151.644913 280.986458 150.541997 280.163676 149.427921 279.434393 148.250733 278.764261 147.045453 278.11321 145.829782 277.520548 144.584864 277.025582 143.302618 276.026872 140.74236 275.28385 138.092436 274.962904 135.36016 274.948403 135.234321 275.037321 135.120027 275.162494 135.105404 275.27431 135.091935 275.376203 135.162358 275.407496 135.267801L275.410549 135.278961zM315.017116 133.572111C315.072984 136.836055 314.642522 140.074095 313.833448 143.244235 313.023971 146.410449 311.764339 149.493456 310.002301 152.314672 308.217353 155.111161 305.878151 157.64586 302.998761 159.429333 302.295795 159.898358 301.533746 160.269261 300.786567 160.658218 300.403131 160.834446 300.007235 160.985162 299.618976 161.14883L299.034577 161.387072 298.432896 161.581354C296.842881 162.140652 295.174492 162.415787 293.522179 162.606145 293.349753 162.625769 293.193404 162.505667 293.172906 162.336897 293.154016 162.180686 293.25932 162.037427 293.412855 162.002496L293.424511 161.999748C296.586855 161.265007 299.624603 160.113443 302.203352 158.282086 302.529313 158.059544 302.854068 157.837787 303.156316 157.584631 303.461779 157.336578 303.778897 157.103046 304.07391 156.844396L304.941666 156.047249C305.230248 155.781534 305.484666 155.480886 305.7632 155.204574 306.838751 154.063214 307.794528 152.812741 308.645001 151.491621 310.32585 148.835643 311.584277 145.915127 312.515134 142.889816 312.974133 141.374806 313.368421 139.835462 313.677903 138.2761 314.003462 136.722626 314.237784 135.136182 314.388506 133.565046L314.389712 133.548169C314.406191 133.379791 314.559324 133.255764 314.732152 133.271464 314.892921 133.286378 315.013901 133.418255 315.017116 133.572111"/>
    <path fill="#0B2739" d="M324.126631 139.131882C324.120807 140.667316 323.605404 142.085466 322.852251 143.377246 322.680173 143.711754 322.451567 144.00703 322.232105 144.309739 322.022619 144.621121 321.77323 144.898639 321.523842 145.176982L321.144771 145.589956 320.731618 145.966174 320.31597 146.340328 320.107315 146.526579 319.880788 146.688877 318.972598 147.331876C318.663356 147.535885 318.335826 147.707682 318.013699 147.886086 317.379006 148.26726 316.685706 148.51587 316.011941 148.797931 315.329448 149.057278 314.61786 149.226184 313.924976 149.428954 313.211725 149.559453 312.500137 149.682519 311.788133 149.770069 311.589037 149.794435 311.406984 149.654024 311.382876 149.455797 311.36251 149.292672 311.455199 149.141111 311.599429 149.079165L311.62894 149.067189C312.276518 148.79091 312.927838 148.555928 313.572923 148.318469 314.196809 148.027323 314.833997 147.776648 315.443336 147.481785 316.032724 147.146451 316.664508 146.893712 317.214409 146.51006 317.493309 146.325874 317.790497 146.16977 318.063993 145.980628L318.864114 145.389251C319.138857 145.201348 319.36871 144.964714 319.624333 144.756163L319.998 144.432392 320.337584 144.075996C320.569515 143.843492 320.809344 143.615944 321.007608 143.354945 321.215016 143.10138 321.434478 142.855248 321.618194 142.582685 322.384647 141.529604 323.029732 140.321245 323.403399 139.076131L323.417947 139.027813C323.475722 138.837432 323.676895 138.729233 323.868509 138.786224 324.026039 138.832477 324.127457 138.976604 324.126631 139.131882M285.727048 154.537161C284.227643 155.249619 282.613845 155.375836 281.02756 155.206855 279.437292 155.034968 277.892275 154.476544 276.45622 153.701808 275.020526 152.910465 273.726375 151.843854 272.5582 150.645629 271.972484 150.048177 271.461339 149.364782 270.926303 148.719584 270.447376 148.014599 269.978586 147.304632 269.543824 146.573075 269.462736 146.436479 269.493506 146.250476 269.612604 146.157475 269.711068 146.080665 269.838492 146.09146 269.926096 146.174082L269.94311 146.190689C270.532084 146.75202 271.076171 147.346981 271.629669 147.924504L272.498832 148.735776C272.791329 148.999834 273.051245 149.307071 273.364737 149.537084 273.976518 150.014547 274.537618 150.569234 275.182341 150.974455 275.494747 151.192428 275.793397 151.441124 276.116301 151.635015 276.440292 151.827661 276.767178 152.012004 277.086462 152.214199 278.395456 152.940773 279.771781 153.494631 281.199148 153.812247 282.618913 154.119069 284.119405 154.218299 285.556546 153.973755L285.589488 153.967942C285.731392 153.943861 285.86316 154.056376 285.884156 154.218299 285.901894 154.35614 285.8342 154.486093 285.727048 154.537161M356.310702 139.005543C356.522857 144.925723 356.646342 150.846317 356.729572 156.766911 356.856321 162.687092 356.835106 168.607686 356.881345 174.527866 356.934112 180.448047 356.884609 186.369054 356.816066 192.289235L356.629479 201.169712C356.604999 202.649861 356.533737 204.130009 356.488586 205.610158 356.440171 207.090306 356.386316 208.570455 356.310702 210.05019 356.30363 210.18332 356.156209 210.287096 355.981045 210.282692 355.814585 210.277587 355.68294 210.175051 355.675324 210.05019 355.59971 208.570455 355.545855 207.090306 355.497984 205.610158 355.452289 204.130009 355.381027 202.649861 355.356548 201.169712L355.16996 192.289235C355.101417 186.369054 355.051915 180.448047 355.104681 174.527866 355.151464 168.607686 355.129705 162.687092 355.256998 156.766911 355.339684 150.846317 355.463169 144.925723 355.675324 139.005543 355.680764 138.872412 355.826009 138.767396 356.001717 138.771021 356.170897 138.774011 356.305262 138.8782 356.310702 139.005543M373.284537 144.580448C372.812181 146.600585 371.961134 148.449054 370.927877 150.160693 369.890961 151.869813 368.621708 153.406846 367.181222 154.697081 365.753176 156.007463 364.12682 157.027395 362.425459 157.766111 360.712389 158.471669 358.918824 158.900628 357.122698 158.940979 357.004152 158.943859 356.905363 158.835151 356.903481 158.69874 356.901338 158.585414 356.968295 158.488038 357.058303 158.456978 358.748322 157.876079 360.380166 157.232221 361.931515 156.401585 363.481401 155.574726 364.94384 154.568226 366.299075 153.390477 366.973766 152.796986 367.617722 152.157745 368.238262 151.486185 368.848557 150.803292 369.433971 150.086821 369.987188 149.334254 371.086305 147.82912 372.078949 146.177082 372.880967 144.420533L372.889016 144.403324C372.943533 144.283283 373.073056 144.237113 373.177333 144.300072 373.267706 144.354217 373.310149 144.472159 373.284537 144.580448M382.395668 150.019739C382.264729 151.529695 381.91581 152.987222 381.459037 154.419505 380.99091 155.845574 380.41228 157.244458 379.681519 158.564504 378.252541 161.222072 376.268397 163.600408 373.88311 165.454453 372.70655 166.404778 371.397537 167.172572 370.047653 167.819973 369.381225 168.168334 368.669386 168.403683 367.975711 168.67709 367.623765 168.799036 367.265385 168.900399 366.91079 169.012247L366.377572 169.17536C366.197815 169.222352 366.015787 169.257305 365.834515 169.298859 362.948178 169.981213 359.976313 170.112092 357.097166 169.734991 356.975309 169.719068 356.889783 169.60489 356.905298 169.479837 356.918544 169.371095 357.005584 169.290315 357.107762 169.281771 359.967231 169.042928 362.766906 168.597476 365.433372 167.766379 365.768667 167.671618 366.096394 167.552779 366.422985 167.431221 366.748819 167.310052 367.079194 167.200534 367.401622 167.07082 368.037396 166.789646 368.677333 166.522452 369.289644 166.195838 369.918227 165.903401 370.505183 165.530961 371.103113 165.182987 371.675309 164.790352 372.258102 164.41597 372.804565 163.987218 373.912249 163.148353 374.923054 162.182494 375.872174 161.153332 376.814103 160.114849 377.654233 158.976169 378.425866 157.785447 379.186524 156.586959 379.869224 155.327109 380.457693 154.013665 381.053352 152.707212 381.565377 151.337843 381.959709 149.950222L381.963493 149.935853C381.997552 149.815849 382.120544 149.74672 382.237481 149.782061 382.340794 149.812742 382.405129 149.914104 382.395668 150.019739"/>
    <path fill="#0B2739" d="M380.290591 153.433916C379.534474 153.252616 378.849268 152.919042 378.197526 152.495028 377.549369 152.070172 376.96057 151.528797 376.464194 150.897403 376.204055 150.589488 376.004867 150.232778 375.801695 149.880695 375.7025 149.703181 375.635971 149.505897 375.552711 149.31997L375.435987 149.036452 375.352328 148.739895C375.097766 147.957488 375.077449 147.119555 375.147961 146.328315 375.159913 146.193286 375.27345 146.094013 375.402125 146.106633 375.504507 146.116728 375.584979 146.19581 375.607288 146.296345L375.612865 146.322426C375.771817 147.058561 375.896907 147.769879 376.186925 148.421464 376.448259 149.077676 376.790065 149.693506 377.222701 150.243294 377.647369 150.798971 378.143745 151.299964 378.687528 151.754686 379.230912 152.203097 379.830069 152.615754 380.437591 152.968678L380.454721 152.978353C380.567462 153.043554 380.608893 153.193725 380.546746 153.312769 380.495356 153.41078 380.389388 153.457893 380.290591 153.433916M356.682247 175.443673C355.070816 175.381987 353.55698 174.817272 352.134503 174.059294 351.427484 173.669192 350.752385 173.213611 350.105537 172.713583 349.790369 172.453648 349.474467 172.190935 349.171039 171.913935 348.878986 171.624634 348.564551 171.357158 348.290109 171.04722 346.021557 168.631609 344.365363 165.625092 343.230537 162.46936 342.072963 159.31204 341.357138 156.002331 340.962352 152.674368 340.559861 149.345213 340.438416 145.993042 340.560228 142.661109 340.564264 142.532927 340.664428 142.433319 340.78257 142.438286 340.892273 142.44324 340.979229 142.53769 340.988035 142.652775 341.238628 145.959706 341.557466 149.246398 342.101581 152.480706 342.369419 154.098257 342.711371 155.694775 343.089647 157.277403 343.31309 158.056415 343.500209 158.849713 343.753005 159.616026L344.115136 160.772439 344.527167 161.90663C345.652821 164.910369 347.15198 167.75537 349.182413 170.099945 350.184421 171.283345 351.33796 172.309989 352.597899 173.161227 353.857839 173.994607 355.259036 174.675201 356.706463 174.98117L356.731045 174.98633C356.846252 175.010537 356.922201 175.131973 356.899453 175.25698 356.879273 175.370081 356.785346 175.447863 356.682247 175.443673M326.508184 122.497977C326.707635 125.150349 327.066645 127.789272 327.589169 130.357688 328.104865 132.928549 328.802762 135.438684 329.73353 137.81025 330.663938 140.183039 331.877531 142.377727 333.340166 144.326658 334.065375 145.312535 334.889051 146.191632 335.755132 147.037718 336.630917 147.87443 337.592231 148.59295 338.587327 149.32492L338.598108 149.333071C338.695856 149.405209 338.723528 149.553151 338.659919 149.664006 338.608889 149.754076 338.512578 149.791571 338.426329 149.763858 338.135599 149.67175 337.844509 149.573937 337.554857 149.467565 337.26233 149.368121 336.976271 149.247892 336.699556 149.102395 336.422123 148.960158 336.133549 148.834223 335.861146 148.674869L335.055798 148.167055C334.781958 148.003217 334.53579 147.794549 334.277762 147.601775 334.02261 147.40411 333.767817 147.204408 333.532789 146.9774 333.294167 146.756097 333.046202 146.542538 332.814049 146.311046L332.143105 145.583152C331.279539 144.577712 330.503659 143.474051 329.845653 142.290917 329.199865 141.100447 328.643561 139.856587 328.160567 138.583383 327.221174 136.022304 326.615277 133.338957 326.266688 130.634826 325.94613 127.924173 325.831491 125.196811 326.089159 122.481267 326.101378 122.350442 326.204876 122.255481 326.320593 122.269746 326.421936 122.28238 326.4992 122.374895 326.507466 122.486565L326.508184 122.497977z"/>
    <path fill="#F4F4F4" d="M6.55622817,243.898378 C130.095759,244.011482 315.405054,244.181138 562.484115,244.407346 C570.308204,244.30542 576.176271,244.228975 580.088315,244.178012 C587.587492,244.080319 592.981206,238.781755 588.138715,236.402064 C433.737165,160.526214 253.025197,199.705488 133.544712,215.323554 C59.5667221,227.203608 22.8751467,235.32571 5.66361778,239.786544 C-4.90724333,242.526269 1.66079905,243.893896 6.55622817,243.898378 Z"/>
    <path fill="#F4F4F4" d="M93.1464767,26.2647276 C94.5693329,24.2565921 94.3105468,22.8327351 93.6780625,22.2924214 C91.7161465,20.6166 80.9361967,29.9726379 84.5763294,20.8155034 C88.2173963,11.6586721 81.5425222,14.9078312 78.8123448,16.0894262 C76.081856,17.2710213 61.215827,27.9047707 66.9804344,16.3850524 C72.744419,4.86472775 52.9798283,13.3184236 50.5526579,13.6137465 C48.1254876,13.9090695 49.7548121,11.251466 51.9708429,2.234716 C54.6549308,-8.68616975 19.3482285,24.3602886 16.9213696,16.9756984 C14.8018775,10.5258932 2.96373879,23.0016211 0,26.2647276 L93.1464767,26.2647276 Z" transform="translate(211.712)"/>
    <g transform="translate(47.344 28.753)">
      <path fill="#0B2739" d="M84.7343719,128.639743 C84.7343719,128.639743 89.6972472,169.447774 107.833508,215.150262 C103.225033,215.247086 98.6227384,215.075883 79.1496534,215.247086 C67.4918884,191.056726 57.0252441,161.391155 53.6013453,128.639743 C74.3566964,128.639743 84.7343719,128.639743 84.7343719,128.639743 Z"/>
      <path fill="#000" d="M79.0667418,215.075883 C75.2464597,207.152655 71.6709824,198.872162 68.3109932,189.857157 C66.461244,180.109815 66.3353318,170.663095 67.2109184,161.955055 C71.2653731,151.037202 76.4712615,139.343715 81.9144777,128.639701 L84.7346618,128.639701 C84.7346618,128.639701 85.288841,133.188461 86.6983118,140.937337 C83.7671262,155.072747 80.7883093,169.38338 80.0837811,180.422063 C79.3624788,191.731528 82.2612957,203.800936 87.4164163,215.247086 C83.9464513,215.247086 84.6171,215.01641 79.0667418,215.075883 Z"/>
      <path fill="#EFC9AA" d="M56.6830871,136.303707 C56.6830871,136.303707 36.0378061,139.047217 36.9786609,133.133485 C48.9481737,57.8992572 60.9773401,47.7177902 60.9773401,47.7177902 L56.6830871,136.303707 Z"/>
      <path fill="#D6B096" d="M46.347479,93.5518474 C50.0999377,74.8802696 54.3608329,61.9056166 59.1301644,54.6278882 L54.7657844,116.642354 L56.6830457,136.303541 C56.6776613,136.303956 47.6180764,137.356959 41.824874,136.303541 L46.347479,93.5518474 Z"/>
      <path fill="#0B2739" d="M48.9155074,128.639743 C48.9155074,128.639743 55.8527968,157.971619 40.3784397,215.075883 L62.9670272,215.075883 C62.9670272,215.075883 72.6637852,205.779518 81.5839169,128.639743 L48.9155074,128.639743 Z"/>
      <polygon fill="#0B2739" points="4.937 63.694 9.472 84.472 7.186 84.973 2.651 64.196"/>
      <path fill="#E05D4E" d="M100.998414,141.481237 L102.262091,153.937488 C102.316764,154.475616 102.751244,154.895406 103.290098,154.929869 C103.824811,154.963917 104.306922,154.608072 104.433248,154.086137 L106.08336,147.258639 L113.392479,156.593664 C114.482199,157.985074 116.704714,157.005565 116.418513,155.259971 L115.325479,148.585689 C115.046319,146.881617 114.12103,145.351938 112.742623,144.315959 L105.507643,138.877379 L99.9103504,127.036072 L94.4497384,130.173906 L100.998414,141.481237 Z"/>
      <path fill="#EFC9AA" d="M86.3377226,68.7767841 L105.446965,133.096364 L104.290561,133.991583 C100.118064,137.221597 94.0548132,135.955169 91.5162747,131.323366 L80.4376605,111.107442 L86.3377226,68.7767841 Z"/>
      <path fill="#D6B096" d="M82.8830902,115.569752 L88.1204566,86.2367948 L100.900542,135.585954 C97.3132876,136.380274 93.4216075,134.800353 91.5163576,131.323283 L82.8830902,115.569752 Z"/>
      <path fill="#0B2739" d="M46.6840041,29.2515749 C50.1635703,21.4682347 47.4866942,13.4174914 53.1092524,5.36591764 C58.5698644,-2.4552078 70.0899996,-0.779370981 72.3410938,4.36398646 C76.1855568,4.25312213 81.0774932,6.17269438 83.2271121,14.154926 C85.5030574,22.6092653 83.0933304,28.9160754 92.8647775,34.0154193 C102.19139,38.8826539 99.9589342,45.690222 98.8882666,47.9714528 C97.817599,50.2522683 98.218944,49.8503332 101.163384,54.9496771 C104.108651,60.0486058 99.7004829,63.7905883 97.0140805,63.9400683 C94.6043535,64.0746003 92.3296508,61.390604 82.9587204,62.7321869 C73.7774866,64.0476108 73.9046413,58.4387893 61.8547638,56.7608764 C55.4295155,55.8660725 56.4053348,50.6787015 51.3692622,49.7830672 C46.9341717,48.9941451 43.8663051,45.2833042 43.471587,40.9263776 C43.1278137,37.1308315 45.0632991,32.8756343 46.6840041,29.2515749"/>
      <path fill="#E05D4E" d="M61.4085626,3.59582538 C67.5782589,1.27182671 75.554215,3.61658649 78.0045321,12.0568082 C78.7363966,14.5738852 78.9360336,17.3861852 78.4733892,19.9755109 C78.0542343,22.3252533 76.7946984,24.3386658 75.6540335,26.3944309 C74.0966988,29.1988417 73.3167889,31.9808305 73.4418727,35.1709827 C73.5164259,37.0357456 73.9028603,41.6405598 74.1236208,43.4928661 C74.1236208,43.4928661 73.6792005,43.1386815 72.1028133,44.3864243 C68.9500388,46.9649541 65.2542682,45.4120231 65.2542682,45.4120231 C65.2542682,45.4120231 64.7307386,45.3094632 64.8144039,42.7305181 C64.9800778,40.1524034 65.2389433,34.1333424 62.6051424,34.276594 C61.3514051,34.3451057 59.8926463,34.657768 58.7026935,34.1022007 C55.8733973,32.8154271 54.61966,29.9080412 54.1164255,26.9562266 C53.348527,22.9526541 53.2350403,18.837802 53.7362039,14.8699387 C54.1992625,11.1620044 54.8921936,7.32991866 58.2234817,5.15456954 C59.2030287,4.47983345 60.3060027,4.03845225 61.4085626,3.59582538"/>
      <path fill="#E05D4E" d="M72.0794947,15.8446728 L72.0902635,15.7977527 C73.218917,15.3356104 74.5318827,15.2691748 75.3258749,16.4031467 C76.1832374,17.6276369 75.6688199,19.2237511 74.6122346,20.2958548 C74.2258002,20.6882398 73.6020379,21.1736346 73.1099864,21.5253278 L72.0794947,15.8446728 Z"/>
      <path fill="#E05D4E" d="M72.090015,15.7978357 L71.5731124,17.6393462 C71.5731124,17.6393462 72.6114736,18.3414869 72.6114736,18.2418336 C72.6114736,18.1421803 72.7854312,16.121709 72.7854312,16.121709 L72.090015,15.7978357 Z"/>
      <path fill="#D34A46" d="M65.4715495,41.538955 L64.8751234,41.6124493 C64.9674866,39.468657 64.9339376,36.3906148 63.961846,35.0054336 C63.9204275,34.9410741 63.8769381,34.8800365 63.8305494,34.8235662 C63.809426,34.7990681 63.7878884,34.7754005 63.7659366,34.7525632 C63.6785436,34.6570621 63.5832811,34.5752634 63.4797349,34.5075821 C63.4697945,34.5009386 63.4606824,34.4938798 63.4503278,34.4876515 C63.3413972,34.4199703 63.2241829,34.3676523 63.096614,34.3331888 C63.0817034,34.3290366 63.0684494,34.322393 63.0535388,34.318656 C62.9181004,34.2866839 62.7739641,34.2688294 62.6157455,34.2771338 C62.6120178,34.277549 62.6087044,34.2763034 62.6049767,34.2767186 C62.6049767,34.2767186 64.2998208,34.1695913 70.0909522,29.3534289 L65.4715495,41.538955 Z"/>
      <path fill="#0B2739" d="M85.108505,25.6518475 C84.3335653,22.3724226 84.3078858,18.6931386 83.2268636,14.5089445 C82.0033618,9.77416569 79.8897769,7.0889237 77.5873238,5.67426165 L75.5242694,6.22733762 L75.5760425,6.19162851 L72.3412595,4.36423559 L67.9608414,2.03691514 L56.3810636,3.75385895 L53.8127038,9.49679726 C52.7204986,9.24434216 51.9389319,9.06538139 51.9389319,9.06538139 C51.0422219,13.9504706 59.5048451,13.4355951 59.5048451,13.4355951 C60.9267414,15.4203572 66.686809,13.5115807 68.0544471,13.0228642 C68.0635592,13.1179501 68.0706003,13.2097142 68.0792982,13.3052153 C68.4591056,17.5940455 69.1628056,23.6396807 69.9878616,27.5917657 C72.0794947,37.6131536 77.3168611,45.9043105 83.8444131,44.4319326 C87.0965919,43.6986502 89.2863868,40.9208137 90.6850887,37.1825682 C86.7122284,33.8284032 85.6991325,30.040331 85.108505,25.6518475"/>
      <path fill="#000" d="M81.5839169,128.639743 C81.5168189,130.241255 81.4335678,131.847335 81.3424471,133.45466 C78.060447,130.793916 79.5979009,130.975783 76.5656542,131.337857 C65.5682202,132.649959 55.5333516,148.916704 52.0318336,172.220635 C50.295456,183.778114 48.1012099,198.930606 45.6247145,215.075883 C43.2304663,215.075883 40.6921513,215.075883 40.3784397,215.075883 C46.135967,169.984067 48.9155074,128.639743 48.9155074,128.639743 L81.5839169,128.639743 Z"/>
      <path fill="#06ABF4" d="M86.5818845,128.639743 C86.5818845,128.639743 95.5050812,74.6400954 76.8042246,45.2598026 C73.2211122,39.6306352 63.7857428,40.2889226 60.9773401,47.7177902 C54.5338923,64.7621833 48.9152432,64.7621833 48.9152432,128.639743 L86.5818845,128.639743 Z"/>
      <path fill="#FFF" d="M78.401901,116.82555 C83.3994544,99.1686412 83.683171,83.9046577 81.7273905,69.0156199 C80.0847337,56.5141098 76.7277661,47.6985272 72.6637852,41.4706094 C74.4708733,42.2391857 76.1118734,43.5861665 77.2827737,45.4878842 C96.2975823,76.3712813 87.2248649,133.133402 87.2248649,133.133402 L72.9255499,133.133402 C74.8655914,128.127899 76.7559307,122.641152 78.401901,116.82555"/>
      <path fill="#EFC9AA" d="M76.2557197,44.1144537 C96.991466,76.455696 89.387862,145.947699 89.387862,145.947699 C89.387862,145.947699 55.1128298,173.81077 51.7161005,141.089599 C49.0905833,115.79883 57.5204859,61.3744103 63.7415411,44.3494695 C64.4493829,42.4124579 66.159966,40.9795261 68.2081097,40.7773129 C71.0879364,40.4928857 74.122254,41.6526013 76.2557197,44.1144537"/>
      <path fill="#D6B096" d="M53.3218535,95.9259634 L78.6500805,68.7766596 C78.4351186,77.4041465 77.8113563,96.192536 77.4315489,105.934064 C77.0285471,116.273512 74.1570041,129.174051 63.650379,130.824974 C59.5226136,131.473551 55.6831208,129.274535 51.9761671,126.169088 C52.1095346,115.074766 52.583362,104.99151 53.3218535,95.9259634"/>
      <path fill="#E05D4E" d="M25.8703911,86.3095832 L13.5508793,80.2888613 C12.4976074,79.774401 11.3267071,79.5493505 10.1578776,79.6365472 L2.76509369,80.1896232 L3.57358236,83.534238 C4.70969119,88.2324772 8.9053829,91.5405525 13.7277362,91.5405525 L25.0122002,91.5405525 L25.8703911,86.3095832 Z"/>
      <path fill="#E05D4E" d="M7.32311425,80.7634602 L6.79337193,83.9934738 C6.5900072,85.2283446 5.26378757,85.924257 4.13637663,85.3877899 L1.07223771,83.93036 C0.940941134,83.8676614 0.817099888,83.7900149 0.703613261,83.698666 C-0.177357744,82.9911274 -0.240728013,81.6698903 0.568174841,80.8813833 L0.701542337,80.7514188 C1.01963624,80.4412478 1.43713449,80.2543978 1.87989801,80.2236714 L7.00543453,79.8665803"/>
      <path fill="#EFC9AA" d="M78.6502461,68.7767841 L72.0713353,105.23537 C70.582341,113.487081 62.3574599,118.122621 55.1862648,114.756415 C48.1297989,111.444187 39.2273114,106.934044 30.4329262,101.578093 C26.4965142,99.1810148 24.3651193,94.4022225 25.0381696,89.5964407 L25.5409899,86.0031077 L55.3515245,91.7103369"/>
      <path fill="#F7D5BC" d="M90.4524826,130.489184 C90.39284,131.88267 90.3273988,133.202246 90.2594725,134.440439 C90.2540881,134.535525 90.2491178,134.62978 90.2437334,134.724035 C90.1749788,135.955585 90.103739,137.104089 90.0329134,138.158754 C89.7048791,143.047165 89.3880277,145.947492 89.3880277,145.947492 C89.3880277,145.947492 79.4310259,154.038512 69.7179788,156.378289 C72.8931193,147.713432 77.3853673,135.997107 77.7676598,134.608604 C83.9733902,112.058301 84.3258615,92.5648642 81.8974962,73.5497634 C80.1024194,59.5007201 76.6580588,49.0994039 72.4184635,41.3845753 C72.7539532,41.516616 73.0824017,41.6719091 73.40588,41.8429806 C73.4373581,41.8600048 73.4692503,41.8757832 73.5007283,41.8928073 C73.8266917,42.0709376 74.1464424,42.2665073 74.4558384,42.484499 C74.4632937,42.4894816 74.4703349,42.49571 74.4782044,42.5011078 C74.7573649,42.6991688 75.026585,42.9196518 75.2891782,43.1501001 C75.353791,43.2074008 75.4179896,43.2647015 75.4817741,43.323663 C75.7480949,43.570305 76.0073746,43.8285732 76.2517436,44.1100939 C76.2529861,44.1113395 76.2546429,44.1130004 76.2558854,44.1142461 C76.4559367,44.4269084 76.6489468,44.7491209 76.8440278,45.0680115 C77.2797502,45.7817785 77.707603,46.505926 78.1180601,47.2520803 C79.3896074,49.5652832 80.5360708,52.0341944 81.574432,54.6185374 C81.9252465,55.4909193 82.2636355,56.3765882 82.5891847,57.2751291 C82.7076416,57.6014937 82.8244417,57.9295193 82.939585,58.2596209 C83.7600851,60.6085329 84.5027184,63.0338458 85.1674849,65.5218573 C85.8786402,68.1792794 86.5048875,70.9043827 87.0557533,73.6697626 C87.4686955,75.7442127 87.8389767,77.8415001 88.1707387,79.9512441 C88.5029149,82.0605729 88.7957435,84.1819431 89.0533664,86.304559 C90.3423094,96.9168081 90.7535949,107.556877 90.7490762,116.850796 C90.7465538,121.860452 90.6235409,126.476892 90.4524826,130.489184"/>
    </g>
  </g>
</svg>
