<svg xmlns="http://www.w3.org/2000/svg" xmlns:xlink="http://www.w3.org/1999/xlink" width="73" height="69" viewBox="0 0 73 69">
  <defs>
    <polygon id="fundamentals-a" points="0 .024 31.896 .024 31.896 31.918 0 31.918"/>
    <polygon id="fundamentals-c" points=".471 .105 32.367 .105 32.367 32 .471 32"/>
  </defs>
  <g fill="none" fill-rule="evenodd">
    <path fill="#163648" d="M24.876,0.00104 L15.772,24.52104 L14.1,24.52104 L14.1,25.20904 L19.564,25.20904 L19.564,24.52104 L16.884,24.52104 L19.636,16.81704 L26.708,16.81704 L29.3,24.52104 L26.78,24.52104 L26.78,25.20904 L38.452,25.20904 L38.452,24.52104 L36.804,24.52104 L27.812,0.00104 L24.876,0.00104 Z M23.308,6.67304 L26.42,16.02504 L19.956,16.02504 L23.308,6.67304 Z"/>
    <g transform="translate(0 6.862)">
      <path fill="#163648" d="M46.3624,16.7424 C46.4904,17.1024 46.7464,17.2704 47.1144,17.2704 C47.4824,17.2704 47.8264,16.9664 48.1544,16.3664 C48.4664,15.7584 48.6264,14.9104 48.6264,13.8544 L48.6264,10.5264 L48.3784,10.5264 C46.8984,10.5264 46.1704,11.6064 46.1704,13.7744 L46.1704,14.3424 C46.1704,15.5824 46.2264,16.3824 46.3624,16.7424 M47.5944,9.9504 L48.6264,9.9504 L48.6264,7.2064 C48.6264,4.9424 48.5064,3.4304 48.2504,2.6544 C48.0024,1.8864 47.5224,1.4944 46.8104,1.4944 C46.3784,1.4944 45.9944,1.6064 45.6504,1.8384 C45.2984,2.0624 45.1304,2.3664 45.1304,2.7584 C45.1304,3.1504 45.1944,3.5584 45.3464,3.9504 L46.2344,3.9504 C46.4264,4.4544 46.5224,5.0544 46.5224,5.7584 C46.5224,6.4624 46.2184,7.0704 45.6264,7.5744 C45.0344,8.0944 44.2824,8.3424 43.3784,8.3424 C41.3304,8.3424 40.3064,7.3584 40.3064,5.3824 C40.3064,2.4544 42.7944,0.9904 47.7704,0.9904 C50.6024,0.9904 52.5624,1.4784 53.6424,2.4384 C54.7304,3.4064 55.2664,5.1744 55.2664,7.7424 L55.2664,14.9904 C55.2664,16.2304 55.6184,16.8464 56.3064,16.8464 C57.1144,16.8464 57.5864,15.6144 57.7384,13.1744 L58.2664,13.2064 C58.1784,15.2944 57.7864,16.7424 57.0904,17.5264 C56.4024,18.3104 55.2664,18.7024 53.6984,18.7024 C50.8504,18.7024 49.1944,17.8224 48.7704,16.0624 C48.4664,16.9584 47.9944,17.6304 47.3784,18.0624 C46.7624,18.4944 45.8584,18.7024 44.6664,18.7024 C41.1464,18.7024 39.3784,17.2624 39.3784,14.3824 C39.3784,12.6944 40.0584,11.5344 41.4024,10.9104 C42.7464,10.2704 44.8104,9.9504 47.5944,9.9504"/>
      <g transform="translate(0 30)">
        <mask id="fundamentals-b" fill="#fff">
          <use xlink:href="#fundamentals-a"/>
        </mask>
        <path fill="#EDF5F9" d="M27.2216,27.2504 C33.4536,21.0264 33.4536,10.9304 27.2216,4.6984 C20.9976,-1.5336 10.9016,-1.5336 4.6776,4.6984 C-1.5624,10.9304 -1.5624,21.0264 4.6776,27.2504 C10.9016,33.4744 20.9976,33.4744 27.2216,27.2504" mask="url(#fundamentals-b)"/>
      </g>
      <g transform="translate(40 30)">
        <mask id="fundamentals-d" fill="#fff">
          <use xlink:href="#fundamentals-c"/>
        </mask>
        <path fill="#62EFFF" d="M26.4712,32.0008 L6.3672,32.0008 C3.1112,32.0008 0.4712,29.3608 0.4712,26.1048 L0.4712,6.0008 C0.4712,2.7448 3.1112,0.1048 6.3672,0.1048 L26.4712,0.1048 C29.7272,0.1048 32.3672,2.7448 32.3672,6.0008 L32.3672,26.1048 C32.3672,29.3608 29.7272,32.0008 26.4712,32.0008" mask="url(#fundamentals-d)"/>
      </g>
      <path fill="#62EFFF" d="M4.6744,34.696 C-1.5576,40.928 -1.5576,51.024 4.6744,57.248 L27.2184,34.696 C20.9944,28.472 10.8984,28.472 4.6744,34.696"/>
      <path fill="#163648" d="M27.2216,57.2504 C33.4536,51.0264 33.4536,40.9304 27.2216,34.6984 L4.6776,57.2504 C10.9016,63.4744 20.9976,63.4824 27.2216,57.2504"/>
      <line x1="46.253" x2="46.253" y1="30.102" y2="61.998" stroke="#FFF" stroke-width=".8"/>
      <line x1="56.425" x2="56.425" y1="30.102" y2="61.998" stroke="#FFF" stroke-width=".8"/>
      <line x1="51.338" x2="51.338" y1="30.102" y2="61.998" stroke="#FFF" stroke-width=".8"/>
      <line x1="61.51" x2="61.51" y1="30.102" y2="61.998" stroke="#FFF" stroke-width=".8"/>
      <line x1="66.589" x2="66.589" y1="30.102" y2="61.998" stroke="#FFF" stroke-width=".8"/>
    </g>
  </g>
</svg>
