<svg width="32" height="40" viewBox="0 0 32 40" fill="none" xmlns="http://www.w3.org/2000/svg">
<rect width="32" height="40" fill="white" fill-opacity="0.01"/>
<path fill-rule="evenodd" clip-rule="evenodd" d="M16.7539 8.70566C17.7832 7.46015 18.476 5.72387 18.2864 4C16.8017 4.05847 15.0087 4.98684 13.9439 6.23236C12.9908 7.33613 12.1563 9.10076 12.3813 10.7927C14.0343 10.9203 15.7245 9.95118 16.7539 8.70566" fill="#0066FF"/>
<path d="M19.4029 20.0039C19.4401 23.8787 22.801 25.1649 22.8365 25.1826C22.8099 25.273 22.3014 27.0181 21.0665 28.8235C20 30.3808 18.8926 31.9329 17.1511 31.9665C15.436 31.9984 14.885 30.9513 12.9255 30.9513C10.966 30.9513 10.3548 31.9329 8.73365 31.9984C7.04876 32.0622 5.76781 30.3117 4.69238 28.7579C2.49369 25.5813 0.815877 19.7807 3.06949 15.8652C4.19099 13.9199 6.19302 12.6885 8.36691 12.6584C10.0181 12.6265 11.579 13.7693 12.5889 13.7693C13.6005 13.7693 15.4945 12.3944 17.4877 12.5946C18.3239 12.6301 20.6644 12.933 22.1703 15.1353C22.0481 15.2097 19.3728 16.767 19.4029 20.0039" stroke="#031A34" stroke-width="2.49036" stroke-linecap="round" stroke-linejoin="round"/>
</svg>
