<svg width="40" height="40" viewBox="0 0 40 40" fill="none" xmlns="http://www.w3.org/2000/svg">
<path d="M19.1881 19.5C19.1881 29.1655 31.4657 37 22.2692 37C13.0727 37 6 29.1655 6 19.5C6 9.83455 13.4544 2 22.6509 2C31.8473 2 19.1881 9.83455 19.1881 19.5Z" fill="#C6C6C6"/>
<path d="M19.4052 18.0335H15.4824V14.4364L19.4074 13.7349V10.5573C19.4074 9.15649 19.556 7.96546 19.851 6.98423C20.146 6.003 20.6377 5.17037 21.3217 4.48417C21.9752 3.83074 22.8865 3.31718 24.0556 2.94348C25.2226 2.56978 26.5863 2.38184 28.1423 2.38184C29.7311 2.38184 31.3504 2.55448 33.0004 2.8954V7.65952C31.7547 7.47376 30.7123 7.37979 29.8709 7.37979C29.0601 7.37979 28.4155 7.44316 27.9325 7.56554C27.4495 7.69011 27.0518 7.90865 26.7415 8.21897C26.5229 8.43751 26.359 8.74783 26.2519 9.15431C26.1427 9.5586 26.088 10.1508 26.088 10.9288V13.6846H31.5078V18.0291H26.088V36.5764H19.4052V18.0335Z" fill="#0066FF"/>
</svg>
