<svg width="128" height="128" viewBox="0 0 128 128" fill="none" xmlns="http://www.w3.org/2000/svg">
<path fill-rule="evenodd" clip-rule="evenodd" d="M0 104C0 117.255 10.7452 128 24 128H104C117.255 128 128 117.255 128 104V24C128 10.7452 117.255 0 104 0H24C10.7452 0 0 10.7452 0 24V104Z" fill="white"/>
<path d="M66.8767 42.9452H64.3242V57.0779H66.8767V42.9452ZM77.3462 61.2607H68.5069V58.7082H77.3462V61.2607ZM31.8592 61.5377C28.6349 61.5377 26.0102 58.9147 26.0102 55.6887H28.5629C28.5629 57.5057 30.0407 58.9852 31.8594 58.9852C32.8704 58.9852 33.9024 58.5199 34.5529 57.7712C34.9002 57.3714 35.2887 56.7177 35.1689 55.8674C34.9282 54.1634 33.7042 53.7374 31.5579 53.1279C29.4722 52.5364 26.8754 51.8009 26.3904 48.7142C26.1562 47.2232 26.5707 45.7684 27.5569 44.6149C28.6154 43.3779 30.1832 42.6684 31.8594 42.6684C35.0837 42.6684 37.7084 45.2914 37.7084 48.5174H35.1559C35.1559 46.7004 33.6782 45.2209 31.8594 45.2209C30.9304 45.2209 30.0702 45.6044 29.4969 46.2744C29.0037 46.8512 28.7957 47.5769 28.9119 48.3192C29.1217 49.6577 30.0442 50.0459 32.2527 50.6737C34.3449 51.2667 37.2104 52.0794 37.6954 55.5119C37.8937 56.9177 37.4612 58.3152 36.4797 59.4474C35.3407 60.7562 33.6139 61.5377 31.8592 61.5377ZM98.6027 61.2607H95.8484L94.1084 56.9549H87.7482L88.7787 54.4022H93.0762L89.6634 45.9547L83.4802 61.2622H80.7259L88.1267 42.9464H91.2019L98.6027 61.2607ZM114.162 61.2607L109.604 54.2679H107.696V51.7302H110.984C112.711 51.7302 114.11 50.3309 114.11 48.6042C114.11 46.8774 112.711 45.4782 110.984 45.4782H105.397V50.6112V51.7287V54.2814V56.0394V61.2594H102.844V45.4767V42.9422H110.984V42.9389C114.112 42.9389 116.648 45.4752 116.648 48.6029C116.648 51.1997 114.9 53.3872 112.516 54.0554L117.212 61.2594L114.162 61.2607Z" fill="#019DF4"/>
<path d="M50.8942 61.5377C45.6922 61.5377 41.4587 57.3057 41.4587 52.1022C41.4587 46.8987 45.6907 42.6667 50.8942 42.6667C56.0962 42.6667 60.3297 46.8987 60.3297 52.1022C60.3297 57.3057 56.0959 61.5377 50.8942 61.5377ZM50.8942 45.2207C47.0997 45.2207 44.0112 48.3074 44.0112 52.1037C44.0112 55.8999 47.0979 58.9867 50.8942 58.9867C54.6887 58.9867 57.7772 55.8999 57.7772 52.1037C57.7769 48.3074 54.6887 45.2207 50.8942 45.2207ZM32.6392 75.0704C34.3939 75.4244 35.7194 76.9792 35.7194 78.8354C35.7194 80.0527 35.1492 81.1357 34.2644 81.8402H37.5952C38.0704 80.9424 38.3407 79.9199 38.3407 78.8354C38.3407 76.1222 36.6597 73.7989 34.2857 72.8422L32.6392 75.0704ZM29.4899 81.8402C28.6052 81.1357 28.0349 80.0509 28.0349 78.8354C28.0349 78.0654 28.2609 77.3232 28.6902 76.6874C28.7362 76.6202 28.7884 76.5597 28.8377 76.4957L28.8262 76.5007L32.3192 71.7707L36.0219 66.7572H32.7632L26.7569 74.8902C26.7519 74.8967 26.7487 74.9017 26.7439 74.9082L26.7342 74.9212C26.6604 75.0179 26.5884 75.1177 26.5194 75.2194C25.7969 76.2894 25.4152 77.5394 25.4152 78.8337C25.4152 79.9182 25.6872 80.9407 26.1607 81.8384L29.4899 81.8402ZM47.4779 81.8402C45.4184 80.6539 44.0259 78.4339 44.0259 75.8912C44.0259 72.1049 47.1062 69.0229 50.8942 69.0229C54.6804 69.0229 57.7624 72.1032 57.7624 75.8912C57.7624 78.4339 56.3697 80.6539 54.3104 81.8402H58.2082C59.5319 80.2164 60.3282 78.1439 60.3282 75.8912C60.3282 70.6892 56.0962 66.4589 50.8942 66.4589C45.6922 66.4589 41.4619 70.6909 41.4619 75.8912C41.4619 78.1457 42.2582 80.2167 43.5819 81.8402H47.4779ZM21.6094 79.8217C21.6077 77.9917 20.7034 76.3697 19.3222 75.3719C20.3249 74.4332 20.9557 73.1012 20.9557 71.6232C20.9557 68.7854 18.6472 66.4787 15.8112 66.4787C12.9752 66.4787 10.6667 68.7872 10.6667 71.6232H13.1047C13.1047 70.1307 14.3187 68.9149 15.8129 68.9149C17.3072 68.9149 18.5212 70.1289 18.5212 71.6232C18.5212 73.1157 17.3072 74.3314 15.8129 74.3314H14.0057V76.7677H16.1192C17.8034 76.7677 19.1747 78.1374 19.1747 79.8217C19.1747 80.5967 18.8814 81.3027 18.4029 81.8419H21.2209C21.4684 81.2144 21.6094 80.5344 21.6094 79.8217Z" fill="#FF8200"/>
<path d="M99.0812 67.9841C98.0432 68.0006 96.1272 68.5124 95.2519 72.0869C94.8707 73.6444 94.7235 75.2676 95.0497 77.1999C95.3507 78.9821 95.8839 80.5204 96.2432 81.3681C96.3669 81.6604 96.5589 81.9649 96.7072 82.1524C97.1337 82.6916 97.8437 82.6571 98.1419 82.5101C98.4672 82.3501 98.8409 81.9636 98.7054 81.0809C98.6402 80.6546 98.4514 80.0309 98.3454 79.6841C98.0197 78.6201 97.5862 77.3364 97.5484 76.4219C97.4979 75.1986 97.9802 75.0386 98.3004 74.9681C98.8389 74.8496 99.2907 75.4409 99.7197 76.1824C100.231 77.0669 101.109 78.6346 101.825 79.8319C102.471 80.9126 103.663 82.0699 105.578 81.9904C107.531 81.9096 108.97 81.1646 109.711 78.8196C110.266 77.0651 110.644 75.7544 111.252 74.4116C111.952 72.8676 112.885 72.0414 113.671 72.2939C114.401 72.5281 114.583 73.2414 114.592 74.2899C114.599 75.2174 114.492 76.2396 114.409 76.9906C114.378 77.2631 114.324 77.8114 114.346 78.1159C114.39 78.7141 114.649 79.3121 115.323 79.4076C116.041 79.5096 116.617 78.9359 116.847 78.2424C116.937 77.9689 117.015 77.5506 117.057 77.2539C117.268 75.7554 117.322 74.7481 117.227 73.2149C117.116 71.4219 116.765 69.7869 116.153 68.3719C115.567 67.0187 114.627 66.1514 113.42 66.0749C112.085 65.9901 110.553 66.8761 109.749 68.5951C109.008 70.1796 108.415 71.8061 108.055 72.6364C107.69 73.4784 107.154 73.9971 106.33 74.0839C105.323 74.1899 104.455 73.4584 103.819 72.4156C103.264 71.5064 102.165 69.7756 101.578 69.1939C101.025 68.6474 100.394 67.9634 99.0812 67.9841Z" fill="#019DF4"/>
<path d="M69.429 75.5132C69.4587 75.2179 69.5047 74.9174 69.567 74.6114L69.5697 74.6007C69.5615 74.6007 69.5535 74.6034 69.5455 74.6034C69.096 74.6494 68.3862 74.7009 67.861 74.7687C66.943 74.8907 66.106 75.0124 66.0357 75.0937C65.8462 75.3184 67.1055 75.4837 69.0257 75.5079C69.1555 75.5104 69.291 75.5132 69.429 75.5132Z" fill="url(#paint0_linear_5_3181)"/>
<path d="M79.0867 66.7491C76.0614 66.7491 73.0744 68.4634 71.2299 70.9714C71.2299 70.9714 66.9347 71.2801 66.7099 71.6619C66.0329 72.9591 66.0167 75.1312 66.0167 75.1312L66.0194 75.1229C66.0222 75.1147 66.0277 75.1039 66.0357 75.0959C66.1062 75.0119 66.9429 74.8902 67.8609 74.7709C68.3864 74.7032 69.0959 74.6492 69.5454 74.6057C69.5537 74.6057 69.5617 74.6029 69.5697 74.6029C71.0619 74.4567 73.9057 74.2509 75.5332 74.2074C79.5197 74.0964 82.9564 74.1289 85.3399 74.2372C86.0307 70.0667 83.3007 66.7491 79.0867 66.7491Z" fill="url(#paint1_linear_5_3181)"/>
<path d="M85.3427 74.2346C82.9594 74.1264 79.5227 74.0939 75.5359 74.2049C73.9082 74.2481 71.0619 74.4541 69.5724 74.6004C69.5372 74.7656 69.4832 75.0391 69.4424 75.3994C69.4424 75.4076 69.4424 75.4129 69.4397 75.4211C69.4262 75.5431 69.4152 75.6676 69.4072 75.7866C69.4072 75.7946 69.4072 75.8029 69.4044 75.8109C69.3962 75.9301 69.3937 76.0464 69.3937 76.1629C69.3937 76.2359 69.3937 76.3091 69.3964 76.3821C69.3964 76.4444 69.3964 76.5041 69.3992 76.5636C69.4047 76.6936 69.4127 76.8209 69.4262 76.9481C69.4289 76.9834 69.4369 77.0211 69.4397 77.0564C69.4504 77.1539 69.4642 77.2541 69.4802 77.3516C69.4884 77.3924 69.4937 77.4301 69.5019 77.4681C69.5182 77.5629 69.5372 77.6549 69.5587 77.7471C69.5669 77.7851 69.5749 77.8201 69.5857 77.8554C69.6102 77.9501 69.6344 78.0449 69.6614 78.1371C69.6669 78.1534 69.6697 78.1696 69.6749 78.1859C71.1754 78.0369 73.0197 77.8989 75.1972 77.8121C75.2242 77.8121 76.1532 77.7769 76.1614 77.7769C78.1792 77.7119 82.7127 77.7499 83.9397 77.7606C84.1347 77.7634 84.2539 77.7634 84.2539 77.7634C85.2857 77.7796 85.7057 77.7876 86.7779 77.8446C87.2734 77.8716 88.0942 77.9016 88.1374 78.0099C88.1374 78.0126 88.1374 78.0099 88.1374 78.0126C88.1374 78.0154 88.1347 78.0181 88.1347 78.0209C88.8144 76.7669 88.8227 74.6869 88.8227 74.6869C88.8582 74.5109 87.5582 74.3349 85.3427 74.2346Z" fill="url(#paint2_linear_5_3181)"/>
<path d="M84.1864 70.7627C84.4139 70.7627 84.8119 70.7627 85.0829 70.7627C84.2462 68.3687 82.0279 66.7489 79.0869 66.7489C76.0617 66.7489 73.0747 68.4631 71.2302 70.9712C72.5572 70.8467 74.2879 70.7492 75.9859 70.7194C76.3164 70.7139 76.9554 70.5787 77.3102 70.0476C77.9737 69.0619 78.6292 68.0624 79.5607 67.7321C79.5769 67.7266 79.5932 67.7187 79.6094 67.7132C81.0259 67.1717 82.8944 68.4852 84.1864 70.7627Z" fill="url(#paint3_linear_5_3181)"/>
<path d="M83.9344 77.7609C82.7077 77.7502 78.1712 77.7122 76.1562 77.7772C76.1482 77.7772 75.2192 77.8124 75.1919 77.8124C73.0172 77.9017 71.1729 78.0399 69.6724 78.1862C70.4362 80.7211 72.7057 82.4571 75.7524 82.4571C78.9622 82.4571 82.1307 80.5234 83.9344 77.7609Z" fill="#E4002B"/>
<path d="M83.9344 77.7609C82.1307 80.5234 78.9594 82.4571 75.7499 82.4571C74.3037 82.4571 73.0309 82.0644 72.0124 81.3819C70.8884 80.6264 70.0707 79.5159 69.6697 78.1862C71.1702 78.0399 73.0144 77.8992 75.1892 77.8124C75.2162 77.8124 76.1452 77.7772 76.1534 77.7772C78.1739 77.7122 82.7077 77.7502 83.9344 77.7609Z" fill="url(#paint4_linear_5_3181)"/>
<path d="M83.9344 77.7609C83.6312 77.7581 83.1219 77.7526 82.4989 77.7501C81.0527 77.7419 78.9457 77.7339 77.4427 77.7529C77.1122 78.0236 76.7332 78.4219 76.5597 78.7821C75.3897 80.7591 74.9834 82.6956 71.3707 79.7381C71.3707 79.7381 70.7939 79.6866 70.4039 79.7599C70.8019 80.3639 71.3057 80.8866 71.9044 81.3064C71.9477 81.3361 71.9857 81.3606 72.0182 81.3821C72.0859 81.4254 72.1509 81.4714 72.2212 81.5149C73.2042 82.1161 74.4014 82.4574 75.7527 82.4574C78.9622 82.4571 82.1307 80.5234 83.9344 77.7609Z" fill="url(#paint5_linear_5_3181)"/>
<path d="M88.1377 78.0101C88.0944 77.9019 87.2737 77.8719 86.7782 77.8449C85.7057 77.7879 85.2832 77.7799 84.2542 77.7636C84.2542 77.7636 84.1324 77.7636 83.9347 77.7609C83.9347 77.7609 83.9347 77.7609 83.9319 77.7609H83.9347C83.7559 78.0344 83.5637 78.2999 83.3604 78.5571C86.1932 78.4704 88.0592 78.2729 88.1379 78.0154C88.1377 78.0101 88.1377 78.0154 88.1377 78.0101Z" fill="url(#paint6_linear_5_3181)"/>
<defs>
<linearGradient id="paint0_linear_5_3181" x1="67.771" y1="74.7445" x2="67.9524" y2="75.7735" gradientUnits="userSpaceOnUse">
<stop stop-color="#D85B13"/>
<stop offset="0.269" stop-color="#E57B0C"/>
<stop offset="0.5447" stop-color="#EF9407"/>
<stop offset="0.7964" stop-color="#F5A304"/>
<stop offset="1" stop-color="#F7A803"/>
</linearGradient>
<linearGradient id="paint1_linear_5_3181" x1="70.6944" y1="67.6729" x2="81.2995" y2="78.278" gradientUnits="userSpaceOnUse">
<stop stop-color="#FDCC54"/>
<stop offset="0.0154" stop-color="#FCC94D"/>
<stop offset="0.1364" stop-color="#F7B01C"/>
<stop offset="0.1963" stop-color="#F5A709"/>
<stop offset="0.4906" stop-color="#F5A509"/>
<stop offset="0.6479" stop-color="#F39D09"/>
<stop offset="0.7728" stop-color="#F28F0A"/>
<stop offset="0.8806" stop-color="#EF7C0A"/>
<stop offset="0.9766" stop-color="#EB630B"/>
<stop offset="1" stop-color="#EA5C0B"/>
</linearGradient>
<linearGradient id="paint2_linear_5_3181" x1="70.1233" y1="73.0872" x2="87.6505" y2="79.4665" gradientUnits="userSpaceOnUse">
<stop stop-color="#A7A5A4"/>
<stop offset="0.0516" stop-color="#C5C4C3"/>
<stop offset="0.1074" stop-color="#DFDEDD"/>
<stop offset="0.1648" stop-color="#F1F0F0"/>
<stop offset="0.2241" stop-color="#FBFBFB"/>
<stop offset="0.2883" stop-color="white"/>
<stop offset="0.5148" stop-color="#FDFDFC"/>
<stop offset="0.6495" stop-color="#F5F4F4"/>
<stop offset="0.7602" stop-color="#E7E6E6"/>
<stop offset="0.8578" stop-color="#D3D2D2"/>
<stop offset="0.9461" stop-color="#BAB9B8"/>
<stop offset="1" stop-color="#A7A5A4"/>
</linearGradient>
<linearGradient id="paint3_linear_5_3181" x1="72.4438" y1="67.6364" x2="84.6091" y2="72.0643" gradientUnits="userSpaceOnUse">
<stop offset="0.0859" stop-color="#FDCC54"/>
<stop offset="1" stop-color="#F1950A" stop-opacity="0.05"/>
</linearGradient>
<linearGradient id="paint4_linear_5_3181" x1="76.8023" y1="82.457" x2="76.8023" y2="77.7401" gradientUnits="userSpaceOnUse">
<stop stop-color="#88181E" stop-opacity="0.3"/>
<stop offset="0.4969" stop-color="#B21829" stop-opacity="0"/>
<stop offset="0.6534" stop-color="#AA1827" stop-opacity="0.3111"/>
<stop offset="0.8996" stop-color="#931821" stop-opacity="0.8004"/>
<stop offset="1" stop-color="#88181E"/>
</linearGradient>
<linearGradient id="paint5_linear_5_3181" x1="74.0461" y1="82.9242" x2="80.1091" y2="74.8783" gradientUnits="userSpaceOnUse">
<stop offset="0.0123" stop-color="#E20334" stop-opacity="0"/>
<stop offset="0.0489" stop-color="#DA0531" stop-opacity="0.041"/>
<stop offset="0.2059" stop-color="#BB0E28" stop-opacity="0.2166"/>
<stop offset="0.3591" stop-color="#A51421" stop-opacity="0.388"/>
<stop offset="0.5056" stop-color="#98181D" stop-opacity="0.5519"/>
<stop offset="0.638" stop-color="#93191C" stop-opacity="0.7"/>
<stop offset="1" stop-color="#95191D"/>
</linearGradient>
<linearGradient id="paint6_linear_5_3181" x1="85.7491" y1="78.5571" x2="85.7491" y2="77.7618" gradientUnits="userSpaceOnUse">
<stop offset="0.0061" stop-color="#D7D8D8"/>
<stop offset="0.1914" stop-color="#D0D1D1"/>
<stop offset="0.4642" stop-color="#BCBDBD"/>
<stop offset="0.7894" stop-color="#9C9D9D"/>
<stop offset="1" stop-color="#838484"/>
</linearGradient>
</defs>
</svg>
