<svg width="186" height="123" viewBox="0 0 186 123" fill="none" xmlns="http://www.w3.org/2000/svg">
<g clip-path="url(#clip0_1733_8009)">
<path d="M90.463 56.485C90.463 56.485 106.619 52.5335 113.169 69.0175L114.172 71.7746L125.193 102.052C127.955 109.642 133.62 115.824 140.94 119.237C148.261 122.651 156.638 123.016 164.228 120.253V120.253C180.032 114.499 188.181 97.0236 182.429 81.2182L160.498 20.9701C154.745 5.16414 137.269 -2.98639 121.463 2.76476V2.76476C112.758 5.93117 105.973 12.8943 103.032 21.6778L90.463 56.485Z" fill="white"/>
<path d="M126.608 117.205L126.557 117.242C126.302 117.032 124.673 115.613 121.662 111.598V111.598C120.29 109.381 119.15 107.028 118.259 104.577L107.246 74.2958L106.28 71.6456C104.205 66.4851 100.751 63.8091 95.7636 63.4773C93.134 63.3679 90.5003 63.4098 87.8755 63.6027L81.4618 81.2182C78.6988 88.8082 79.0642 97.185 82.4777 104.506C85.8913 111.826 92.0732 117.491 99.6634 120.253V120.253C108.626 123.521 118.603 122.393 126.608 117.205V117.205Z" fill="white"/>
<rect x="-7.74609" y="110.091" width="125.506" height="61.1439" rx="30.5719" transform="rotate(-70 -7.74609 110.091)" fill="white"/>
</g>
<defs>
<clipPath id="clip0_1733_8009">
<rect width="185.508" height="123" fill="white"/>
</clipPath>
</defs>
</svg>
