<svg width="884" height="205" viewBox="0 0 884 205" fill="none" xmlns="http://www.w3.org/2000/svg">
<path d="M284.86 137.324V110.5C284.86 103.896 281.408 97.904 274.6 97.904C267.896 97.904 263.932 103.904 263.932 110.5V137.324H251.532V87.132H263.016L263.928 93.228C266.572 88.152 272.36 86.32 277.128 86.32C283.128 86.32 289.128 88.76 291.96 95.668C296.432 88.556 302.224 86.524 308.724 86.524C322.948 86.524 329.96 95.26 329.96 110.3V137.324H317.56V110.3C317.56 103.696 314.816 98.108 308.112 98.108C301.408 98.108 297.24 103.896 297.24 110.508V137.332L284.86 137.324ZM340.8 137.324V88.964H353.804V137.324H340.8ZM358.68 66.408H345.372L341.104 80.836V81.444H351.16L358.68 66.916V66.408ZM396.184 100.544C392.628 97.192 388.584 96.076 383.784 96.076C377.892 96.076 374.64 97.904 374.64 101.052C374.64 104.304 377.588 106.132 383.988 106.54C393.436 107.148 405.424 109.284 405.424 122.592C405.424 131.432 398.224 139.052 383.888 139.052C375.96 139.052 368.036 137.732 360.72 130.112L366.816 121.272C370.372 125.232 378.5 128.18 384.088 128.28C388.764 128.384 393.132 125.944 393.132 122.28C393.132 118.824 390.288 117.404 383.176 116.996C373.728 116.284 362.448 112.832 362.448 101.452C362.448 89.852 374.448 85.804 383.58 85.804C391.404 85.804 397.296 87.328 403.088 92.408L396.184 100.544ZM429.896 73.112V87.336H443.712V98.004H429.792V119.644C429.792 124.42 432.436 126.756 436.296 126.756C438.384 126.698 440.433 126.177 442.296 125.232L445.752 135.8C442.499 137.159 439.017 137.882 435.492 137.932C424.62 138.332 417.492 132.144 417.492 119.644V98.004H408.144V87.336H417.492V74.432L429.896 73.112ZM516.852 130.924C511.06 136.612 504.964 138.848 497.548 138.848C483.02 138.848 470.928 130.112 470.928 112.332C470.928 94.552 483.02 85.812 497.548 85.812C504.66 85.812 510.148 87.844 515.632 93.228L507.808 101.46C505.055 98.9512 501.476 97.5406 497.752 97.496C489.42 97.496 483.324 103.592 483.324 112.332C483.324 121.88 489.828 126.96 497.548 126.96C501.512 126.96 505.472 125.844 508.52 122.796L516.852 130.924ZM560.172 87.236H572.06V137.324H560.376L559.768 130.008C556.92 135.9 549.1 138.748 543.512 138.848C528.676 138.948 517.704 129.804 517.704 112.228C517.704 94.956 529.184 85.916 543.816 86.016C550.52 86.016 556.92 89.168 559.768 94.144L560.172 87.236ZM530.1 112.228C530.1 121.78 536.704 127.468 544.932 127.468C564.44 127.468 564.44 97.092 544.932 97.092C536.704 97.092 530.1 102.68 530.1 112.228Z" fill="#031A34"/>
<g clip-path="url(#clip0_21_220)">
<path d="M54.6467 73.6863L39.2979 115.924C35.2713 127.004 40.9754 139.256 52.0382 143.289C63.1011 147.322 75.3335 141.609 79.36 130.529L94.7089 88.2909C98.7354 77.2104 93.0314 64.9586 81.9685 60.9256C70.9056 56.8927 58.6732 62.6058 54.6467 73.6863Z" fill="#0066FF"/>
<path d="M100.347 98.5859C100.347 98.5859 111.656 95.816 116.238 107.372L116.948 109.313L124.658 130.537C128.687 141.613 140.916 147.323 151.976 143.292C157.289 141.356 161.616 137.385 164.005 132.253C166.394 127.122 166.65 121.249 164.716 115.928L149.367 73.688C147.436 68.3655 143.472 64.0297 138.348 61.6346C133.224 59.2396 127.361 58.9816 122.047 60.9173C115.949 63.1328 111.193 68.0142 109.132 74.1746L100.347 98.5859Z" fill="#D1D5E4"/>
<path d="M124.658 130.529L116.948 109.313L116.243 107.379C111.661 95.8237 100.352 98.5936 100.352 98.5936L94.0478 115.926C92.1131 121.247 92.3685 127.12 94.7579 132.252C97.1472 137.385 101.475 141.356 106.788 143.292C114.683 146.173 123.53 144.14 129.382 138.1C127.29 135.939 125.68 133.359 124.658 130.529Z" fill="#D1D5E4"/>
<path d="M124.658 130.529L116.948 109.313L116.243 107.379C111.661 95.8237 100.352 98.5936 100.352 98.5936L94.0478 115.926C92.1131 121.247 92.3685 127.12 94.7579 132.252C97.1472 137.385 101.475 141.356 106.788 143.292C114.683 146.173 123.53 144.14 129.382 138.1C127.29 135.939 125.68 133.359 124.658 130.529Z" fill="url(#paint0_linear_21_220)" fill-opacity="0.4"/>
</g>
<path d="M451.312 87.032V137.324H463.712V87.032H451.312Z" fill="#031A34"/>
<path d="M464.9 73.084C464.9 83.116 449.7 83.116 449.7 73.084C449.7 63.052 464.9 63.048 464.9 73.084Z" fill="#031A34"/>
<path d="M610.438 140.02C618.088 140.02 623.494 136.246 627.574 130.432H628.084L629.002 139H634.102V67.6H628.084V96.568H627.574C623.494 90.754 618.088 86.98 610.438 86.98C597.382 86.98 587.386 97.588 587.386 113.5C587.386 129.412 597.382 140.02 610.438 140.02ZM610.744 134.308C601.462 134.308 593.404 126.25 593.404 113.5C593.404 100.75 601.462 92.692 610.744 92.692C619.822 92.692 628.084 100.75 628.084 113.5C628.084 126.25 619.822 134.308 610.744 134.308ZM670.825 140.02C681.229 140.02 688.879 134.41 692.245 124.72H685.819C683.167 130.84 677.455 134.308 670.825 134.308C661.441 134.308 653.689 127.372 652.771 116.356H693.469C693.571 115.642 693.775 113.908 693.775 111.46C693.775 97.282 683.881 86.98 670.825 86.98C657.259 86.98 646.753 97.69 646.753 113.5C646.753 129.31 657.259 140.02 670.825 140.02ZM652.771 110.644C653.689 100.036 661.033 92.692 670.825 92.692C680.209 92.692 687.349 100.036 687.757 110.644H652.771ZM721.506 140.02C734.256 140.02 740.784 133.492 740.784 125.536C740.784 117.682 736.296 112.888 726.402 111.154L717.63 109.624C711 108.502 708.756 105.646 708.756 101.464C708.756 96.67 712.734 92.692 720.996 92.692C729.156 92.692 734.256 97.282 734.256 102.79H740.274C740.274 94.528 732.726 86.98 720.996 86.98C708.756 86.98 702.636 93.508 702.636 101.464C702.636 109.42 707.532 113.806 716.508 115.336L725.28 116.866C731.706 117.988 734.766 120.844 734.766 125.536C734.766 130.33 730.176 134.308 721.506 134.308C712.734 134.308 707.736 129.514 707.736 124.21H701.616C701.616 132.472 709.164 140.02 721.506 140.02ZM755.675 76.678C758.225 76.678 759.959 74.944 759.959 72.394C759.959 69.946 758.225 68.212 755.675 68.212C753.227 68.212 751.493 69.946 751.493 72.394C751.493 74.944 753.227 76.678 755.675 76.678ZM758.735 139V88H752.717V139H758.735ZM795.244 160.42C809.116 160.42 817.582 151.852 817.582 139V88H812.482L811.564 96.262H811.054C807.484 90.448 800.956 86.98 793.918 86.98C780.862 86.98 770.866 97.18 770.866 111.97C770.866 126.76 780.862 136.96 793.918 136.96C800.956 136.96 807.178 133.798 811.054 128.086H811.564V139C811.564 148.588 805.138 154.708 795.244 154.708C784.942 154.708 779.434 148.894 778.924 143.08H772.906C773.416 151.75 781.27 160.42 795.244 160.42ZM794.224 131.248C784.432 131.248 776.884 123.598 776.884 111.97C776.884 100.342 784.432 92.692 794.224 92.692C804.016 92.692 811.564 100.342 811.564 111.97C811.564 123.598 804.016 131.248 794.224 131.248ZM839.12 139V108.4C839.12 99.73 846.158 92.692 854.93 92.692C863.294 92.692 869.72 99.22 869.72 108.4V139H875.738V108.4C875.738 95.344 867.272 86.98 855.644 86.98C847.688 86.98 841.874 91.468 839.63 94.936H839.12L838.202 88H833.102V139H839.12Z" fill="#031A34"/>
<defs>
<linearGradient id="paint0_linear_21_220" x1="134.172" y1="83.737" x2="95.2373" y2="144.651" gradientUnits="userSpaceOnUse">
<stop/>
<stop offset="1" stop-opacity="0"/>
</linearGradient>
<clipPath id="clip0_21_220">
<rect width="129.447" height="85.8293" fill="white" transform="translate(37.5895 59.2057)"/>
</clipPath>
</defs>
</svg>
