<svg width="72" height="72" viewBox="0 0 72 72" fill="none" xmlns="http://www.w3.org/2000/svg">
<path d="M55.8 52.2003H18V63.0003H55.8V52.2003Z" fill="white"/>
<path d="M38.3805 36.431H34.6798V31.658H38.3805C40.3136 31.658 41.0868 32.8649 41.0868 34.017C41.0868 35.2789 40.3136 36.431 38.3805 36.431ZM34.7351 19.0947H37.4966C40.2029 19.0947 40.0373 23.0446 37.4966 23.0446H34.7351V19.0947ZM49.1503 26.2267C52.1327 25.1843 53.7342 22.3864 53.7895 19.369C53.9552 13.7182 49.4819 8.99998 43.8483 8.99998H18V19.0398H21.6454V36.7601H18V46.8H43.7377C50.3654 46.8 55.5022 42.3013 55.7784 35.8276C56.0545 30.89 53.6792 27.9274 49.1503 26.2267Z" fill="white"/>
</svg>
