<svg width="1566" height="458" viewBox="0 0 1566 458" fill="none" xmlns="http://www.w3.org/2000/svg">
<g clip-path="url(#clip0_1404_8681)">
<path d="M1566 -173H0V631H1566V-173Z" fill="#0D1117"/>
<path fill-rule="evenodd" clip-rule="evenodd" d="M202.22 -5.72314L-80.4456 769.919C-154.594 973.397 -379.862 1078.31 -583.594 1004.25C-787.325 930.186 -892.372 705.199 -818.218 501.725L-535.557 -273.917C-461.404 -477.391 -236.136 -582.307 -32.4046 -508.25V-508.245C171.327 -434.189 276.369 -209.197 202.22 -5.72314ZM362 183.649C362 183.649 569.341 133.035 653.386 344.138L666.279 379.486L807.705 767.241C881.541 969.674 1105.84 1074.05 1308.7 1000.37C1511.56 926.69 1616.16 702.854 1542.32 500.422L1260.87 -271.239C1187.03 -473.676 962.731 -578.051 759.869 -504.369C643.655 -462.161 559.696 -370.671 523.053 -262.162L362 183.649Z" stroke="#161B22" stroke-width="4"/>
<path d="M362.882 181.319L247.623 498.216C173.964 700.733 278.312 924.654 480.682 998.364C629.676 1052.63 790.252 1010.34 894 903.439" stroke="#161B22" stroke-width="4"/>
<path d="M616.86 261.324V234.5C616.86 227.896 613.408 221.904 606.6 221.904C599.896 221.904 595.932 227.904 595.932 234.5V261.324H583.532V211.132H595.016L595.928 217.228C598.572 212.152 604.36 210.32 609.128 210.32C615.128 210.32 621.128 212.76 623.96 219.668C628.432 212.556 634.224 210.524 640.724 210.524C654.948 210.524 661.96 219.26 661.96 234.3V261.324H649.56V234.3C649.56 227.696 646.816 222.108 640.112 222.108C633.408 222.108 629.24 227.896 629.24 234.508V261.332L616.86 261.324ZM672.8 261.324V212.964H685.804V261.324H672.8ZM690.68 190.408H677.372L673.104 204.836V205.444H683.16L690.68 190.916V190.408ZM728.184 224.544C724.628 221.192 720.584 220.076 715.784 220.076C709.892 220.076 706.64 221.904 706.64 225.052C706.64 228.304 709.588 230.132 715.988 230.54C725.436 231.148 737.424 233.284 737.424 246.592C737.424 255.432 730.224 263.052 715.888 263.052C707.96 263.052 700.036 261.732 692.72 254.112L698.816 245.272C702.372 249.232 710.5 252.18 716.088 252.28C720.764 252.384 725.132 249.944 725.132 246.28C725.132 242.824 722.288 241.404 715.176 240.996C705.728 240.284 694.448 236.832 694.448 225.452C694.448 213.852 706.448 209.804 715.58 209.804C723.404 209.804 729.296 211.328 735.088 216.408L728.184 224.544ZM761.896 197.112V211.336H775.712V222.004H761.792V243.644C761.792 248.42 764.436 250.756 768.296 250.756C770.384 250.698 772.433 250.177 774.296 249.232L777.752 259.8C774.499 261.159 771.017 261.882 767.492 261.932C756.62 262.332 749.492 256.144 749.492 243.644V222.004H740.144V211.336H749.492V198.432L761.896 197.112ZM848.852 254.924C843.06 260.612 836.964 262.848 829.548 262.848C815.02 262.848 802.928 254.112 802.928 236.332C802.928 218.552 815.02 209.812 829.548 209.812C836.66 209.812 842.148 211.844 847.632 217.228L839.808 225.46C837.055 222.951 833.476 221.541 829.752 221.496C821.42 221.496 815.324 227.592 815.324 236.332C815.324 245.88 821.828 250.96 829.548 250.96C833.512 250.96 837.472 249.844 840.52 246.796L848.852 254.924ZM892.172 211.236H904.06V261.324H892.376L891.768 254.008C888.92 259.9 881.1 262.748 875.512 262.848C860.676 262.948 849.704 253.804 849.704 236.228C849.704 218.956 861.184 209.916 875.816 210.016C882.52 210.016 888.92 213.168 891.768 218.144L892.172 211.236ZM862.1 236.228C862.1 245.78 868.704 251.468 876.932 251.468C896.44 251.468 896.44 221.092 876.932 221.092C868.704 221.092 862.1 226.68 862.1 236.228Z" fill="#D1D5E4"/>
<g clip-path="url(#clip1_1404_8681)">
<path d="M386.647 197.686L371.298 239.924C367.271 251.004 372.975 263.256 384.038 267.289C395.101 271.322 407.334 265.609 411.36 254.529L426.709 212.291C430.735 201.21 425.031 188.959 413.969 184.926C402.906 180.893 390.673 186.606 386.647 197.686Z" fill="#0066FF"/>
<path d="M432.347 222.586C432.347 222.586 443.656 219.816 448.238 231.372L448.948 233.313L456.658 254.537C460.687 265.613 472.916 271.323 483.976 267.292C489.289 265.356 493.616 261.385 496.005 256.253C498.394 251.122 498.65 245.249 496.716 239.928L481.367 197.688C479.436 192.366 475.472 188.03 470.348 185.635C465.224 183.24 459.361 182.982 454.047 184.917C447.949 187.133 443.193 192.014 441.132 198.175L432.347 222.586Z" fill="#D1D5E4"/>
<path d="M456.658 254.529L448.948 233.313L448.244 231.379C443.661 219.824 432.352 222.594 432.352 222.594L426.048 239.926C424.113 245.247 424.369 251.12 426.758 256.252C429.147 261.385 433.475 265.356 438.788 267.292C446.683 270.173 455.531 268.14 461.382 262.1C459.291 259.939 457.681 257.359 456.658 254.529Z" fill="#D1D5E4"/>
<path d="M456.658 254.529L448.948 233.313L448.244 231.379C443.661 219.824 432.352 222.594 432.352 222.594L426.048 239.926C424.113 245.247 424.369 251.12 426.758 256.252C429.147 261.385 433.475 265.356 438.788 267.292C446.683 270.173 455.531 268.14 461.382 262.1C459.291 259.939 457.681 257.359 456.658 254.529Z" fill="url(#paint0_linear_1404_8681)" fill-opacity="0.4"/>
</g>
<path d="M783.312 211.032V261.324H795.712V211.032H783.312Z" fill="#D1D5E4"/>
<path d="M796.9 197.084C796.9 207.116 781.7 207.116 781.7 197.084C781.7 187.052 796.9 187.048 796.9 197.084Z" fill="#D1D5E4"/>
<path d="M942.438 264.02C950.088 264.02 955.494 260.246 959.574 254.432H960.084L961.002 263H966.102V191.6H960.084V220.568H959.574C955.494 214.754 950.088 210.98 942.438 210.98C929.382 210.98 919.386 221.588 919.386 237.5C919.386 253.412 929.382 264.02 942.438 264.02ZM942.744 258.308C933.462 258.308 925.404 250.25 925.404 237.5C925.404 224.75 933.462 216.692 942.744 216.692C951.822 216.692 960.084 224.75 960.084 237.5C960.084 250.25 951.822 258.308 942.744 258.308ZM1002.83 264.02C1013.23 264.02 1020.88 258.41 1024.25 248.72H1017.82C1015.17 254.84 1009.46 258.308 1002.83 258.308C993.441 258.308 985.689 251.372 984.771 240.356H1025.47C1025.57 239.642 1025.78 237.908 1025.78 235.46C1025.78 221.282 1015.88 210.98 1002.83 210.98C989.259 210.98 978.753 221.69 978.753 237.5C978.753 253.31 989.259 264.02 1002.83 264.02ZM984.771 234.644C985.689 224.036 993.033 216.692 1002.83 216.692C1012.21 216.692 1019.35 224.036 1019.76 234.644H984.771ZM1053.51 264.02C1066.26 264.02 1072.78 257.492 1072.78 249.536C1072.78 241.682 1068.3 236.888 1058.4 235.154L1049.63 233.624C1043 232.502 1040.76 229.646 1040.76 225.464C1040.76 220.67 1044.73 216.692 1053 216.692C1061.16 216.692 1066.26 221.282 1066.26 226.79H1072.27C1072.27 218.528 1064.73 210.98 1053 210.98C1040.76 210.98 1034.64 217.508 1034.64 225.464C1034.64 233.42 1039.53 237.806 1048.51 239.336L1057.28 240.866C1063.71 241.988 1066.77 244.844 1066.77 249.536C1066.77 254.33 1062.18 258.308 1053.51 258.308C1044.73 258.308 1039.74 253.514 1039.74 248.21H1033.62C1033.62 256.472 1041.16 264.02 1053.51 264.02ZM1087.67 200.678C1090.22 200.678 1091.96 198.944 1091.96 196.394C1091.96 193.946 1090.22 192.212 1087.67 192.212C1085.23 192.212 1083.49 193.946 1083.49 196.394C1083.49 198.944 1085.23 200.678 1087.67 200.678ZM1090.73 263V212H1084.72V263H1090.73ZM1127.24 284.42C1141.12 284.42 1149.58 275.852 1149.58 263V212H1144.48L1143.56 220.262H1143.05C1139.48 214.448 1132.96 210.98 1125.92 210.98C1112.86 210.98 1102.87 221.18 1102.87 235.97C1102.87 250.76 1112.86 260.96 1125.92 260.96C1132.96 260.96 1139.18 257.798 1143.05 252.086H1143.56V263C1143.56 272.588 1137.14 278.708 1127.24 278.708C1116.94 278.708 1111.43 272.894 1110.92 267.08H1104.91C1105.42 275.75 1113.27 284.42 1127.24 284.42ZM1126.22 255.248C1116.43 255.248 1108.88 247.598 1108.88 235.97C1108.88 224.342 1116.43 216.692 1126.22 216.692C1136.02 216.692 1143.56 224.342 1143.56 235.97C1143.56 247.598 1136.02 255.248 1126.22 255.248ZM1171.12 263V232.4C1171.12 223.73 1178.16 216.692 1186.93 216.692C1195.29 216.692 1201.72 223.22 1201.72 232.4V263H1207.74V232.4C1207.74 219.344 1199.27 210.98 1187.64 210.98C1179.69 210.98 1173.87 215.468 1171.63 218.936H1171.12L1170.2 212H1165.1V263H1171.12Z" fill="#D1D5E4"/>
</g>
<defs>
<linearGradient id="paint0_linear_1404_8681" x1="466.172" y1="207.737" x2="427.237" y2="268.651" gradientUnits="userSpaceOnUse">
<stop/>
<stop offset="1" stop-opacity="0"/>
</linearGradient>
<clipPath id="clip0_1404_8681">
<rect width="1566" height="458" rx="24" fill="white"/>
</clipPath>
<clipPath id="clip1_1404_8681">
<rect width="129.447" height="85.8293" fill="white" transform="translate(369.59 183.206)"/>
</clipPath>
</defs>
</svg>
