<svg width="72" height="72" viewBox="0 0 72 72" fill="none" xmlns="http://www.w3.org/2000/svg">
<path d="M17.2797 17.2124C14.4995 17.2572 9.36782 18.6502 7.02384 28.3781C6.00256 32.6169 5.60793 37.0348 6.4823 42.2938C7.28828 47.1441 8.71635 51.3303 9.67886 53.6376C10.0107 54.4324 10.5244 55.2618 10.9215 55.7719C12.0639 57.2391 13.9651 57.1454 14.764 56.7454C15.6348 56.3099 16.6358 55.2582 16.2736 52.8562C16.0983 51.6959 15.5933 49.9981 15.3091 49.0545C14.4367 46.1588 13.2756 42.665 13.1743 40.176C13.039 36.8469 14.3308 36.4108 15.1885 36.2193C16.6312 35.8966 17.8405 37.5063 18.9894 39.5237C20.3607 41.9314 22.7108 46.1974 24.6277 49.456C26.3582 52.3975 29.5517 55.547 34.6804 55.3307C39.9089 55.1109 43.763 53.0837 45.7483 46.7014C47.2341 41.9268 48.2468 38.3588 49.8765 34.7048C51.7503 30.5032 54.2498 28.2541 56.3547 28.9408C58.3091 29.5781 58.7969 31.5194 58.8202 34.3728C58.841 36.8968 58.5538 39.6792 58.3304 41.7234C58.2493 42.4652 58.1024 43.9576 58.1622 44.7859C58.2802 46.4147 58.9742 48.0414 60.7792 48.3019C62.7017 48.5788 64.2443 47.0175 64.8603 45.1303C65.1034 44.3864 65.3106 43.2482 65.4226 42.4405C65.9874 38.3619 66.1338 35.6206 65.8795 31.4473C65.5811 26.5676 64.6414 22.1178 63.0021 18.2667C61.4337 14.5839 58.9145 12.2236 55.6835 12.0152C52.107 11.7845 48.0026 14.1958 45.8496 18.8742C43.8648 23.1865 42.2772 27.6137 41.3141 29.8731C40.3374 32.1644 38.9018 33.5764 36.6946 33.8127C33.996 34.101 31.6708 32.1103 29.9676 29.2718C28.4828 26.7977 25.5401 22.0869 23.9656 20.504C22.4864 19.0168 20.7969 17.1558 17.2797 17.2124Z" fill="white"/>
</svg>
