<svg width="72" height="72" viewBox="0 0 72 72" fill="none" xmlns="http://www.w3.org/2000/svg">
<path d="M64.6464 48.1006C65.5273 48.3195 66.3797 48.7245 67.0163 49.3673C67.555 49.8827 67.9234 50.5498 68.1381 51.2513C68.3932 52.1193 68.4578 53.041 68.3406 53.9362C68.2286 54.7439 67.9502 55.5225 67.5851 56.2534C66.899 57.5977 65.9414 58.7894 64.9183 59.9048C63.8168 61.0986 62.6299 62.214 61.4443 63.3282C63.8331 63.3206 66.222 63.3277 68.6108 63.3244C68.7406 63.3231 68.8729 63.3164 69 63.35V66.1657C68.9276 66.1745 68.8561 66.1842 68.7849 66.1871L56.6515 66.1867V63.1533C56.9278 62.8849 57.223 62.6363 57.5061 62.3746C58.7357 61.2827 59.9476 60.1703 61.0896 58.9907C62.1882 57.8313 63.2582 56.619 64.0232 55.2198C64.3697 54.5627 64.6602 53.8473 64.655 53.098C64.6516 52.5621 64.4529 52.0229 64.0723 51.6312C63.578 51.11 62.8587 50.8467 62.1481 50.7612C61.1887 50.6609 60.2199 50.8551 59.327 51.1914C58.6379 51.4459 57.9983 51.8057 57.3725 52.1793C57.2747 51.1712 57.173 50.1636 57.0791 49.1552C58.6163 48.4104 60.3087 47.9609 62.0261 47.8825C62.9031 47.8314 63.7918 47.8951 64.6464 48.1006ZM44.5216 15.948C46.2174 16.5778 47.8288 17.4273 49.2842 18.4844C51.7084 20.233 53.6818 22.5548 55.0432 25.1726C56.3106 27.5866 57.064 30.2405 57.3669 32.9308C57.5113 34.2802 57.5716 35.6405 57.4945 36.9961C57.3885 39.1498 56.97 41.2896 56.2443 43.3275C55.1022 46.5373 53.168 49.4902 50.5956 51.7935C48.1348 54.0138 45.0922 55.611 41.841 56.4165C39.4569 57.0111 36.9711 57.1965 34.5189 57.017C32.0275 56.8354 29.5623 56.2463 27.2864 55.2382C24.6566 54.0788 22.2902 52.3617 20.3927 50.245C18.0655 47.662 16.445 44.5003 15.6352 41.1617C15.2392 39.5414 15.0384 37.8792 15 36.2154V35.347C15.0353 33.9565 15.1603 32.5664 15.4189 31.1974C16.0352 27.8906 17.3992 24.692 19.5312 22.0352C21.1736 19.9734 23.2664 18.2546 25.6285 17.0202C28.6633 15.4238 32.1089 14.6355 35.5471 14.5512C38.5915 14.4594 41.6699 14.8883 44.5216 15.948ZM35.3058 20.6561C34.0556 20.7555 32.817 21.031 31.6603 21.5069C30.4359 22.0055 29.3042 22.7141 28.3199 23.58C27.0856 24.6598 26.078 25.9726 25.3009 27.3971C24.1179 29.5696 23.456 31.9949 23.2715 34.4421C23.1655 35.8799 23.2284 37.3287 23.4426 38.7552C23.7215 40.5809 24.2533 42.3769 25.0885 44.0369C25.797 45.448 26.7296 46.7608 27.8988 47.8477C29.1348 49.0097 30.6453 49.8936 32.2813 50.4072C33.7802 50.8798 35.3705 51.0543 36.9413 50.9884C38.4027 50.9209 39.8611 50.6345 41.2092 50.0735C43.2433 49.2407 44.9767 47.7907 46.2355 46.0371C47.8603 43.7816 48.7769 41.0967 49.1372 38.3786C49.613 34.8312 49.0941 31.1332 47.4931 27.8998C46.776 26.4704 45.8494 25.1281 44.6828 24.0085C43.4299 22.7707 41.8862 21.8075 40.1968 21.241C38.632 20.7114 36.9543 20.5387 35.3058 20.6561Z" fill="white"/>
</svg>
