<svg width="111" height="157" viewBox="0 0 111 157" fill="none" xmlns="http://www.w3.org/2000/svg">
<mask id="mask0_2277_12706" style="mask-type:alpha" maskUnits="userSpaceOnUse" x="0" y="0" width="62" height="157">
<path d="M0.210449 31.1694L0.210449 125.004C0.210449 142.123 13.8611 156.015 30.7001 156.033C47.5391 156.05 61.1898 142.187 61.1898 125.067L61.1898 31.2327C61.1898 14.1134 47.5391 0.221272 30.7001 0.203789C13.8611 0.186307 0.210449 14.0501 0.210449 31.1694Z" fill="#D1D5E4"/>
</mask>
<g mask="url(#mask0_2277_12706)">
<path d="M0.210938 31.1694L0.210938 117.004C0.210938 134.123 13.8616 148.015 30.7006 148.033C47.5396 148.05 61.1903 134.186 61.1903 117.067L61.1903 31.2327C61.1903 14.1133 47.5396 0.221211 30.7006 0.203728C13.8616 0.186246 0.210938 14.05 0.210938 31.1694Z" fill="#D1D5E4"/>
<path d="M35.4359 33.1433L46.7734 63.1722L49.3641 64.1267C64.8494 70.3377 61.1376 85.6648 61.1376 85.6648L61.1376 111.135C54.007 113.758 8.11634 104.848 1.23853 101.61C-5.63928 98.3711 -2.96825 85.327 -2.96825 76.6045C-2.96825 66.4186 -5.02038 -12.6993 1.23853 -10.9133C4.06976 -1.31629 31.6439 31.7576 35.4359 33.1433Z" fill="url(#paint0_linear_2277_12706)" fill-opacity="0.4"/>
</g>
<path d="M61 86.0645C61 86.0645 62 71.0645 48.6228 65.2765L46.0868 64.3486L18.3551 54.2622C3.88293 48.992 -3.57764 32.9947 1.68911 18.5264C4.21892 11.5766 9.40725 5.91627 16.1125 2.79072C22.8177 -0.33483 33.5479 -0.965406 40.5 1.56446L92.6336 21.9389C99.588 24.4658 105.253 29.651 108.383 36.3536C111.512 43.0562 111.849 50.727 109.32 57.6781C106.425 65.6553 100.047 71.8761 91.9979 74.5728L61 86.0645Z" fill="#D1D5E4"/>
<defs>
<linearGradient id="paint0_linear_2277_12706" x1="34.5565" y1="12.6034" x2="16.0952" y2="78.0124" gradientUnits="userSpaceOnUse">
<stop/>
<stop offset="1" stop-opacity="0"/>
</linearGradient>
</defs>
</svg>
