<svg width="72" height="72" viewBox="0 0 72 72" fill="none" xmlns="http://www.w3.org/2000/svg">
<path d="M20.4652 19.2599C24.1268 19.2599 27.0951 16.2916 27.0951 12.63C27.0951 8.96835 24.1268 6.00002 20.4652 6.00002C16.8035 6.00002 13.8352 8.96835 13.8352 12.63C13.8352 16.2916 16.8035 19.2599 20.4652 19.2599Z" fill="white"/>
<path d="M36.0447 19.2599C39.7063 19.2599 42.6746 16.2916 42.6746 12.63C42.6746 8.96835 39.7063 6.00002 36.0447 6.00002C32.383 6.00002 29.4147 8.96835 29.4147 12.63C29.4147 16.2916 32.383 19.2599 36.0447 19.2599Z" fill="white"/>
<path d="M51.6241 19.2599C55.2858 19.2599 58.2541 16.2916 58.2541 12.63C58.2541 8.96835 55.2858 6.00002 51.6241 6.00002C47.9625 6.00002 44.9942 8.96835 44.9942 12.63C44.9942 16.2916 47.9625 19.2599 51.6241 19.2599Z" fill="white"/>
<path d="M36.0447 34.8395C39.7063 34.8395 42.6746 31.8711 42.6746 28.2095C42.6746 24.5479 39.7063 21.5795 36.0447 21.5795C32.383 21.5795 29.4147 24.5479 29.4147 28.2095C29.4147 31.8711 32.383 34.8395 36.0447 34.8395Z" fill="white"/>
<path d="M36.0447 50.4202C39.7063 50.4202 42.6746 47.4518 42.6746 43.7902C42.6746 40.1286 39.7063 37.1602 36.0447 37.1602C32.383 37.1602 29.4147 40.1286 29.4147 43.7902C29.4147 47.4518 32.383 50.4202 36.0447 50.4202Z" fill="white"/>
<path d="M15.9028 60.2397H13.8352V59.0085H19.2508V60.2397H17.1832V65.9012H15.9028V60.2397Z" fill="white"/>
<path d="M23.5732 64.424C23.4652 64.8176 22.8448 65.9996 21.2596 65.9996C19.7824 65.9996 18.6988 64.9196 18.6988 63.3896C18.6988 61.8596 19.7788 60.7808 21.2596 60.7808C22.6372 60.7808 23.7208 61.8608 23.7208 63.2912C23.719 63.4118 23.709 63.5321 23.6908 63.6512L23.6716 63.7892H19.93C20.038 64.4876 20.56 64.97 21.2596 64.97C21.8404 64.97 22.1944 64.6352 22.2928 64.4288L23.5732 64.424ZM22.4932 62.9468C22.3852 62.3072 21.9616 61.814 21.2632 61.814C20.5144 61.814 20.0812 62.3072 19.9336 62.9468H22.4932Z" fill="white"/>
<path d="M24.4587 59.0085H25.6899V65.9012H24.4587V59.0085Z" fill="white"/>
<path d="M31.3011 64.424C31.1931 64.8176 30.5727 65.9996 28.9875 65.9996C27.5103 65.9996 26.4279 64.9196 26.4279 63.3896C26.4279 61.8596 27.5079 60.7808 28.9875 60.7808C30.3663 60.7808 31.4499 61.8608 31.4499 63.2912C31.4475 63.4117 31.4375 63.532 31.4199 63.6512L31.3995 63.7892H27.6579C27.7659 64.4876 28.2879 64.97 28.9875 64.97C29.5683 64.97 29.9235 64.6352 30.0219 64.4288L31.3011 64.424ZM30.2211 62.9468C30.1119 62.3072 29.6895 61.814 28.9899 61.814C28.2411 61.814 27.8079 62.3072 27.6603 62.9468H30.2211Z" fill="white"/>
<path d="M32.5815 62.0612H31.7415V60.8792H32.5815V60.14C32.5815 59.3924 33.0615 58.91 33.8127 58.91H34.8927V59.99H34.1547C34.109 59.9888 34.0636 59.997 34.0212 60.014C33.9788 60.0309 33.9403 60.0564 33.9081 60.0887C33.8759 60.1211 33.8506 60.1596 33.8338 60.2021C33.8169 60.2445 33.8089 60.29 33.8103 60.3356V60.8768H34.8903V62.0588H33.8103V65.8988H32.5815V62.0612Z" fill="white"/>
<path d="M40.2002 63.3896C40.2002 64.916 39.1202 65.9996 37.6394 65.9996C36.1586 65.9996 35.0846 64.9196 35.0846 63.3896C35.0846 61.8596 36.1646 60.7808 37.6442 60.7808C39.1238 60.7808 40.2002 61.8644 40.2002 63.3896ZM38.969 63.3896C38.969 62.504 38.3786 61.9136 37.6394 61.9136C36.9002 61.9136 36.3098 62.504 36.3098 63.3896C36.3098 64.2752 36.9014 64.8668 37.6394 64.8668C38.3774 64.8668 38.969 64.2764 38.969 63.3896Z" fill="white"/>
<path d="M40.9382 60.8793H42.0698L42.1682 61.3712H42.2174C42.3154 61.2584 42.428 61.1591 42.5522 61.076C42.8637 60.8774 43.2268 60.7748 43.5962 60.7809C44.729 60.7809 45.5654 61.6208 45.5654 62.8976V65.8976H44.3354V62.9996C44.3354 62.7122 44.2213 62.4366 44.018 62.2334C43.8148 62.0302 43.5392 61.916 43.2518 61.916C42.9644 61.916 42.6888 62.0302 42.4856 62.2334C42.2824 62.4366 42.1682 62.7122 42.1682 62.9996V65.9048H40.9382V60.8793Z" fill="white"/>
<path d="M53.4001 64.0304C53.2429 64.8176 52.6225 65.9996 51.0373 65.9996C49.5602 65.9996 48.4766 64.9196 48.4766 63.3896C48.4766 61.8596 49.5566 60.7808 51.0373 60.7808C52.6225 60.7808 53.2429 61.9628 53.4001 62.7008H52.1689C52.0913 62.4646 51.9389 62.2601 51.7347 62.1181C51.5306 61.9761 51.2858 61.9043 51.0373 61.9136C50.2982 61.9136 49.7078 62.504 49.7078 63.3896C49.7078 64.2752 50.2982 64.8668 51.0373 64.8668C51.2938 64.8785 51.5466 64.8014 51.7527 64.6483C51.9589 64.4953 52.1059 64.2757 52.1689 64.0268L53.4001 64.0304Z" fill="white"/>
<path d="M57.1225 65.4092H57.0733C56.974 65.5248 56.8574 65.6243 56.7277 65.7044C56.4037 65.9048 56.0287 66.0073 55.6477 65.9996C54.5053 65.9996 53.8262 65.3 53.8262 64.4732C53.8262 63.4892 54.515 62.7992 55.8937 62.7992H57.0265V62.7008C57.0265 62.1488 56.6917 61.7648 56.1397 61.7648C55.5877 61.7648 55.2997 62.1248 55.2541 62.4056H54.0206C54.1286 61.5788 54.7981 60.7808 56.1373 60.7808C57.4177 60.7808 58.2541 61.628 58.2541 62.7008V65.9012H57.2209L57.1225 65.4092ZM57.0241 63.7292H55.9897C55.3501 63.7292 55.0537 63.9692 55.0537 64.3688C55.0537 64.7684 55.3393 65.0084 55.8421 65.0084C56.5897 65.0084 57.0241 64.5752 57.0241 63.8768V63.7292Z" fill="white"/>
<path d="M46.5086 60.8792H47.7385V65.9012H46.5086V60.8792Z" fill="white"/>
<path d="M47.1242 60.1569C47.5265 60.1569 47.8526 59.8308 47.8526 59.4285C47.8526 59.0262 47.5265 58.7001 47.1242 58.7001C46.7219 58.7001 46.3958 59.0262 46.3958 59.4285C46.3958 59.8308 46.7219 60.1569 47.1242 60.1569Z" fill="white"/>
<path d="M38.0834 58.7624H39.3626L38.1806 60.1904H37.1475L38.0834 58.7624Z" fill="white"/>
</svg>
