<svg width="72" height="72" viewBox="0 0 72 72" fill="none" xmlns="http://www.w3.org/2000/svg">
<path d="M36.0311 53.5852C37.2213 53.6541 37.5696 54.2869 37.9732 54.7706C38.3786 55.2543 44.2721 62.3265 44.6731 62.7854C45.0709 63.2492 46.173 64.0993 47.3848 64.2608C48.5947 64.421 49.9226 64.1763 50.7722 63.5622C51.6198 62.9474 52.6965 62.111 53.0747 61.5534C53.4503 60.9957 54.0911 60.1953 53.9731 58.8801C53.8538 57.5674 53.5664 56.8806 52.5398 55.7536C51.5145 54.6278 45.4484 47.4985 44.307 46.1305C44.307 46.1305 43.2697 44.9134 43.42 43.1934C43.571 41.4702 44.3501 40.7015 45.9909 40.273C47.6297 39.847 54.0397 38.2958 54.0397 38.2958C54.0397 38.2958 57.7088 36.5584 56.877 33.1164L56.3992 31.356C56.3992 31.356 55.6005 27.3396 50.3274 28.5834C45.0512 29.8303 42.12 30.5655 42.12 30.5655C42.12 30.5655 40.44 30.7257 40.1995 29.616C39.9622 28.5057 40.2737 27.9326 41.016 27.6234C41.7577 27.3135 46.4413 25.0762 47.0422 19.028C47.6475 12.9773 42.5819 7.59856 36.0133 7.62153C29.4428 7.64637 24.6888 12.5998 24.7084 17.7277C24.7281 22.8581 28.0546 26.2715 30.6115 27.5457C32.0625 28.2679 31.5981 29.5682 31.5981 29.5682C31.5981 29.5682 31.2498 30.8331 29.7226 30.4966C28.1954 30.1538 20.7982 28.4604 20.7982 28.4604C20.7982 28.4604 16.3367 27.6339 15.2594 32.0384C14.1808 36.4466 16.6888 38.1213 18.5294 38.5362C20.3693 38.9503 26.5941 40.4574 26.5941 40.4574C26.5941 40.4574 28.4461 41.3715 28.5184 43.2462C28.5634 44.3546 28.5653 45.2736 27.3986 46.9247C26.2337 48.5753 18.9894 57.0222 18.9894 57.0222C18.9894 57.0222 16.4991 59.9792 20.1073 62.6444C23.7155 65.3102 25.7458 64.6892 27.8877 62.2333C30.0278 59.778 34.2571 54.6365 34.2571 54.6365C34.2571 54.6365 34.8408 53.5181 36.0311 53.5852Z" fill="#660099"/>
</svg>
